<svg width="60" height="88" viewBox="0 0 60 88" fill="none" xmlns="http://www.w3.org/2000/svg">
<path d="M26.7606 48.9692H29.6869V42.1636H26.7606V48.9692Z" fill="#AD7653"/>
<path d="M17.4032 84.5971C12.8776 74.4908 10.3936 65.7116 27.2029 67.5831C32.9875 68.2297 34.6207 67.7873 37.7172 69.863C40.8136 71.9387 54.0161 87.1833 54.0161 87.1833L52.9953 87.2854C52.9953 87.2854 39.7928 72.9596 33.1916 72.1089C26.5904 71.2922 17.9136 69.6248 16.6886 74.1846C15.7018 77.7915 18.6621 84.5971 18.6621 84.5971H17.4372H17.4032Z" fill="#70974C"/>
<path d="M52.9272 85.8904L52.3828 85.9584C52.3828 85.9584 39.9289 71.9729 33.3277 71.1562C26.7265 70.3396 17.3011 68.2979 16.0761 72.8576C15.0893 76.4646 18.0497 83.2702 18.0497 83.2702H16.8587C17.0629 83.7126 17.233 84.1549 17.4372 84.5973H18.6622C18.6622 84.5973 15.7018 77.7917 16.6886 74.1847C17.9136 69.659 26.5904 71.2924 33.1916 72.109C39.7928 72.9257 52.9953 87.2855 52.9953 87.2855L54.0161 87.1834C54.0161 87.1834 53.6077 86.707 52.8932 85.8904H52.9272Z" fill="#5B7842"/>
<path d="M19.1727 68.5356C25.6718 64.9627 19.0025 48.1188 23.1878 46.8598C26.2843 45.941 33.0897 47.166 34.9611 49.1737C36.8326 51.1813 37.8874 69.4544 42.0728 74.5586C42.0728 74.5586 26.8968 67.2766 19.1727 68.5356Z" fill="#70974C"/>
<path d="M34.4166 48.9697C35.7096 50.5349 36.5943 61.9684 38.7039 69.3524C39.2143 71.1899 40.3372 71.6323 39.6907 69.4885C37.3769 62.1045 36.3901 50.7731 34.961 49.2079C34.5867 48.7995 34.0423 48.4592 33.3617 48.119C33.77 48.3912 34.1443 48.6634 34.3825 48.9697H34.4166Z" fill="#5B7842"/>
<path d="M21.9963 66.0516C24.4123 60.471 20.8394 48.6292 23.4595 46.7917C23.3914 46.8257 23.2894 46.8257 23.2213 46.8598C19.6485 47.9487 23.9699 60.4029 21.2818 66.2217C20.8054 67.2085 21.588 67.0044 22.0304 66.0516H21.9963Z" fill="#5B7842"/>
<path d="M22.9834 53.3936C20.6015 51.8623 7.87549 51.386 3.17978 42.1984L4.26864 40.9734C4.26864 40.9734 8.28381 49.7866 22.5411 47.847L22.9834 53.3936Z" fill="#70974C"/>
<path d="M17.7095 48.1869L21.1462 50.5689C21.6907 50.9432 22.4393 51.0112 23.0518 50.705C23.6642 50.3987 24.0385 49.7862 24.0385 49.0717L24.1406 46.6897L17.7095 48.1869Z" fill="#5B7842"/>
<path d="M22.5411 52.4068C19.5467 51.0117 8.11368 50.2631 3.38394 41.9602L3.17978 42.1984C7.6373 50.9436 19.2745 52.0666 22.507 53.4617L22.5411 52.4068Z" fill="#5B7842"/>
<path d="M33.5655 48.595C38.1931 51.0791 45.9512 54.8222 54.7982 45.6686L55.2065 46.8596C55.2065 46.8596 47.3123 58.1909 33.8717 52.168L33.5995 48.595H33.5655Z" fill="#70974C"/>
<path d="M32.205 47.5067L33.3619 51.7942C33.5661 52.2025 33.9404 52.5088 34.3827 52.6109C34.8251 52.6789 35.3015 52.5428 35.6417 52.2366L37.5132 50.5352L32.205 47.5067Z" fill="#5B7842"/>
<path d="M55.0027 46.2815C53.7777 47.8468 46.598 55.9114 35.4032 52.0323L35.6414 53.2232C48.0272 57.5448 55.2068 46.86 55.2068 46.86L55.0027 46.2815Z" fill="#5B7842"/>
<path d="M32.0003 46.9958L33.7016 50.7389C33.9058 51.1472 34.2801 51.4535 34.7225 51.5556C35.1648 51.6236 35.6412 51.4875 35.9814 51.1813L37.921 49.2417L32.0003 46.9958Z" fill="#FAE159"/>
<path d="M17.3014 47.4728L20.7381 49.8547C21.2825 50.229 22.0311 50.2971 22.6436 49.9908C23.2561 49.6846 23.6304 49.0721 23.6304 48.3575L23.6644 46.2137L17.3014 47.5068V47.4728Z" fill="#FAE159"/>
<path d="M45.2707 80.8878L46.7338 75.8177L55.3766 87.3872L59.3238 87.9997H52.6205L45.2707 80.8878Z" fill="#FAE159"/>
<path d="M49.1158 79.6969C51.2935 82.9976 52.6546 86.1962 52.7567 87.9997H59.3239L55.4108 87.3872L46.7339 75.8177L46.5978 76.294C47.4485 77.2809 48.2992 78.4038 49.1499 79.6628L49.1158 79.6969Z" fill="#E4C038"/>
<path d="M17.9475 77.8935L11.5505 75.5115L17.301 87.3873L14.2046 87.9998H19.785L17.9475 77.8935Z" fill="#FAE159"/>
<path d="M18.5262 88H19.7852L17.9137 77.8937L11.8569 75.6478C15.5318 78.0978 19.4449 84.6312 18.4922 88H18.5262Z" fill="#E4C038"/>
<path d="M3.34995 42.198C1.58055 42.3341 -0.937435 41.6195 0.355587 38.9313C1.68263 36.2091 4.23465 39.5779 4.54089 41.8577L3.34995 42.198Z" fill="#8BBA5D"/>
<path d="M20.5673 67.4134L40.5071 71.803L39.3502 68.6724L21.1458 66.4265L20.5673 67.4134Z" fill="#5B7842"/>
<path d="M20.0915 66.9709C20.0915 66.9709 41.018 71.2925 40.9159 70.9862C40.8138 70.68 40.0652 65.7119 40.0652 65.7119L20.7039 65.0994L20.0574 66.9709H20.0915Z" fill="#FAE159"/>
<path d="M21.8268 66.4605C21.8268 66.0181 21.8268 65.5758 21.8609 65.1334L20.7039 65.0994L20.0574 66.9709C20.0574 66.9709 20.738 67.107 21.8268 67.3452C21.8268 67.073 21.7928 66.7667 21.7928 66.4605H21.8268Z" fill="#E4C038"/>
<path d="M40.0988 65.7112L38.1252 65.6431C38.1252 65.9154 38.1593 66.1876 38.1593 66.4258C38.1593 67.8209 38.0232 69.182 37.7169 70.4411C39.6905 70.8154 40.9835 71.0196 40.9495 70.9515C40.8474 70.6452 40.0988 65.6772 40.0988 65.6772V65.7112Z" fill="#E4C038"/>
<path d="M3.07803 42.3345L3.75857 44.104L5.97032 42.5046L4.43911 40.9734L3.07803 42.3345Z" fill="#FAE159"/>
<path d="M30.9459 47.2683C30.9799 46.996 29.789 46.6558 28.2918 46.4516C26.7946 46.2474 25.5356 46.3155 25.5016 46.5877C25.4676 46.8599 26.6585 47.2002 28.1557 47.4044C29.6529 47.6086 30.9119 47.5405 30.9459 47.2683Z" fill="#FAE159"/>
<path d="M35.6074 50.1267C35.5393 49.7524 35.1991 49.4461 34.8588 49.4461C34.4845 49.4461 34.2463 49.7524 34.3144 50.1267C34.3824 50.501 34.7227 50.8073 35.063 50.8073C35.4373 50.8073 35.6755 50.501 35.6074 50.1267Z" fill="#EE6452"/>
<path d="M22.6771 48.9357C22.7111 48.5955 22.4389 48.3573 22.0646 48.3573C21.6903 48.3573 21.384 48.6295 21.35 48.9357C21.316 49.276 21.5882 49.5142 21.9625 49.5142C22.3368 49.5142 22.643 49.242 22.6771 48.9357Z" fill="#EE6452"/>
<path d="M31.7628 67.0731C31.7628 66.4606 31.2524 65.9842 30.6059 65.9842C29.9593 65.9842 29.4489 66.4606 29.4489 67.0731C29.4489 67.6856 29.9593 68.162 30.6059 68.162C31.2524 68.162 31.7628 67.6856 31.7628 67.0731Z" fill="#EE6452"/>
<path d="M4.13308 39.7486C3.86086 39.034 3.38449 38.5916 3.07824 38.6937C2.772 38.8298 2.73797 39.4763 3.04422 40.1909C3.31643 40.9055 3.79281 41.3479 4.09905 41.2458C4.40529 41.1097 4.43932 40.4632 4.13308 39.7486Z" fill="#AD7653"/>
<path d="M3.31618 40.0883C3.5884 39.3737 3.55437 38.7271 3.24813 38.625C2.94189 38.523 2.46551 38.9994 2.1933 39.6799C1.92108 40.3945 2.05719 40.5987 2.36343 40.7008C2.66967 40.8028 3.04397 40.8028 3.31618 40.0883Z" fill="#AD7653"/>
<path d="M1.3761 38.9315C1.98859 39.2378 2.56704 39.2378 2.66913 38.9315C2.77121 38.6253 2.39691 38.1489 1.78443 37.8426C1.17194 37.5364 1.00181 37.6725 0.899728 37.9447C0.797647 38.251 0.797647 38.5913 1.3761 38.8975V38.9315Z" fill="#AD7653"/>
<path d="M0.797766 39.9526C1.41025 40.2589 1.98871 40.2589 2.09079 39.9526C2.19287 39.6464 1.81857 39.17 1.20609 38.8637C0.593604 38.5575 0.42347 38.6936 0.321389 38.9658C0.219309 39.2721 0.219309 39.6124 0.797766 39.9186V39.9526Z" fill="#AD7653"/>
<path d="M0.729917 41.3133C1.3424 41.5855 1.92086 41.5175 2.02294 41.2112C2.12502 40.905 1.68267 40.4286 1.07019 40.1904C0.457702 39.9181 0.287567 40.0543 0.185487 40.3605C0.0834061 40.6668 0.117433 41.0411 0.729917 41.2793V41.3133Z" fill="#AD7653"/>
<path d="M55.2406 47.3022C56.9759 46.9959 59.2557 45.7028 57.3502 43.3889C55.4107 41.075 53.7434 44.9542 54.0156 47.2341L55.2406 47.2681V47.3022Z" fill="#8BBA5D"/>
<path d="M53.8799 45.124C53.982 44.3754 54.3223 43.7969 54.6285 43.8649C54.9347 43.899 55.1389 44.5455 55.0368 45.2941C54.9347 46.0427 54.5945 46.6212 54.2882 46.5532C53.982 46.5191 53.7778 45.8726 53.8799 45.124Z" fill="#AD7653"/>
<path d="M54.7649 45.2611C54.3225 44.6486 54.1864 44.0021 54.4586 43.7979C54.7308 43.6277 55.3093 43.968 55.7176 44.5805C56.16 45.193 56.0579 45.4312 55.7857 45.6014C55.5134 45.7715 55.1732 45.8396 54.7308 45.2271L54.7649 45.2611Z" fill="#AD7653"/>
<path d="M56.364 43.6614C55.8536 44.1038 55.3092 44.2399 55.105 44.0017C54.9349 43.7295 55.1731 43.151 55.6835 42.7086C56.1939 42.2663 56.398 42.3343 56.5682 42.6065C56.7383 42.8788 56.8404 43.2191 56.33 43.6614H56.364Z" fill="#AD7653"/>
<path d="M57.1461 44.512C56.6357 44.9543 56.0913 45.0904 55.8871 44.8522C55.717 44.58 55.9551 44.0015 56.4655 43.5592C56.976 43.1168 57.1801 43.1849 57.3502 43.4571C57.5204 43.7293 57.6225 44.0696 57.1121 44.512H57.1461Z" fill="#AD7653"/>
<path d="M57.5551 45.8394C57.0106 46.2477 56.4662 46.3498 56.2961 46.0776C56.1259 45.8054 56.4322 45.2609 56.9766 44.8526C57.521 44.4443 57.7252 44.5463 57.8953 44.8186C58.0655 45.0908 58.1335 45.4651 57.5891 45.8394H57.5551Z" fill="#AD7653"/>
<path d="M53.8802 46.3493L52.2809 47.3702L53.9142 49.0035L55.2072 47.2681L53.8802 46.3493Z" fill="#FAE159"/>
<path d="M26.5908 59.0415L25.9443 54.0053L32.6135 53.9373L32.7156 59.3137L26.5908 59.0415Z" fill="#FAE159"/>
<path d="M27.3387 58.3615L26.8623 54.7205L31.6941 54.6865L31.7962 58.5997L27.3387 58.3615Z" fill="#70974C"/>
<path d="M32.2386 47.6427L32.2045 47.5066L32.2386 47.6427ZM23.6638 46.758V46.1795V46.758Z" fill="#B3A6A1"/>
<path d="M28.3937 50.8069C26.5563 50.8069 24.8209 50.7048 23.2556 50.5347C23.732 50.1944 24.0383 49.65 24.0383 49.0374L24.1403 46.6555L23.6299 46.7916V46.7576C24.1744 46.6555 24.8209 46.5874 25.5014 46.5534C25.5014 46.5534 25.5014 46.5534 25.5014 46.5874C25.4674 46.8597 26.6583 47.1999 28.1555 47.4041C28.734 47.4722 29.3124 47.5062 29.7548 47.5062C30.4353 47.5062 30.9117 47.4381 30.9457 47.268C31.3881 47.3701 31.7964 47.5062 32.2047 47.6763L33.0214 50.6368C31.5922 50.7729 30.027 50.8409 28.3937 50.8409V50.8069Z" fill="#54653B"/>
<path d="M37.1724 49.9567L37.921 49.2081L37.1724 49.9567ZM18.0493 48.0852C16.9604 48.0511 15.9737 47.9831 15.0209 47.813C15.9737 47.9491 16.9604 48.0511 18.0833 48.0852L18.1854 48.0511L18.0833 48.0852H18.0493ZM32.2385 47.5067L32.1704 47.4727L32.2385 47.5067L32.0003 46.9622L32.2385 47.5067Z" fill="#B3A6A1"/>
<path d="M20.5673 50.161C17.709 49.6165 15.6674 48.7998 15.0209 47.847C15.9396 47.9832 16.9604 48.0852 18.0493 48.1193L17.709 48.1873L20.5673 50.161Z" fill="#54653B"/>
<path d="M23.2559 50.5351C22.3032 50.433 21.3844 50.2969 20.5678 50.1268L17.7095 48.1531L18.0498 48.0851L18.1519 48.0511L20.7039 49.8205C21.0101 50.0247 21.3844 50.1608 21.7587 50.1608C22.065 50.1608 22.3372 50.0927 22.6094 49.9566C23.2219 49.6504 23.5962 49.0379 23.5962 48.3233L23.6302 46.758L24.1406 46.6219L24.0385 49.0038C24.0385 49.6164 23.7323 50.1608 23.2559 50.5011V50.5351Z" fill="#475435"/>
<path d="M33.0215 50.6032L32.2048 47.6428L32.1708 47.5067L32.2389 47.5407L33.5999 50.5352C33.3958 50.5692 33.2256 50.5692 33.0215 50.6032Z" fill="#475435"/>
<path d="M33.6338 50.5347L32.2727 47.5403L32.0345 46.9958L37.9552 49.2417L37.2066 49.9903C36.6962 50.0924 36.1858 50.1945 35.6414 50.2965C35.6414 50.2285 35.6414 50.1945 35.6414 50.1264C35.5733 49.7521 35.233 49.4458 34.8928 49.4458C34.5185 49.4458 34.2803 49.7521 34.3483 50.1264C34.3824 50.2625 34.4164 50.3646 34.4845 50.4667C34.2122 50.5007 33.94 50.5347 33.6678 50.5688L33.6338 50.5347Z" fill="#B4943E"/>
<path d="M29.6869 46.6901C29.2786 46.588 28.8022 46.52 28.2918 46.4519C27.7134 46.3839 27.203 46.3498 26.7606 46.3498V43.6276C27.3051 43.5936 27.8495 43.5936 28.4279 43.5936C28.8703 43.5936 29.2786 43.5936 29.721 43.5936V46.6561L29.6869 46.6901Z" fill="#7D523D"/>
<path d="M21.7929 50.1948C21.4186 50.1948 21.0443 50.0927 20.7381 49.8545L18.1861 48.0851L17.3014 47.4726L23.6644 46.1795V46.758V46.792L23.6304 48.3573C23.6304 49.0379 23.222 49.6504 22.6436 49.9906C22.3714 50.1268 22.0992 50.1948 21.7929 50.1948ZM22.0992 48.3573C21.7249 48.3573 21.4186 48.6295 21.3846 48.9358C21.3506 49.2761 21.6228 49.5142 21.9971 49.5142C22.3714 49.5142 22.6776 49.242 22.7116 48.9358C22.7457 48.5955 22.4734 48.3573 22.0992 48.3573Z" fill="#B4943E"/>
<path d="M29.7892 47.5067C29.3468 47.5067 28.7684 47.4727 28.1899 47.4047C26.6927 47.2005 25.5018 46.8602 25.5358 46.588C25.5358 46.588 25.5358 46.588 25.5358 46.554C25.6039 46.4178 26.0462 46.3158 26.7267 46.3158C26.7608 46.3158 26.7608 46.3158 26.7948 46.3158C27.2372 46.3158 27.7816 46.3498 28.326 46.4178C28.8364 46.4859 29.3128 46.554 29.7211 46.656C30.5037 46.8262 30.9801 47.0304 30.9801 47.2005C30.9461 47.3706 30.5037 47.4387 29.7892 47.4387V47.5067Z" fill="#B4943E"/>
<path d="M34.4159 50.4328C34.3479 50.3307 34.3139 50.2286 34.2798 50.0925C34.2118 49.7182 34.45 49.4119 34.8243 49.4119C35.1986 49.4119 35.5388 49.7182 35.5729 50.0925C35.5729 50.1605 35.5729 50.1946 35.5729 50.2626C35.1986 50.3307 34.7902 50.3987 34.4159 50.4328Z" fill="#A9483C"/>
<path d="M21.9972 49.5478C21.6229 49.5478 21.3847 49.2756 21.3847 48.9693C21.4187 48.629 21.7249 48.3908 22.0992 48.3908C22.4735 48.3908 22.7117 48.6631 22.7117 48.9693C22.6777 49.3096 22.3715 49.5478 21.9972 49.5478Z" fill="#A9483C"/>
<path d="M45.1344 34.9164L19.0358 29.8462L17.9129 43.0491C23.9017 42.5387 31.5577 42.4026 37.6485 45.8054L45.1344 34.9164Z" fill="#C99C58"/>
<path d="M12.3336 31.9221C13.4905 35.6651 25.8082 55.2993 41.4946 37.0603C43.7404 34.4401 42.073 25.8311 42.073 25.8311L12.3336 31.9221Z" fill="#82513B"/>
<path d="M39.2477 39.4416L24.0717 38.5909L23.7655 43.8993C25.3648 44.5118 27.1342 45.0222 28.9716 44.8861C32.1021 44.6819 35.5388 42.9805 39.2137 39.4416H39.2477Z" fill="#AD7653"/>
<path d="M14.1705 42.3344L21.2481 45.1247L22.8473 44.5462L21.8606 36.8219L41.8343 38.5233L36.7984 44.5803L37.615 45.8053C37.615 45.8053 50.3751 36.4135 45.8155 25.2864C41.2559 14.1933 32.1707 13.2065 29.959 12.8321C23.1536 11.6412 0.151411 13.4106 14.1705 42.3344Z" fill="#F6D347"/>
<path d="M14.9531 37.1279C12.1629 37.1279 9.88312 32.7383 9.88312 27.3278C9.88312 21.9174 12.1629 17.5278 14.9531 17.5278C17.7433 17.5278 20.0231 21.9174 20.0231 27.3278C20.0231 32.7383 17.7433 37.1279 14.9531 37.1279ZM15.3614 16.8132C12.1969 16.8132 9.64493 21.5431 9.64493 27.3959C9.64493 33.2487 12.1969 37.9786 15.3614 37.9786C18.5259 37.9786 21.078 33.2487 21.078 27.3959C21.078 21.5431 18.5259 16.8132 15.3614 16.8132Z" fill="#D46541"/>
<path d="M29.4824 32.976L37.853 33.4524C39.044 25.1836 38.5336 19.2287 36.8663 15.0093C33.8038 13.4099 31.0477 13.0697 29.9588 12.8655C29.1762 12.7294 28.1554 12.6273 27.0325 12.5933C30.0269 16.9488 31.524 23.3121 29.4824 32.976Z" fill="#FBF388"/>
<path d="M45.849 25.3202C43.6713 19.9778 40.4388 16.9833 37.4104 15.2819C45.5428 21.9174 44.522 34.3716 37.1382 38.1487L41.8339 38.557L36.7979 44.614L37.6145 45.839C37.6145 45.839 50.3746 36.4473 45.815 25.3202H45.849Z" fill="#E4C038"/>
<path d="M43.0596 20.3517C47.1769 27.7358 47.0748 33.2143 43.6041 39.5095C47.8914 34.8477 47.9595 24.9455 43.0596 20.3517Z" fill="#D46541"/>
<path d="M45.3732 31.1731L17.9816 28.8251C17.7774 31.9897 18.7642 34.1675 20.976 35.6988L43.5358 37.6044C44.9309 34.8481 45.2712 33.1127 45.4073 31.139L45.3732 31.1731Z" fill="#66574E"/>
<path d="M28.5974 39.6119L33.225 40.0203C33.225 40.0203 28.9036 47.2342 28.5974 39.6119Z" fill="#553830"/>
<path d="M28.8706 39.9181L29.3129 42.4021L30.708 42.6403L32.5795 40.2243L28.8706 39.9181Z" fill="#FEF0EA"/>
<path d="M44.6587 31.6834L18.5601 29.4716C18.39 32.0577 19.3767 33.8612 21.4864 35.1543L42.9574 36.9918C44.2504 34.746 44.5566 33.3168 44.6587 31.7175V31.6834Z" fill="#493F3A"/>
<path d="M41.8689 31.4452L31.2526 30.5605L24.9236 35.4265L35.5399 36.3452L41.8689 31.4452Z" fill="#403834"/>
<path d="M38.6361 34.814L36.7646 36.2432L37.9556 36.2772L39.793 34.8821L38.6361 34.814Z" fill="#7F6C64"/>
<path d="M41.5622 33.5552L43.5358 32.058L42.3108 32.024L40.3713 33.4872L41.5622 33.5552Z" fill="#7F6C64"/>
<path d="M32.8509 38.9657C32.8509 38.6935 32.3405 38.4553 31.694 38.4553C31.0475 38.4553 30.5371 38.6935 30.5371 38.9657C30.5371 39.2379 31.0475 39.4761 31.694 39.4761C32.3405 39.4761 32.8509 39.2379 32.8509 38.9657Z" fill="#82513B"/>
<path d="M33.1232 38.6931C33.1232 38.4209 32.6128 38.1827 31.9663 38.1827C31.3198 38.1827 30.8094 38.4209 30.8094 38.6931C30.8094 38.9654 31.3198 39.2035 31.9663 39.2035C32.6128 39.2035 33.1232 38.9654 33.1232 38.6931Z" fill="#AD7653"/>
<path d="M14.3061 21.3393C14.9866 19.808 14.9186 18.4469 14.1359 18.3448C13.3533 18.2087 12.1624 19.3656 11.4818 20.8969C10.8013 22.4282 10.8694 23.7893 11.652 23.8914C12.4346 24.0275 13.6255 22.8705 14.3061 21.3393Z" fill="#FBF388"/>
<path d="M11.2096 25.7285C11.2096 25.184 11.0395 24.7757 10.8013 24.8437C10.5631 24.9118 10.325 25.3882 10.325 25.9326C10.325 26.4771 10.4951 26.8854 10.7333 26.8173C10.9715 26.7493 11.2096 26.2729 11.2096 25.7285Z" fill="#FBF388"/>
<path d="M21.2477 45.1249L20.2609 36.4138L21.8602 36.8221L22.8469 44.5465L21.2477 45.1249Z" fill="#E4C038"/>
<path d="M33.4297 40.0204C33.4297 39.9183 33.3276 39.8503 33.2255 39.8503C33.1234 39.8503 33.0214 39.9183 33.0214 40.0204C33.0214 40.1225 33.1234 40.1905 33.2255 40.1905C33.3276 40.1905 33.4297 40.1225 33.4297 40.0204Z" fill="#553830"/>
<path d="M28.8023 39.68C28.8023 39.5779 28.7002 39.5099 28.5981 39.5099C28.496 39.5099 28.394 39.5779 28.394 39.68C28.394 39.7821 28.496 39.8502 28.5981 39.8502C28.7002 39.8502 28.8023 39.7821 28.8023 39.68Z" fill="#553830"/>
</svg>
