<svg width="50" height="77" viewBox="0 0 50 77" fill="none" xmlns="http://www.w3.org/2000/svg">
<path d="M46.4758 51.2578C44.3115 51.957 33.457 53.0558 29.0619 46.463L31.1928 45.797C31.5258 45.6971 31.892 45.797 32.1251 46.0967C33.1573 47.5285 36.7866 51.3244 46.4092 50.7583L46.509 51.2578H46.4758Z" fill="#E35965"/>
<path d="M46.3759 50.7916C45.0774 50.8582 43.8787 50.8582 42.78 50.7916V51.2578C41.0486 51.4909 33.9898 50.8915 29.3616 46.9292C33.8899 53.0225 44.3449 51.957 46.4425 51.2578L46.3426 50.7583L46.3759 50.7916Z" fill="#CA4659"/>
<path d="M27.1637 46.2297H30.1271V39.2373H27.1637V46.2297Z" fill="#F8BE84"/>
<path d="M34.1894 60.6139C34.1894 60.6139 34.8887 51.3906 32.4913 46.7623C31.4259 44.6978 28.3959 44.3981 27.0308 44.6978C22.669 45.6634 24.2672 59.5817 24.8665 62.6783C25.1662 64.1767 27.1972 67.7062 22.902 72.2347L23.5347 73.167C23.5347 73.167 27.2305 70.2368 27.3304 67.0403C27.397 63.877 29.7278 63.0446 31.3593 62.6783C32.9575 62.3121 36.953 64.1767 39.3504 68.1391L40.4158 67.573C40.4158 67.573 37.6855 62.6117 34.2227 60.6139H34.1894Z" fill="#E35965"/>
<path d="M34.8222 60.6474L24.6335 61.4799L24.8 62.3456L34.8222 61.3134V60.6474Z" fill="#CA4659"/>
<path d="M24.2339 57.6175C24.3338 57.6841 25.9653 49.3265 25.6656 45.6305C23.9342 47.8614 23.8676 53.3555 24.2339 57.6175Z" fill="#CA4659"/>
<path d="M33.79 59.7815C33.9232 59.8481 34.0564 59.948 34.2229 60.0479C34.2895 58.4829 34.4227 54.0544 33.6569 50.2918C33.557 49.7591 33.8233 59.8148 33.8233 59.8148L33.79 59.7815Z" fill="#CA4659"/>
<path d="M39.8831 66.774L38.9175 67.2735C36.5535 63.3111 32.8243 61.846 31.1928 62.2123C29.5946 62.5786 26.9975 63.0114 26.8976 66.1747C26.831 69.3379 23.1351 72.3014 23.1351 72.3014L23.0019 72.1016L22.902 72.2015L23.5347 73.1338C23.5347 73.1338 27.2305 70.2036 27.3304 67.0071C27.397 64.31 29.3948 62.9115 31.7921 62.9115C34.2227 62.9115 37.0529 64.3433 39.317 68.1059L40.3825 67.5398C40.3825 67.5398 40.216 67.2402 39.9164 66.7407L39.8831 66.774Z" fill="#CA4659"/>
<path d="M23.7011 68.5055C23.7011 68.5055 26.1983 67.107 28.2294 67.44C30.2604 67.7729 20.9375 75.7976 20.9375 75.7976L22.3359 76.8631L18.74 76.963L23.7344 68.4722L23.7011 68.5055Z" fill="#FFCE64"/>
<path d="M28.2293 67.4402C27.6633 67.3403 27.064 67.4069 26.4979 67.5068C25.3991 70.4036 23.2349 73.2339 19.306 76.9965L22.3359 76.8966L20.9375 75.8311C20.9375 75.8311 30.2937 67.7731 28.2293 67.4735V67.4402Z" fill="#E8B34E"/>
<path d="M36.8861 65.9082C36.8861 65.9082 37.1858 64.5763 39.8495 65.3755C42.3134 66.1413 43.6119 75.631 43.6119 75.631L46.8416 76.7298L42.4133 76.8297L36.8861 65.8749V65.9082Z" fill="#FFCE64"/>
<path d="M43.3456 76.8297L46.8417 76.7631L43.612 75.6643C43.612 75.6643 42.3134 66.1413 39.8495 65.4088C39.7496 65.3755 39.683 65.3755 39.6165 65.3422C41.2813 69.0049 42.8462 73.9329 43.3456 76.863V76.8297Z" fill="#E8B34E"/>
<path d="M16.0764 58.0837C15.8434 56.4188 17.2751 46.363 26.8977 44.6982L27.497 47.0956C27.497 47.0956 18.8733 48.3941 16.5426 58.1503L16.0431 58.0837H16.0764Z" fill="#E35965"/>
<path d="M16.8761 54.9871C16.4765 56.5187 16.0104 57.5842 16.077 58.0837L16.5764 58.1503C18.2745 50.9581 23.4354 48.3609 26.0325 47.4952C23.4687 48.1278 19.6396 50.0591 16.9094 54.9871H16.8761Z" fill="#CA4659"/>
<path d="M34.7888 59.3823L24.3338 60.7142L24.6334 61.813L34.922 60.9473L34.7888 59.3823Z" fill="#FFCE64"/>
<path d="M16.6424 57.917C16.6424 57.917 18.4737 59.6152 17.9743 60.1146C17.4748 60.6141 15.2107 60.8805 15.81 58.2833C15.8766 57.9503 16.6424 57.917 16.6424 57.917Z" fill="#FFCE64"/>
<path d="M16.5089 58.4834C16.5089 58.4834 18.1072 56.1525 18.9396 56.3523C18.9396 56.3523 16.0761 54.1547 14.2781 54.8539L15.8763 58.3502L16.5089 58.4501V58.4834Z" fill="#FFCE64"/>
<path d="M26.6313 44.7647L28.3627 46.1632L26.8643 46.4628L30.7267 51.8237L31.7256 47.595L30.7933 46.8957L31.326 45.3307C31.326 45.3307 29.1285 43.7658 26.6313 44.7647Z" fill="#FFCE64"/>
<path d="M27.8303 49.4262L29.8281 48.3274L32.2254 49.7925L30.7603 53.9547L27.8303 49.4262Z" fill="#FFCE64"/>
<path d="M32.3254 59.1491L28.9958 59.5154L29.2955 62.0127L32.6251 61.6131L32.3254 59.1491Z" fill="#FFCE64"/>
<path d="M31.4927 59.8482L30.0942 60.0147L30.2274 61.0469L31.6259 60.8804L31.4927 59.8482Z" fill="#E35965"/>
<path d="M27.5635 47.4284C27.1306 47.4284 26.7311 47.3951 26.3315 47.3951C26.7976 47.2619 27.1639 47.162 27.3637 47.1287L27.5968 47.4284H27.5635ZM27.2971 46.3628L26.9641 45.031L28.3626 46.1298L27.2971 46.3296V46.3628Z" fill="#A14147"/>
<path d="M26.3317 47.3617C24.6335 47.2618 23.0686 47.062 21.7701 46.7623C23.1019 45.83 24.7334 45.0975 26.6979 44.7312C26.6646 44.7312 26.6646 44.7312 26.6313 44.7645L26.9643 45.0309L27.2972 46.3628L26.8644 46.4627L27.3638 47.1286C27.1641 47.1619 26.7978 47.2618 26.3317 47.395V47.3617Z" fill="#A14147"/>
<path d="M32.8913 47.0287C32.5584 46.6625 32.292 46.3628 32.1255 46.0964C32.292 46.3295 32.5584 46.6625 32.9246 47.0287H32.8913Z" fill="#B3A6A1"/>
<path d="M32.6246 47.0622C32.558 46.9623 32.5247 46.8291 32.4581 46.7292C32.2916 46.3962 32.0586 46.0965 31.7922 45.8302C31.8921 45.8968 32.0253 45.9634 32.0919 46.0632C32.2584 46.2963 32.5247 46.6293 32.8577 46.9956C32.7578 46.9956 32.6912 47.0289 32.5913 47.0289L32.6246 47.0622Z" fill="#A14147"/>
<path d="M31.2595 47.2619L30.7934 46.8956L31.2595 45.4638C31.426 45.597 31.5925 45.6969 31.7589 45.8634C31.7589 45.8634 31.7589 45.8634 31.7922 45.8634C32.0586 46.1298 32.2917 46.3962 32.4582 46.7624C32.5247 46.8623 32.558 46.9622 32.6246 47.0954C32.1918 47.162 31.7256 47.2286 31.2595 47.2619Z" fill="#A14147"/>
<path d="M30.1273 44.7315C29.6279 44.565 29.0285 44.4318 28.3626 44.4318C27.9964 44.4318 27.5968 44.4651 27.1973 44.5983V42.7669C28.063 42.9334 28.962 43 29.8942 43C29.9608 43 30.0607 43 30.1273 43V44.7648V44.7315Z" fill="#B07E59"/>
<path d="M27.9629 47.4284C27.8297 47.4284 27.6965 47.4284 27.5633 47.4284L27.3302 47.1287L26.8308 46.4628L27.2637 46.3629L28.3291 46.1631L26.9307 45.0643L26.5977 44.7979C26.631 44.7979 26.631 44.7979 26.6643 44.7646C26.8308 44.698 26.964 44.6647 27.1305 44.6314C27.53 44.5315 27.9296 44.465 28.2958 44.465C28.9618 44.465 29.5611 44.5981 30.0605 44.7646C30.793 45.031 31.2592 45.364 31.2592 45.364L31.2259 45.4972L30.7597 46.9289L31.2259 47.2952C30.1937 47.3951 29.0616 47.4617 27.9296 47.4617L27.9629 47.4284Z" fill="#B48946"/>
<path d="M18.8731 6.73935C21.5701 3.14324 0.526964 -9.57632 0.127411 14.6641C5.18842 7.67167 13.912 13.3322 18.8731 6.73935Z" fill="#FFD686"/>
<path d="M18.8733 6.73907C19.3728 6.07313 17.6746 1.34491 9.71687 4.60805C4.28959 6.83897 0.593718 11.0344 0.294052 14.4307C5.38836 7.77129 13.9788 13.2653 18.8733 6.70578V6.73907Z" fill="#F8C976"/>
<path d="M21.3374 7.00543C20.9046 6.00652 19.6393 5.57366 18.4739 6.07311C17.3086 6.57257 16.7093 7.77127 17.1421 8.77019C17.575 9.7691 18.8402 10.202 20.0056 9.70251C21.1709 9.20305 21.7703 8.00435 21.3374 7.00543Z" fill="#B83E4E"/>
<path d="M13.3458 26.5179L17.8741 32.6779L15.2104 35.3417L13.2793 34.2429L15.1771 32.4448L13.3458 26.5179Z" fill="#B83E4E"/>
<path d="M11.3486 25.1526L11.615 34.6091L15.2109 35.3416L11.3486 25.1526Z" fill="#E35965"/>
<path d="M12.0475 27.6829L10.3161 35.1415L6.55365 34.8418L6.1541 32.6442L8.7845 32.9106L12.0475 27.6829Z" fill="#B83E4E"/>
<path d="M11.7816 25.2858L4.78943 31.6123L6.55412 34.8421L11.7816 25.2858Z" fill="#E35965"/>
<path d="M15.1112 35.9077C10.1834 31.3793 4.95589 16.0293 18.1745 8.40421C31.393 0.779141 57.2974 15.7296 43.7126 32.7112C30.1278 49.6928 15.1112 35.9077 15.1112 35.9077Z" fill="#FFD686"/>
<path d="M26.1315 42.5336C32.7574 44.3316 43.1458 41.1351 45.077 31.1792C47.0081 21.2233 44.2446 15.3297 33.3567 13.7647C22.4689 12.1997 14.3779 16.1621 13.1793 24.0203C11.9806 31.8784 16.0094 39.8032 26.1315 42.5336Z" fill="#F8BE84"/>
<path fill-rule="evenodd" clip-rule="evenodd" d="M29.8942 43.0001C28.5623 43.0001 27.2971 42.8336 26.165 42.5339C17.2083 40.1365 13.013 33.6436 13.013 26.7177C13.013 33.6436 17.2083 40.1365 26.165 42.5339C27.3304 42.8336 28.5956 43.0001 29.8942 43.0001C36.1538 43.0001 43.5123 39.404 45.1105 31.1796C45.4767 29.2816 45.6765 27.5169 45.6765 25.8853C45.6765 27.4836 45.4767 29.2483 45.1105 31.1796C43.5123 39.404 36.1538 43.0001 29.8942 43.0001Z" fill="url(#paint0_linear)"/>
<path d="M45.4433 26.4845L14.2781 23.854L14.5445 32.3781L45.743 35.0086L45.4433 26.4845Z" fill="#E35965"/>
<path d="M42.8795 30.1805C42.8795 31.7788 42.5798 33.3104 42.047 34.7089L45.7429 35.0086L45.4766 26.4845L42.2801 26.2181C42.6797 27.4834 42.9127 28.8153 42.9127 30.1805H42.8795Z" fill="#D04D5D"/>
<path d="M17.6743 28.9152C17.6743 27.2503 18.0073 25.652 18.6066 24.2203L14.2781 23.854L14.5445 32.3781L18.2403 32.6778C17.8741 31.4791 17.6743 30.2138 17.6743 28.9152Z" fill="#D04D5D"/>
<path d="M39.484 33.7763C40.383 32.7774 40.4496 26.917 37.2864 26.6507C33.3242 26.351 31.8592 30.9793 32.5251 33.2102L39.484 33.7763Z" fill="#AB3A4A"/>
<path d="M28.0294 32.7777C28.7619 31.7455 28.6953 26.3847 24.733 25.5855C20.8707 24.7864 20.1382 29.9808 21.137 32.2117L27.9961 32.7444L28.0294 32.7777Z" fill="#AB3A4A"/>
<path d="M18.2403 44.032C16.1426 38.205 11.8474 24.6197 22.4023 13.8314L19.4723 11.2342C13.8452 16.4619 6.42016 23.1546 18.2403 44.032Z" fill="#FFD686"/>
<path d="M40.5487 44.6981C43.1125 39.0043 48.4066 25.6521 38.3178 14.331L41.481 11.9003C46.9082 17.4276 54.1002 24.4867 40.5487 44.6981Z" fill="#FFD686"/>
<path d="M21.2373 32.2116C20.5381 31.1461 21.3039 25.7519 24.2339 25.9517C27.164 26.1848 28.9287 30.7465 27.9964 32.7443L21.204 32.2116H21.2373Z" fill="#FEEDDF"/>
<path d="M39.0841 33.7433C39.9165 32.7777 40.0164 27.3169 37.1529 27.1171C34.2894 26.9174 31.8921 31.1461 32.4915 33.2438L39.1174 33.71L39.0841 33.7433Z" fill="#FEEDDF"/>
<path d="M26.5977 35.7076L33.8563 36.0406C33.8563 36.0406 29.2947 43.7655 26.5977 35.7076Z" fill="#564132"/>
<path d="M27.2308 35.9743L27.8967 37.5393L31.5593 37.8723L33.1575 36.1408L27.2308 35.9743Z" fill="#FEEBDD"/>
<path d="M31.6257 17.9272L16.6091 17.6941L17.608 16.7284L31.7589 16.0625L31.6257 17.9272Z" fill="#A36F59"/>
<path d="M33.4566 18.0933L45.1103 19.5917L44.6109 18.5595L33.5565 16.2287L33.4566 18.0933Z" fill="#A36F59"/>
<path d="M30.9935 17.0946L32.625 20.9904L34.6228 17.5941L32.9913 14.3975L30.9935 17.0946Z" fill="#E35965"/>
<path d="M31.5595 16.8281L32.4585 18.7594L33.2576 17.0612L32.8581 15.0301L31.5595 16.8281Z" fill="#F490A1"/>
<path d="M37.1525 31.4792C37.2857 30.5136 36.8195 29.6478 36.087 29.548C35.3878 29.4481 34.6886 30.1473 34.5554 31.1129C34.4222 32.0785 34.8884 32.9443 35.6209 33.0442C36.3201 33.1441 37.0193 32.4448 37.1525 31.4792Z" fill="#5C3C32"/>
<path d="M26.3979 30.38C26.3646 29.4144 25.732 28.6486 25.0327 28.6819C24.3002 28.7152 23.7675 29.5143 23.8008 30.5132C23.8341 31.4788 24.4667 32.2447 25.1659 32.2114C25.8984 32.1781 26.4312 31.3789 26.3979 30.38Z" fill="#5C3C32"/>
<path d="M25.9324 29.9806C25.9324 29.6143 25.6993 29.3479 25.433 29.3479C25.1666 29.3479 24.9668 29.6476 24.9668 30.0139C24.9668 30.3801 25.1999 30.6465 25.4663 30.6465C25.7326 30.6465 25.9324 30.3468 25.9324 29.9806Z" fill="#B8725E"/>
<path d="M36.8203 30.8799C36.8203 30.5136 36.5872 30.2472 36.3209 30.2472C36.0545 30.2472 35.8547 30.5469 35.8547 30.9132C35.8547 31.2794 36.0878 31.5458 36.3541 31.5458C36.6205 31.5458 36.8203 31.2461 36.8203 30.8799Z" fill="#B8725E"/>
<path d="M35.588 24.1537C35.588 24.1537 39.0175 25.3524 39.4837 25.2192L39.7833 24.8863C39.7833 24.8863 36.0875 23.3546 35.5214 22.7885L35.588 24.1537Z" fill="#FFD686"/>
<path d="M26.1648 23.421C26.1648 23.421 22.6021 23.7873 22.2025 23.5875L22.0028 23.188C22.0028 23.188 25.8984 22.522 26.5643 22.1225L26.1648 23.421Z" fill="#FFD686"/>
<path d="M31.4258 34.1093C31.4258 33.6765 30.8265 33.3435 30.0939 33.3435C29.3614 33.3435 28.7621 33.6765 28.7621 34.1093C28.7621 34.5422 29.3614 34.8752 30.0939 34.8752C30.8265 34.8752 31.4258 34.5422 31.4258 34.1093Z" fill="#EAA06E"/>
<path d="M31.7591 33.8101C31.7591 33.3772 31.1597 33.0442 30.4272 33.0442C29.6947 33.0442 29.0954 33.3772 29.0954 33.8101C29.0954 34.2429 29.6947 34.5759 30.4272 34.5759C31.1597 34.5759 31.7591 34.2429 31.7591 33.8101Z" fill="#F8BE84"/>
<path d="M27.031 35.8076C27.031 35.6411 26.8645 35.5079 26.6315 35.5079C26.4317 35.5079 26.2319 35.6411 26.2319 35.8076C26.2319 35.9741 26.3984 36.1073 26.6315 36.1073C26.8312 36.1073 27.031 35.9741 27.031 35.8076Z" fill="#564132"/>
<path d="M34.2558 36.2075C34.2558 36.041 34.0893 35.9078 33.8562 35.9078C33.6564 35.9078 33.4566 36.041 33.4566 36.2075C33.4566 36.374 33.6231 36.5071 33.8562 36.5071C34.056 36.5071 34.2558 36.374 34.2558 36.2075Z" fill="#564132"/>
<path d="M11.0488 23.0549C11.2819 18.1269 13.0466 9.33643 22.7691 8.03784C22.7691 8.03784 15.6104 10.7349 11.0488 23.0549Z" fill="#FCEBB1"/>
<path d="M13.2793 22.0893C13.4457 18.2601 14.8442 11.4009 22.4024 10.4019C22.4024 10.4019 16.8419 12.4997 13.2793 22.0893Z" fill="#FCEBB1"/>
<path d="M18.2076 59.8152C18.2742 59.5821 18.1743 59.3157 18.0078 59.2824C17.8413 59.2491 17.6416 59.4156 17.575 59.6487C17.5084 59.8817 17.6083 60.1481 17.7748 60.1814C17.9412 60.2147 18.141 60.0482 18.2076 59.8152Z" fill="#E8B34E"/>
<path d="M17.7746 60.2477C18.0077 60.1145 18.1076 59.9148 18.041 59.7483C17.9744 59.5818 17.708 59.5818 17.4749 59.6817C17.2419 59.8149 17.142 60.0146 17.2086 60.1811C17.2752 60.3476 17.5415 60.3476 17.7746 60.2477Z" fill="#FFCE64"/>
<path d="M16.7757 58.0502C17.2086 58.1834 18.4405 58.8827 18.0743 59.3488C17.6081 59.9149 16.4761 57.9504 16.7757 58.0502Z" fill="#E8B34E"/>
<path d="M16.4099 57.9173C16.876 57.9839 18.2079 58.4833 17.8749 59.0161C17.4754 59.6487 16.1102 57.8507 16.4099 57.9173Z" fill="#FFCE64"/>
<path d="M17.0418 57.8503L15.5767 57.7504L15.7432 58.5828L17.0085 58.0833L17.0418 57.8503Z" fill="#E35965"/>
<path d="M46.6419 51.0245C46.6419 51.0245 48.4732 52.5895 48.9394 51.9236C49.3722 51.2909 49.4388 48.8935 46.9416 50.0589C46.6086 50.1921 46.6419 50.9912 46.6419 50.9912V51.0245Z" fill="#FFCE64"/>
<path d="M47.1419 50.7914C47.1419 50.7914 45.011 52.9224 45.2773 53.7549C45.2773 53.7549 42.88 51.2576 43.4128 49.2598L46.9754 50.1588L47.1419 50.7914Z" fill="#FFCE64"/>
<path d="M48.6071 52.2566C48.374 52.3898 48.1409 52.3565 48.0743 52.19C48.0077 52.0235 48.1742 51.7905 48.4073 51.6573C48.6403 51.5241 48.8734 51.5574 48.94 51.7239C49.0066 51.8904 48.8734 52.1234 48.6071 52.2566Z" fill="#E8B34E"/>
<path d="M49.0059 51.6904C48.906 51.9568 48.7062 52.1233 48.5397 52.0567C48.3733 51.9901 48.34 51.757 48.4399 51.4906C48.5397 51.2243 48.7395 51.0578 48.906 51.1244C49.0725 51.191 49.1058 51.424 49.0059 51.6904Z" fill="#FFCE64"/>
<path d="M46.7421 51.1576C46.9086 51.5904 47.7077 52.7225 48.1406 52.2231C48.6733 51.5904 46.6422 50.8579 46.7421 51.1576Z" fill="#E8B34E"/>
<path d="M46.6092 50.7913C46.7091 51.2575 47.3085 52.5228 47.8079 52.0566C48.4072 51.5239 46.5094 50.4583 46.6092 50.7913Z" fill="#FFCE64"/>
<path d="M46.6089 51.4573L46.3758 49.9589H47.2082L46.8086 51.3907L46.6089 51.4573Z" fill="#E35965"/>
<path d="M46.4758 51.2578C44.3115 51.957 33.457 53.0558 29.0619 46.463L31.1928 45.797C31.5258 45.6971 31.892 45.797 32.1251 46.0967C33.1573 47.5285 36.7866 51.3244 46.4092 50.7583L46.509 51.2578H46.4758Z" fill="#E35965"/>
<path d="M46.376 50.7916C45.0774 50.8582 43.8787 50.8582 42.78 50.7916V51.2578C41.0486 51.4909 33.9898 50.8915 29.3616 46.9292C33.8899 53.0225 44.3449 51.957 46.4426 51.2578L46.3427 50.7583L46.376 50.7916Z" fill="#CA4659"/>
<path d="M27.1637 46.2297H30.1271V39.2373H27.1637V46.2297Z" fill="#F8BE84"/>
<path d="M34.1894 60.6139C34.1894 60.6139 34.8887 51.3906 32.4913 46.7623C31.4259 44.6978 28.3959 44.3981 27.0308 44.6978C22.669 45.6634 24.2672 59.5817 24.8665 62.6783C25.1662 64.1767 27.1972 67.7062 22.902 72.2347L23.5347 73.167C23.5347 73.167 27.2305 70.2368 27.3304 67.0403C27.397 63.877 29.7278 63.0446 31.3593 62.6783C32.9575 62.3121 36.953 64.1767 39.3504 68.1391L40.4158 67.573C40.4158 67.573 37.6855 62.6117 34.2227 60.6139H34.1894Z" fill="#E35965"/>
<path d="M34.8222 60.6474L24.6335 61.4799L24.8 62.3456L34.8222 61.3134V60.6474Z" fill="#CA4659"/>
<path d="M24.2339 57.6175C24.3338 57.6841 25.9653 49.3265 25.6656 45.6305C23.9342 47.8614 23.8676 53.3555 24.2339 57.6175Z" fill="#CA4659"/>
<path d="M33.7901 59.7815C33.9232 59.8481 34.0564 59.948 34.2229 60.0479C34.2895 58.4829 34.4227 54.0544 33.6569 50.2918C33.557 49.7591 33.8234 59.8148 33.8234 59.8148L33.7901 59.7815Z" fill="#CA4659"/>
<path d="M39.8831 66.774L38.9175 67.2735C36.5535 63.3111 32.8243 61.846 31.1928 62.2123C29.5946 62.5786 26.9975 63.0114 26.8976 66.1747C26.831 69.3379 23.1351 72.3014 23.1351 72.3014L23.0019 72.1016L22.902 72.2015L23.5347 73.1338C23.5347 73.1338 27.2305 70.2036 27.3304 67.0071C27.397 64.31 29.3948 62.9115 31.7921 62.9115C34.2227 62.9115 37.0529 64.3433 39.317 68.1059L40.3825 67.5398C40.3825 67.5398 40.216 67.2402 39.9164 66.7407L39.8831 66.774Z" fill="#CA4659"/>
<path d="M23.7011 68.5055C23.7011 68.5055 26.1983 67.107 28.2294 67.44C30.2604 67.7729 20.9375 75.7976 20.9375 75.7976L22.3359 76.8631L18.74 76.963L23.7344 68.4722L23.7011 68.5055Z" fill="#FFCE64"/>
<path d="M28.2293 67.4402C27.6633 67.3403 27.064 67.4069 26.4979 67.5068C25.3992 70.4036 23.2349 73.2339 19.306 76.9965L22.3359 76.8966L20.9375 75.8311C20.9375 75.8311 30.2937 67.7731 28.2293 67.4735V67.4402Z" fill="#E8B34E"/>
<path d="M36.8861 65.9082C36.8861 65.9082 37.1858 64.5763 39.8495 65.3755C42.3134 66.1413 43.6119 75.631 43.6119 75.631L46.8417 76.7298L42.4133 76.8297L36.8861 65.8749V65.9082Z" fill="#FFCE64"/>
<path d="M43.3456 76.8297L46.8417 76.7631L43.612 75.6643C43.612 75.6643 42.3134 66.1413 39.8495 65.4088C39.7496 65.3755 39.683 65.3755 39.6165 65.3422C41.2813 69.0049 42.8462 73.9329 43.3456 76.863V76.8297Z" fill="#E8B34E"/>
<path d="M16.0764 58.0837C15.8434 56.4188 17.2751 46.363 26.8977 44.6982L27.497 47.0956C27.497 47.0956 18.8733 48.3941 16.5426 58.1503L16.0432 58.0837H16.0764Z" fill="#E35965"/>
<path d="M16.8761 54.9871C16.4765 56.5187 16.0104 57.5842 16.077 58.0837L16.5764 58.1503C18.2745 50.9581 23.4354 48.3609 26.0325 47.4952C23.4687 48.1278 19.6396 50.0591 16.9094 54.9871H16.8761Z" fill="#CA4659"/>
<path d="M34.7888 59.3823L24.3338 60.7142L24.6334 61.813L34.922 60.9473L34.7888 59.3823Z" fill="#FFCE64"/>
<path d="M16.6424 57.917C16.6424 57.917 18.4737 59.6152 17.9743 60.1146C17.4748 60.6141 15.2107 60.8805 15.81 58.2833C15.8766 57.9503 16.6424 57.917 16.6424 57.917Z" fill="#FFCE64"/>
<path d="M16.5089 58.4834C16.5089 58.4834 18.1072 56.1525 18.9396 56.3523C18.9396 56.3523 16.0761 54.1547 14.2781 54.8539L15.8763 58.3502L16.5089 58.4501V58.4834Z" fill="#FFCE64"/>
<path d="M26.6313 44.7647L28.3627 46.1632L26.8644 46.4628L30.7267 51.8237L31.7256 47.595L30.7933 46.8957L31.326 45.3307C31.326 45.3307 29.1285 43.7658 26.6313 44.7647Z" fill="#FFCE64"/>
<path d="M27.8303 49.4262L29.8281 48.3274L32.2254 49.7925L30.7603 53.9547L27.8303 49.4262Z" fill="#FFCE64"/>
<path d="M32.3254 59.1491L28.9958 59.5154L29.2955 62.0127L32.6251 61.6131L32.3254 59.1491Z" fill="#FFCE64"/>
<path d="M31.4927 59.8482L30.0942 60.0147L30.2274 61.0469L31.6259 60.8804L31.4927 59.8482Z" fill="#E35965"/>
<path d="M27.5634 47.4284C27.1306 47.4284 26.731 47.3951 26.3315 47.3951C26.7976 47.2619 27.1639 47.162 27.3637 47.1287L27.5967 47.4284H27.5634ZM27.2971 46.3628L26.9641 45.031L28.3625 46.1298L27.2971 46.3296V46.3628Z" fill="#A14147"/>
<path d="M26.3317 47.3617C24.6335 47.2618 23.0686 47.062 21.7701 46.7623C23.1019 45.83 24.7334 45.0975 26.6979 44.7312C26.6646 44.7312 26.6646 44.7312 26.6313 44.7645L26.9643 45.0309L27.2972 46.3628L26.8644 46.4627L27.3638 47.1286C27.1641 47.1619 26.7978 47.2618 26.3317 47.395V47.3617Z" fill="#A14147"/>
<path d="M32.8913 47.0287C32.5583 46.6625 32.292 46.3628 32.1255 46.0964C32.292 46.3295 32.5583 46.6625 32.9246 47.0287H32.8913Z" fill="#B3A6A1"/>
<path d="M32.6246 47.0622C32.558 46.9623 32.5247 46.8291 32.4581 46.7292C32.2916 46.3962 32.0586 46.0965 31.7922 45.8302C31.8921 45.8968 32.0253 45.9634 32.0919 46.0632C32.2584 46.2963 32.5247 46.6293 32.8577 46.9956C32.7578 46.9956 32.6912 47.0289 32.5913 47.0289L32.6246 47.0622Z" fill="#A14147"/>
<path d="M31.2595 47.2619L30.7933 46.8956L31.2595 45.4638C31.426 45.597 31.5924 45.6969 31.7589 45.8634C31.7589 45.8634 31.7589 45.8634 31.7922 45.8634C32.0586 46.1298 32.2917 46.3962 32.4581 46.7624C32.5247 46.8623 32.558 46.9622 32.6246 47.0954C32.1918 47.162 31.7256 47.2286 31.2595 47.2619Z" fill="#A14147"/>
<path d="M30.1273 44.7315C29.6279 44.565 29.0286 44.4318 28.3626 44.4318C27.9964 44.4318 27.5968 44.4651 27.1973 44.5983V42.7669C28.063 42.9334 28.962 43 29.8943 43C29.9609 43 30.0607 43 30.1273 43V44.7648V44.7315Z" fill="#B07E59"/>
<path d="M27.9629 47.4284C27.8297 47.4284 27.6965 47.4284 27.5633 47.4284L27.3302 47.1287L26.8308 46.4628L27.2636 46.3629L28.3291 46.1631L26.9307 45.0643L26.5977 44.7979C26.631 44.7979 26.631 44.7979 26.6643 44.7646C26.8308 44.698 26.964 44.6647 27.1305 44.6314C27.53 44.5315 27.9296 44.465 28.2958 44.465C28.9617 44.465 29.5611 44.5981 30.0605 44.7646C30.793 45.031 31.2592 45.364 31.2592 45.364L31.2259 45.4972L30.7597 46.9289L31.2259 47.2952C30.1937 47.3951 29.0616 47.4617 27.9296 47.4617L27.9629 47.4284Z" fill="#B48946"/>
<path d="M18.8731 6.73935C21.5701 3.14324 0.526964 -9.57632 0.127411 14.6641C5.18842 7.67167 13.912 13.3322 18.8731 6.73935Z" fill="#FFD686"/>
<path d="M18.8733 6.73907C19.3728 6.07313 17.6747 1.34491 9.71688 4.60805C4.28961 6.83897 0.593733 11.0344 0.294067 14.4307C5.38838 7.77129 13.9788 13.2653 18.8733 6.70578V6.73907Z" fill="#F8C976"/>
<path d="M21.3374 7.00543C20.9046 6.00652 19.6393 5.57366 18.474 6.07311C17.3086 6.57257 16.7093 7.77127 17.1421 8.77019C17.575 9.7691 18.8402 10.202 20.0056 9.70251C21.171 9.20305 21.7703 8.00435 21.3374 7.00543Z" fill="#B83E4E"/>
<path d="M13.3458 26.5179L17.8741 32.6779L15.2104 35.3417L13.2792 34.2429L15.1771 32.4448L13.3458 26.5179Z" fill="#B83E4E"/>
<path d="M11.3486 25.1526L11.6149 34.6091L15.2109 35.3416L11.3486 25.1526Z" fill="#E35965"/>
<path d="M12.0475 27.6829L10.3161 35.1415L6.55367 34.8418L6.15411 32.6442L8.78452 32.9106L12.0475 27.6829Z" fill="#B83E4E"/>
<path d="M11.7816 25.2858L4.78943 31.6123L6.55412 34.8421L11.7816 25.2858Z" fill="#E35965"/>
<path d="M15.1112 35.9077C10.1834 31.3793 4.95589 16.0293 18.1745 8.40421C31.393 0.779141 57.2974 15.7296 43.7126 32.7112C30.1278 49.6928 15.1112 35.9077 15.1112 35.9077Z" fill="#FFD686"/>
<path d="M26.1315 42.5336C32.7574 44.3316 43.1458 41.1351 45.077 31.1792C47.0082 21.2233 44.2446 15.3297 33.3567 13.7647C22.4689 12.1997 14.3779 16.1621 13.1793 24.0203C11.9806 31.8784 16.0094 39.8032 26.1315 42.5336Z" fill="#F8BE84"/>
<path fill-rule="evenodd" clip-rule="evenodd" d="M29.8941 43.0001C28.5623 43.0001 27.297 42.8336 26.165 42.5339C17.2083 40.1365 13.013 33.6436 13.013 26.7177C13.013 33.6436 17.2083 40.1365 26.165 42.5339C27.3303 42.8336 28.5956 43.0001 29.8941 43.0001C36.1538 43.0001 43.5123 39.404 45.1105 31.1796C45.4767 29.2816 45.6765 27.5169 45.6765 25.8853C45.6765 27.4836 45.4767 29.2483 45.1105 31.1796C43.5123 39.404 36.1538 43.0001 29.8941 43.0001Z" fill="url(#paint1_linear)"/>
<path d="M45.4433 26.4845L14.2781 23.854L14.5445 32.3781L45.743 35.0086L45.4433 26.4845Z" fill="#E35965"/>
<path d="M42.8795 30.1805C42.8795 31.7788 42.5798 33.3104 42.0471 34.7089L45.743 35.0086L45.4766 26.4845L42.2801 26.2181C42.6797 27.4834 42.9128 28.8153 42.9128 30.1805H42.8795Z" fill="#D04D5D"/>
<path d="M17.6743 28.9152C17.6743 27.2503 18.0073 25.652 18.6066 24.2203L14.2781 23.854L14.5445 32.3781L18.2403 32.6778C17.8741 31.4791 17.6743 30.2138 17.6743 28.9152Z" fill="#D04D5D"/>
<path d="M39.484 33.7763C40.383 32.7774 40.4496 26.917 37.2864 26.6507C33.3242 26.351 31.8591 30.9793 32.5251 33.2102L39.484 33.7763Z" fill="#AB3A4A"/>
<path d="M28.0294 32.7777C28.7619 31.7455 28.6953 26.3847 24.733 25.5855C20.8707 24.7864 20.1382 29.9808 21.137 32.2117L27.9961 32.7444L28.0294 32.7777Z" fill="#AB3A4A"/>
<path d="M18.2403 44.032C16.1426 38.205 11.8474 24.6197 22.4023 13.8314L19.4722 11.2342C13.8452 16.4619 6.42015 23.1546 18.2403 44.032Z" fill="#FFD686"/>
<path d="M40.5487 44.6981C43.1125 39.0043 48.4066 25.6521 38.3178 14.331L41.481 11.9003C46.9082 17.4276 54.1002 24.4867 40.5487 44.6981Z" fill="#FFD686"/>
<path d="M21.2373 32.2116C20.5381 31.1461 21.3039 25.7519 24.234 25.9517C27.164 26.1848 28.9287 30.7465 27.9964 32.7443L21.204 32.2116H21.2373Z" fill="#FEEDDF"/>
<path d="M39.0841 33.7433C39.9165 32.7777 40.0164 27.3169 37.1529 27.1171C34.2895 26.9174 31.8921 31.1461 32.4915 33.2438L39.1174 33.71L39.0841 33.7433Z" fill="#FEEDDF"/>
<path d="M26.5977 35.7076L33.8563 36.0406C33.8563 36.0406 29.2947 43.7655 26.5977 35.7076Z" fill="#564132"/>
<path d="M27.2308 35.9743L27.8967 37.5393L31.5593 37.8723L33.1575 36.1408L27.2308 35.9743Z" fill="#FEEBDD"/>
<path d="M31.6257 17.9272L16.6091 17.6941L17.608 16.7284L31.7589 16.0625L31.6257 17.9272Z" fill="#A36F59"/>
<path d="M33.4567 18.0933L45.1103 19.5917L44.6109 18.5595L33.5566 16.2287L33.4567 18.0933Z" fill="#A36F59"/>
<path d="M30.9935 17.0946L32.625 20.9904L34.6228 17.5941L32.9913 14.3975L30.9935 17.0946Z" fill="#E35965"/>
<path d="M31.5595 16.8281L32.4585 18.7594L33.2576 17.0612L32.8581 15.0301L31.5595 16.8281Z" fill="#F490A1"/>
<path d="M37.1525 31.4792C37.2857 30.5136 36.8195 29.6478 36.087 29.548C35.3878 29.4481 34.6886 30.1473 34.5554 31.1129C34.4222 32.0785 34.8884 32.9443 35.6209 33.0442C36.3201 33.1441 37.0193 32.4448 37.1525 31.4792Z" fill="#5C3C32"/>
<path d="M26.3979 30.38C26.3646 29.4144 25.732 28.6486 25.0328 28.6819C24.3002 28.7152 23.7675 29.5143 23.8008 30.5132C23.8341 31.4788 24.4667 32.2447 25.1659 32.2114C25.8984 32.1781 26.4312 31.3789 26.3979 30.38Z" fill="#5C3C32"/>
<path d="M25.9324 29.9806C25.9324 29.6143 25.6993 29.3479 25.433 29.3479C25.1666 29.3479 24.9668 29.6476 24.9668 30.0139C24.9668 30.3801 25.1999 30.6465 25.4662 30.6465C25.7326 30.6465 25.9324 30.3468 25.9324 29.9806Z" fill="#B8725E"/>
<path d="M36.8203 30.8799C36.8203 30.5136 36.5872 30.2472 36.3209 30.2472C36.0545 30.2472 35.8547 30.5469 35.8547 30.9132C35.8547 31.2794 36.0878 31.5458 36.3541 31.5458C36.6205 31.5458 36.8203 31.2461 36.8203 30.8799Z" fill="#B8725E"/>
<path d="M35.588 24.1537C35.588 24.1537 39.0175 25.3524 39.4837 25.2192L39.7833 24.8863C39.7833 24.8863 36.0875 23.3546 35.5214 22.7885L35.588 24.1537Z" fill="#FFD686"/>
<path d="M26.1648 23.421C26.1648 23.421 22.6021 23.7873 22.2025 23.5875L22.0027 23.188C22.0027 23.188 25.8984 22.522 26.5643 22.1225L26.1648 23.421Z" fill="#FFD686"/>
<path d="M31.4258 34.1093C31.4258 33.6765 30.8264 33.3435 30.0939 33.3435C29.3614 33.3435 28.7621 33.6765 28.7621 34.1093C28.7621 34.5422 29.3614 34.8752 30.0939 34.8752C30.8264 34.8752 31.4258 34.5422 31.4258 34.1093Z" fill="#EAA06E"/>
<path d="M31.7591 33.8101C31.7591 33.3772 31.1598 33.0442 30.4272 33.0442C29.6947 33.0442 29.0954 33.3772 29.0954 33.8101C29.0954 34.2429 29.6947 34.5759 30.4272 34.5759C31.1598 34.5759 31.7591 34.2429 31.7591 33.8101Z" fill="#F8BE84"/>
<path d="M27.031 35.8076C27.031 35.6411 26.8646 35.5079 26.6315 35.5079C26.4317 35.5079 26.2319 35.6411 26.2319 35.8076C26.2319 35.9741 26.3984 36.1073 26.6315 36.1073C26.8313 36.1073 27.031 35.9741 27.031 35.8076Z" fill="#564132"/>
<path d="M34.2558 36.2075C34.2558 36.041 34.0893 35.9078 33.8562 35.9078C33.6564 35.9078 33.4567 36.041 33.4567 36.2075C33.4567 36.374 33.6231 36.5071 33.8562 36.5071C34.056 36.5071 34.2558 36.374 34.2558 36.2075Z" fill="#564132"/>
<path d="M11.0488 23.0549C11.2819 18.1269 13.0466 9.33643 22.7691 8.03784C22.7691 8.03784 15.6104 10.7349 11.0488 23.0549Z" fill="#FCEBB1"/>
<path d="M13.2792 22.0893C13.4457 18.2601 14.8442 11.4009 22.4024 10.4019C22.4024 10.4019 16.8419 12.4997 13.2792 22.0893Z" fill="#FCEBB1"/>
<path d="M18.2076 59.8152C18.2742 59.5821 18.1743 59.3157 18.0078 59.2824C17.8414 59.2491 17.6416 59.4156 17.575 59.6487C17.5084 59.8817 17.6083 60.1481 17.7748 60.1814C17.9412 60.2147 18.141 60.0482 18.2076 59.8152Z" fill="#E8B34E"/>
<path d="M17.7746 60.2477C18.0077 60.1145 18.1075 59.9148 18.041 59.7483C17.9744 59.5818 17.708 59.5818 17.4749 59.6817C17.2418 59.8149 17.142 60.0146 17.2085 60.1811C17.2751 60.3476 17.5415 60.3476 17.7746 60.2477Z" fill="#FFCE64"/>
<path d="M16.7757 58.0502C17.2086 58.1834 18.4405 58.8827 18.0743 59.3488C17.6081 59.9149 16.4761 57.9504 16.7757 58.0502Z" fill="#E8B34E"/>
<path d="M16.4099 57.9173C16.876 57.9839 18.2079 58.4833 17.8749 59.0161C17.4754 59.6487 16.1102 57.8507 16.4099 57.9173Z" fill="#FFCE64"/>
<path d="M17.0418 57.8503L15.5767 57.7504L15.7432 58.5828L17.0085 58.0833L17.0418 57.8503Z" fill="#E35965"/>
<path d="M46.6419 51.0245C46.6419 51.0245 48.4732 52.5895 48.9393 51.9236C49.3722 51.2909 49.4388 48.8935 46.9416 50.0589C46.6086 50.1921 46.6419 50.9912 46.6419 50.9912V51.0245Z" fill="#FFCE64"/>
<path d="M47.1419 50.7914C47.1419 50.7914 45.011 52.9224 45.2773 53.7549C45.2773 53.7549 42.88 51.2576 43.4128 49.2598L46.9754 50.1588L47.1419 50.7914Z" fill="#FFCE64"/>
<path d="M48.6071 52.2566C48.374 52.3898 48.1409 52.3565 48.0743 52.19C48.0077 52.0235 48.1742 51.7905 48.4073 51.6573C48.6403 51.5241 48.8734 51.5574 48.94 51.7239C49.0066 51.8904 48.8734 52.1234 48.6071 52.2566Z" fill="#E8B34E"/>
<path d="M49.0059 51.6904C48.906 51.9568 48.7062 52.1233 48.5397 52.0567C48.3733 51.9901 48.34 51.757 48.4399 51.4906C48.5397 51.2243 48.7395 51.0578 48.906 51.1244C49.0725 51.191 49.1058 51.424 49.0059 51.6904Z" fill="#FFCE64"/>
<path d="M46.7421 51.1576C46.9086 51.5904 47.7077 52.7225 48.1406 52.2231C48.6733 51.5904 46.6422 50.8579 46.7421 51.1576Z" fill="#E8B34E"/>
<path d="M46.6092 50.7913C46.7091 51.2575 47.3084 52.5228 47.8079 52.0566C48.4072 51.5239 46.5093 50.4583 46.6092 50.7913Z" fill="#FFCE64"/>
<path d="M46.6089 51.4573L46.3758 49.9589H47.2082L46.8086 51.3907L46.6089 51.4573Z" fill="#E35965"/>
<defs>
<linearGradient id="paint0_linear" x1="29.8006" y1="25.7834" x2="28.8539" y2="43.103" gradientUnits="userSpaceOnUse">
<stop stop-color="#E89963"/>
<stop offset="0.988235" stop-color="#E59361"/>
<stop offset="1" stop-color="#E59361"/>
</linearGradient>
<linearGradient id="paint1_linear" x1="29.8006" y1="25.7834" x2="28.8539" y2="43.103" gradientUnits="userSpaceOnUse">
<stop stop-color="#E89963"/>
<stop offset="0.988235" stop-color="#E59361"/>
<stop offset="1" stop-color="#E59361"/>
</linearGradient>
</defs>
</svg>
