<svg width="53" height="86" viewBox="0 0 53 86" fill="none" xmlns="http://www.w3.org/2000/svg">
<path d="M19.5689 37.5616L16.2393 38.0277L16.8719 42.6228L20.2015 42.1566L19.5689 37.5616Z" fill="#EEA475"/>
<path d="M11.878 63.5003C11.878 65.6313 12.111 77.5184 12.8768 85.0436L13.6094 84.9104C13.6094 84.9104 13.5428 71.2919 14.6415 64.7656L11.878 63.5336V63.5003Z" fill="#F8BE84"/>
<path d="M13.7092 78.0512C13.8091 73.6893 14.0755 68.1952 14.6415 64.7323L11.878 63.5003C11.878 65.0653 12.0111 71.9245 12.3774 78.4175C12.8103 78.251 13.2431 78.1178 13.7092 78.0512Z" fill="#EEA475"/>
<path d="M24.2637 64.366C24.7964 66.497 28.9917 80.1489 30.3569 84.8438L31.156 84.9437C31.156 84.9437 28.8252 71.5582 27.227 64.0663L24.2637 64.366Z" fill="#F8BE84"/>
<path d="M29.8241 77.5184C29.025 73.1898 28.0261 67.8622 27.227 64.0663L24.2637 64.366C24.5966 65.7645 26.5611 72.2574 28.2592 77.8181C28.7587 77.6849 29.2914 77.5517 29.8241 77.5184Z" fill="#EEA475"/>
<path d="M8.31508 44.3211C6.55038 45.4199 -3.03891 49.5488 3.95328 57.2738L4.71909 56.175C4.71909 56.175 -1.30751 51.0805 8.64804 46.3856L8.31508 44.3211Z" fill="#F8BE84"/>
<path d="M5.78503 48.0504C6.55084 47.4844 7.48313 46.9516 8.68179 46.3856L8.34883 44.3211C7.7828 44.6541 6.51754 45.2868 5.1857 46.2191C5.41877 46.7518 5.65185 47.3845 5.81833 48.0504H5.78503Z" fill="#EEA475"/>
<path d="M30.0245 67.629L22.1999 69.0608L23.2986 75.9866L30.8236 75.4206L30.0245 67.629Z" fill="#A3734A"/>
<path d="M29.7908 66.2638L21.9662 67.6623L23.065 74.5881L24.1637 73.0564L27.2603 74.2884L28.9917 73.2229L30.5899 74.0553L29.7908 66.2638Z" fill="#78543B"/>
<path d="M17.7712 68.3947L9.84671 68.9608L10.213 75.9865L17.7379 76.2196L17.7712 68.3947Z" fill="#A3734A"/>
<path d="M17.7712 68.3947L9.84671 68.9608L10.1131 74.7878L11.8112 73.8888L14.0753 75.1874L16.0065 73.6557L17.7379 75.3871L17.7712 68.3947Z" fill="#78543B"/>
<path d="M7.51585 61.7352C7.51585 61.7352 9.91317 58.2057 9.74669 57.7062C9.58021 57.2067 3.88658 52.7782 3.88658 52.7782L4.18624 54.3099L3.38713 54.6428C3.78669 55.1756 2.8544 55.3421 2.8544 55.3421C3.32054 56.1079 2.12188 57.4731 1.52255 57.3066C2.38825 58.4387 5.85105 62.3678 7.54915 61.7352H7.51585Z" fill="#FBF9CE"/>
<path d="M7.68283 58.2722C8.34876 58.5053 9.18116 58.3055 9.6806 57.9726C9.7139 57.8727 9.7139 57.7728 9.7139 57.7062C9.54742 57.2067 3.85378 52.7782 3.85378 52.7782L4.15344 54.3099L3.45422 54.5762C4.78607 55.9081 7.01691 58.0059 7.68283 58.2722Z" fill="#E9E0AF"/>
<path d="M8.58152 55.4087C8.18197 55.5419 7.98219 55.775 8.28186 56.6407C8.54822 57.5065 9.11425 58.1058 9.5138 58.0059C9.91335 57.8727 10.0132 57.0736 9.74688 56.2079C9.48051 55.3421 9.01437 55.3088 8.61481 55.4087H8.58152Z" fill="#E9E0AF"/>
<path d="M3.12152 59.1713L5.18587 56.2412L6.28464 54.6429L5.58542 54.0769L4.65313 55.7084L2.48889 58.5054L3.12152 59.1713Z" fill="#859BAD"/>
<path d="M5.18499 56.2412L6.28375 54.6429L5.58454 54.0769L4.65225 55.7084L5.18499 56.2412Z" fill="#677D8E"/>
<path d="M6.91716 60.2372L7.35001 59.4381L5.35224 57.7732L4.61972 58.6722L4.91939 59.9375L5.38553 59.4048L6.91716 60.2372Z" fill="#859BAD"/>
<path d="M8.14874 56.874C8.14874 56.874 8.28193 56.7408 8.14874 56.2413L8.84796 56.9406L8.14874 56.9073V56.874Z" fill="#B6AA76"/>
<path d="M8.81494 74.0552C7.28331 66.297 6.05136 52.8116 7.84935 41.1909C13.8426 42.2231 19.17 42.3896 25.463 41.1909C25.463 41.1909 28.8592 42.8224 30.4241 42.7225C29.7582 65.0317 31.3231 68.5279 32.3553 73.1229L28.393 70.7588L27.0612 73.4559L23.5984 70.7588L22.0335 73.356L19.6362 70.892L18.3043 73.4892L15.7738 71.6245L13.8426 74.0885L11.3121 71.7577L8.78164 74.0885L8.81494 74.0552Z" fill="#F4D58C"/>
<path d="M25.3962 65.4312C22.9323 64.2658 14.8413 63.4334 15.3075 60.2702C15.7736 57.1069 24.1642 53.5774 24.1642 53.5774L25.3962 65.4312Z" fill="#E4C47E"/>
<path d="M20.1689 42.3897C18.5374 44.5873 18.1711 57.5066 15.1745 56.4078C12.1778 55.309 8.61514 41.8569 8.61514 41.8569L20.2022 42.3897H20.1689Z" fill="#E4C47E"/>
<path d="M8.88166 72.1906C7.78289 67.1961 7.44993 64.4324 7.64971 60.6698C10.4799 62.9007 16.34 63.3003 15.7074 66.4302C15.108 69.5602 8.88166 72.1906 8.88166 72.1906Z" fill="#EDCD84"/>
<path d="M25.4629 41.2244C25.4629 41.2244 28.8591 42.8892 30.424 42.756C30.2243 50.2479 30.0245 64.5324 32.4218 73.2563L28.4596 70.8922L27.1277 73.5893C24.6638 61.5357 24.0645 53.7108 25.4629 41.2244Z" fill="#C1A96E"/>
<path d="M29.9579 47.5175C29.9579 45.9193 29.5916 44.5874 29.1588 44.5874C28.6926 44.5874 28.3597 45.886 28.3597 47.5175C28.3597 49.1158 28.7259 50.4477 29.1588 50.4477C29.6249 50.4477 29.9579 49.1491 29.9579 47.5175Z" fill="#6E5F3F"/>
<path d="M29.1582 44.5538C31.1227 45.8857 42.8096 51.6461 34.7853 57.2401L34.0528 56.2745C34.0528 56.2745 41.0117 52.7783 28.8586 46.1188C28.6255 45.2198 28.6921 44.8535 29.1915 44.5538H29.1582Z" fill="#F8BE84"/>
<path d="M35.6844 54.6429C35.1184 55.7417 34.0196 56.2744 34.0196 56.2744L34.7521 57.2401C35.9508 56.4076 36.7166 55.5752 37.1161 54.7428C36.65 54.7428 36.1505 54.7095 35.6511 54.6429H35.6844Z" fill="#EEA475"/>
<path d="M33.2874 47.2179C31.556 45.9526 29.8912 44.9204 29.2253 44.4543C28.7591 44.5874 28.3596 45.3866 28.4594 45.9526C30.0577 46.8184 31.6559 47.784 32.6548 48.5498C32.8213 48.0504 33.021 47.6175 33.2541 47.2179H33.2874Z" fill="#EEA475"/>
<path d="M28.8926 60.1041C28.8926 60.1041 32.2888 62.6679 32.7882 62.5348C33.2877 62.4016 38.0157 56.9408 38.0157 56.9408L36.4841 57.1739L36.2178 56.3415C35.685 56.7077 35.5518 55.7754 35.5518 55.7754C34.7527 56.2083 33.4542 54.943 33.6539 54.3436C32.4886 55.1428 28.3599 58.4059 28.8926 60.1041Z" fill="#FBF9CE"/>
<path d="M14.2748 61.7687L14.2415 51.946L17.9041 51.9793L16.7054 62.1016L14.2748 61.7687Z" fill="#4A4041"/>
<path d="M18.0046 48.7493C18.2043 47.6505 17.5384 46.6183 16.5395 46.4518C15.5406 46.252 14.5417 47.0179 14.342 48.0834C14.1422 49.1822 14.8081 50.2144 15.807 50.4142C16.8059 50.614 17.8048 49.8481 18.0046 48.7493Z" fill="#4A4041"/>
<path d="M17.4055 52.5786C17.4388 52.4121 17.4055 52.3788 17.3389 52.3788C17.1391 52.3455 16.8062 52.4121 16.5731 52.4454L14.1425 52.0125C14.0426 54.2434 14.0426 62.8341 14.2424 64.0994C14.7751 63.5667 14.2757 63.0339 15.0748 63.1671C15.4743 63.2337 15.0415 62.7009 15.5076 62.8008C16.3067 62.934 16.9061 63.7664 17.1724 64.0661C16.9061 65.5312 17.5387 66.6633 17.8051 66.7299C17.905 66.7632 17.9716 66.5634 18.0049 66.4635C18.0049 66.4635 16.5398 57.44 17.4055 52.6119V52.5786Z" fill="#4A4041"/>
<path d="M19.1033 48.0501C19.1698 47.7171 18.7037 47.2842 18.404 47.2509C17.9046 47.1511 17.4385 47.7171 16.9723 47.6172C16.8391 47.5839 16.7059 47.5506 16.5728 47.5173C16.4396 47.484 16.2731 47.484 16.1399 47.5839L15.2409 49.8481H15.1743C15.7071 50.0812 15.4074 50.614 16.1732 50.0812C16.2398 50.0479 16.3064 50.0479 16.4063 50.0479C17.2387 50.2144 17.2054 50.8138 17.3053 50.1811C17.3719 49.8148 17.7048 49.948 18.0378 50.0146C18.1377 50.0146 18.2043 50.0479 18.2376 49.8481C18.2709 49.6151 18.0378 49.3154 18.1044 49.0157C18.1377 48.9158 18.2043 48.8825 18.2709 48.9158C18.3374 48.9158 18.4373 48.9824 18.4706 48.9824L18.5372 48.9491V48.9158C18.404 48.4497 17.6049 48.716 18.1377 48.3498C18.5372 48.2166 19.0034 48.4497 19.07 48.0168L19.1033 48.0501Z" fill="#4A4041"/>
<path d="M13.9753 49.5817C14.0419 49.5484 14.0752 49.4818 14.0752 49.4152C14.0419 49.4818 14.0086 49.5151 13.9753 49.5817Z" fill="#4A4041"/>
<path d="M13.842 49.6817C13.276 49.8815 12.377 49.7816 12.2438 50.6807C12.1439 51.2134 12.8764 51.2134 13.6423 49.9481C13.7754 49.8482 13.9086 49.715 14.0085 49.5818C13.9752 49.6151 13.9086 49.6484 13.8753 49.6817H13.842Z" fill="#4A4041"/>
<path d="M13.6422 84.1443L14.1416 85.1099H9.94632L13.6422 84.1443Z" fill="#E47B6A"/>
<path d="M30.7902 83.9111L29.9245 85.1098H34.4528L30.7902 83.9111Z" fill="#E47B6A"/>
<path d="M32.3219 60.4699C32.0556 61.1026 32.2221 61.9683 32.5217 62.4678C32.6216 62.5011 32.7215 62.5344 32.7881 62.5011C33.2875 62.3679 38.0156 56.9071 38.0156 56.9071L36.4839 57.1402L36.2509 56.441C34.8524 57.7063 32.6216 59.804 32.3552 60.4699H32.3219Z" fill="#E9E0AF"/>
<path d="M28.559 19.215C28.792 17.8165 22.6323 15.3525 15.2738 13.8541C8.4148 12.4557 3.05412 12.3891 2.85435 13.6544C2.65457 14.8864 7.71558 17.084 14.508 18.6489C21.7999 20.3138 28.2926 20.6135 28.559 19.215Z" fill="#49534F"/>
<path d="M35.0186 21.8785L34.1862 22.5778L46.2727 33.466L46.6722 32.8L35.0186 21.8785Z" fill="#86A199"/>
<path d="M36.8835 20.5468L36.0844 21.2461L48.1708 32.1343L48.5371 31.435L36.8835 20.5468Z" fill="#86A199"/>
<path d="M10.6124 27.3393C11.4116 27.4725 11.0786 26.5402 10.7456 25.6079C10.446 24.6756 10.1796 23.7432 11.0786 23.8764C11.9443 24.0096 11.7778 22.711 11.6446 21.4124C11.4781 19.9806 11.3117 18.5822 12.477 19.015C13.6424 19.4479 13.8755 18.449 14.3083 17.4167C14.7079 16.4844 15.2406 15.5521 16.7722 15.7519C19.9687 16.1182 23.6645 21.479 20.6679 24.1761C17.6712 26.8732 22.0663 30.8355 19.2029 30.5026C17.8377 30.3361 18.77 31.6014 19.669 32.8667C20.6346 34.2319 21.5003 35.6303 19.2695 35.1642C17.3383 34.7646 17.6379 35.93 18.0708 37.1287C18.6035 38.5605 19.336 40.0256 16.3727 38.5605C13.9088 37.3285 12.477 37.5616 11.3783 37.828C10.0797 38.1276 9.14741 38.394 7.44931 36.3629C5.95098 34.5981 4.11969 34.7646 2.72125 34.9311C1.12303 35.1309 0.15744 35.3307 0.956549 32.6336C2.48817 27.5724 -1.90692 27.7389 1.12303 26.1739C4.15298 24.609 4.58583 25.9075 6.21735 28.4714C7.18294 29.9698 7.18294 29.1041 7.78227 28.2717C8.21512 27.639 8.98093 27.0064 10.6124 27.306V27.3393Z" fill="#FCBA63"/>
<path d="M19.2033 30.536C22.0667 30.869 17.6717 26.9066 20.6683 24.2095C23.6317 21.5457 20.1023 16.3514 16.9391 15.8186C17.039 16.1183 17.1389 16.418 17.2388 16.7509C18.9036 23.1107 14.0757 29.9033 6.45086 31.8679C4.61958 32.334 2.78829 32.5005 1.0236 32.3673C0.9903 32.4672 0.957004 32.5671 0.957004 32.667C0.124601 35.3641 1.12348 35.1643 2.7217 34.9645C4.12014 34.798 5.95142 34.5983 7.44975 36.3963C9.14785 38.4274 10.0801 38.1611 11.3787 37.8614C12.5108 37.595 13.9092 37.3619 16.3731 38.5939C19.3032 40.059 18.5707 38.6272 18.0712 37.1621C17.6384 35.9967 17.3387 34.8313 19.2699 35.1976C21.5007 35.6638 20.635 34.2653 19.6694 32.9001C18.8037 31.6348 17.8381 30.3695 19.2033 30.536Z" fill="#EBA24E"/>
<path d="M31.0227 28.5379C31.8551 27.1727 27.0938 28.4713 27.9928 26.8731C28.8918 25.2748 22.3657 25.6411 23.9307 23.8763C25.4956 22.1116 20.9007 21.5788 22.399 18.7152C23.8974 15.8517 30.1903 14.2867 31.6554 18.0493C33.1204 21.8119 38.3812 19.1148 37.0493 21.6454C36.4167 22.8108 37.8152 22.4778 39.2802 22.1116C40.945 21.6787 42.7097 21.2791 41.4444 23.2437C39.1137 26.9397 47.9705 23.1105 43.5754 27.1395C39.1803 31.1684 43.0427 33.0997 38.3479 34.7312C33.6531 36.3628 36.783 42.6893 32.5877 39.4594C30.5233 37.8612 29.1249 38.0942 28.1926 38.294C27.2603 38.5271 26.7941 38.7269 26.5943 37.0287C26.1948 33.6324 27.5599 33.699 30.5566 33.0664C33.5532 32.4337 28.9917 31.901 31.0227 28.5379Z" fill="#EBA24E"/>
<path d="M10.9786 12.9882C11.7444 15.2191 11.7444 17.0505 10.8121 17.1837C9.87984 17.3502 11.6112 20.9796 9.58017 21.2459C6.41703 21.6455 8.4814 26.8066 6.11737 25.1084C5.05189 24.3426 4.71893 25.1417 4.48585 25.9742C4.21949 26.9398 4.0863 27.9054 2.95423 26.1739C0.923164 22.9774 -0.375387 19.681 0.490314 17.4501C1.35601 15.2191 0.856572 11.9227 1.92205 14.8196C2.45479 16.3512 3.2539 15.7186 4.01971 15.1192C4.71893 14.5532 5.41815 14.0204 5.88429 15.0194C6.38374 16.0849 6.78329 14.9861 7.14955 13.854C7.51581 12.7218 7.88207 11.5897 8.24832 12.7551C8.64788 13.9205 9.14732 13.4211 9.64676 12.9216C10.1129 12.4222 10.6124 11.956 10.9453 12.9882H10.9786Z" fill="#FCBA63"/>
<path d="M10.6459 19.3477C10.6126 18.3155 10.3462 17.2833 10.8457 17.1834C11.778 17.0169 11.778 15.2188 11.0121 12.9879C10.6459 11.9557 10.1797 12.4552 9.7136 12.9213C9.21416 13.4208 8.71471 13.9203 8.31516 12.7548C7.81572 11.2232 7.38287 13.6539 6.85013 14.8526C8.64812 16.018 9.94667 17.6162 10.6459 19.3477Z" fill="#CD813A"/>
<path d="M32.022 33.6659C40.3127 22.9442 34.6191 9.99152 32.2883 8.59304C28.7922 6.49531 20.6347 1.50072 13.6758 9.19239C-14.5927 40.3253 21.8333 46.8183 32.022 33.6659Z" fill="#F8BE84"/>
<path fill-rule="evenodd" clip-rule="evenodd" d="M16.539 40.1919C13.7422 40.1586 11.0785 39.6258 8.81433 38.527C11.0785 39.6258 13.7755 40.1586 16.539 40.1919ZM19.9019 39.9921C22.2993 39.6591 24.63 38.9599 26.7277 37.8944C24.63 38.9599 22.2993 39.6591 19.9019 39.9921Z" fill="url(#paint0_linear)"/>
<path fill-rule="evenodd" clip-rule="evenodd" d="M26.7275 37.8944C28.0261 37.2284 29.2248 36.4626 30.2569 35.5303C30.4234 35.3638 30.5899 35.2306 30.7564 35.0641C29.591 36.1962 28.2259 37.1618 26.6942 37.9277L26.7275 37.8944ZM30.7897 35.0308C30.7897 35.0308 30.7897 35.0308 30.823 35.0308C30.823 35.0308 30.823 35.0308 30.7897 35.0308Z" fill="url(#paint1_linear)"/>
<path d="M36.2173 23.377C37.083 15.985 33.8866 9.55866 32.2884 8.59304C28.7923 6.49531 20.6347 1.50072 13.6758 9.19239C10.4794 12.7219 8.11537 15.9517 6.41727 18.8486L36.2173 23.377Z" fill="#F49E67"/>
<path d="M18.3711 10.8571C18.5042 13.2212 19.3034 14.8861 20.3688 14.5864C21.4343 14.32 21.1346 18.3823 23.4321 17.7163C26.9615 16.6841 26.9615 22.2781 28.7595 19.6809C30.5575 17.0837 31.7561 23.0439 32.5885 19.248C33.3876 15.4521 33.3543 11.856 31.4898 10.2245C29.5919 8.59289 28.4598 7.19441 28.593 10.2911C28.7262 13.3877 24.8638 7.99354 24.6973 10.3909C24.5309 12.7883 21.0015 6.99463 21.2012 9.39203C21.3677 11.8227 18.3045 8.59289 18.4377 10.7905L18.3711 10.8571Z" fill="#FCBA63"/>
<path d="M2.95428 13.5211C2.95428 13.5211 19.1029 11.8895 39.2471 24.1096C39.2471 24.1096 37.6822 9.55873 36.1506 7.92716C34.6522 6.32889 25.1628 -2.82785 13.0097 2.26663C11.6779 2.83268 2.95428 13.5211 2.95428 13.5211Z" fill="#86A199"/>
<path d="M29.7244 19.1813C32.7543 20.5132 35.9175 22.1115 39.2138 24.1093C39.2138 24.1093 37.6489 9.55842 36.1172 7.92685C35.4846 7.26091 33.4535 5.26307 30.4236 3.53162C30.2238 7.46069 29.9574 14.0535 29.7577 19.1813H29.7244Z" fill="#708B81"/>
<path d="M15.3072 1.46753C14.5413 1.66732 13.7755 1.96699 13.0097 2.26667C11.6779 2.83272 2.95428 13.5211 2.95428 13.5211C2.95428 13.5211 3.78669 13.4545 5.31831 13.4545C8.14849 10.0249 12.7101 4.53088 15.3072 1.43423V1.46753Z" fill="#708B81"/>
<path d="M35.1517 21.2127C35.1517 21.2127 33.4869 6.46197 35.2183 7.46089C36.9164 8.45981 38.4147 22.8775 38.4147 22.8775L35.1517 21.2127Z" fill="#86A199"/>
<path d="M40.2128 23.3102C26.4282 15.3522 16.0398 12.8216 2.28845 12.9881L2.25516 13.8205C14.8411 13.7539 24.9964 16.3844 40.1795 24.1427L40.2128 23.3102Z" fill="#B4CCC4"/>
<path d="M28.2592 18.7486C27.6932 21.0461 27.9595 22.8775 29.0583 22.9108C30.1571 22.9441 28.6588 26.7733 31.0561 26.8065C34.7519 26.8731 33.0871 32.234 35.5843 30.2695C38.0483 28.3049 37.0827 32.9332 38.9806 29.5369C40.8784 26.1406 42.2769 24.1428 40.945 22.0117C39.6132 19.8807 38.9473 18.2159 38.1482 21.2459C37.349 24.2427 35.2514 17.9828 34.3857 20.2137C33.52 22.4446 31.8552 15.8518 31.3224 18.2492C30.7897 20.6133 28.7919 16.6176 28.2592 18.7819V18.7486Z" fill="#FCBA63"/>
<path d="M40.9452 22.0119C40.4791 21.2461 40.0795 20.5801 39.7466 20.114C39.1139 24.0097 35.8842 26.9399 32.0885 26.7734C31.356 26.7401 30.69 26.6069 30.0241 26.3738C30.2572 26.6402 30.5568 26.8067 31.0563 26.8067C34.7522 26.8733 33.0874 32.2342 35.5846 30.2696C38.0485 28.3051 37.4824 34.3652 39.347 30.9689C41.2449 27.5725 42.2438 24.1429 40.9452 22.0119Z" fill="#EBA24E"/>
<path d="M3.95377 16.2845C16.7395 17.7829 27.0946 19.7142 38.1489 26.5734L36.3509 29.104L33.1878 30.4692C30.624 28.205 28.5929 30.1029 28.5929 30.1029L22.3332 27.9719L17.9714 28.8043L13.1435 26.7399L8.34886 28.205L5.48539 25.9407L3.52092 27.0396C3.52092 27.0396 1.92271 22.8441 3.98707 16.3178L3.95377 16.2845Z" fill="#4A4041"/>
<path d="M3.48714 27.0065L5.45161 25.9077L8.31508 28.1719L13.1097 26.7068L17.9377 28.7713L22.2995 27.9388L25.729 29.1042C27.1607 27.1064 28.0264 24.7756 28.1263 22.2783C28.1263 22.0119 28.1263 21.7788 28.1263 21.5125C20.5348 18.549 12.8101 17.2837 3.91999 16.2515C1.85563 22.8111 3.45385 26.9732 3.45385 26.9732L3.48714 27.0065Z" fill="#665453"/>
<path d="M51.9669 35.6634C53.2322 34.7644 50.3354 32.0007 49.1701 30.9685C48.9037 30.7354 48.5374 30.7021 48.2378 30.9352L45.7073 32.7332C45.5408 32.8331 45.4409 33.0329 45.4409 33.2327C45.4409 33.4325 45.5075 33.599 45.674 33.7321C48.0047 35.6301 49.5363 37.4281 51.9669 35.6967V35.6634Z" fill="#7C6A57"/>
<path d="M11.1789 30.3361L17.3719 30.5359C17.3719 30.5359 17.0057 34.6648 15.5074 34.4317C14.009 34.1986 11.1789 30.3361 11.1789 30.3361Z" fill="#4C3C32"/>
<path d="M12.211 30.5693L14.009 32.8336L16.6727 32.8668C16.6727 32.8668 17.3719 30.7025 17.039 30.7025C16.6061 30.7025 12.1777 30.5693 12.1777 30.5693H12.211Z" fill="#FEEDDF"/>
<path d="M5.75164 24.143C8.18226 24.2096 12.2111 24.9088 12.2111 24.9088C12.2111 24.9088 11.7449 20.114 9.5474 19.3482C8.34874 18.882 5.65175 19.6812 5.71834 24.143H5.75164Z" fill="#4A4041"/>
<path d="M14.9081 25.2416C17.372 25.3415 21.5673 26.0408 21.5673 26.0408C21.5673 26.0408 21.8004 21.6122 19.5695 20.7465C18.4042 20.2803 15.4408 21.0462 14.9081 25.2083V25.2416Z" fill="#4A4041"/>
<path d="M14.6418 25.4414C17.1058 25.5412 21.1679 25.9741 21.1679 25.9741C21.1679 25.9741 21.3677 21.812 19.5697 21.1127C18.4043 20.6465 15.8072 21.1127 14.6418 25.4414Z" fill="#FEEDDF"/>
<path d="M5.78522 24.1425C7.81628 24.309 11.8784 24.9084 11.8784 24.9084C11.8784 24.9084 11.3457 20.3134 9.28132 19.714C8.04936 19.3477 5.85181 20.0803 5.78522 24.1425Z" fill="#FEEDDF"/>
<path d="M8.74855 22.4778C8.78185 21.6454 8.2824 20.9461 7.64977 20.9128C7.01714 20.8796 6.4511 21.5455 6.4178 22.3779C6.38451 23.2104 6.88395 23.9096 7.51658 23.9429C8.14921 23.9762 8.71525 23.3102 8.74855 22.4778Z" fill="#89ACC2"/>
<path d="M18.8031 23.6101C18.8031 22.7777 18.2704 22.1118 17.6045 22.1118C16.9719 22.1118 16.4391 22.811 16.4724 23.6434C16.4724 24.4759 17.0052 25.1418 17.6711 25.1418C18.3037 25.1418 18.8031 24.4426 18.8031 23.6101Z" fill="#89ACC2"/>
<path d="M17.6384 24.076C17.6384 23.8096 17.4386 23.5766 17.2055 23.5766C16.9724 23.5766 16.7727 23.8096 16.7727 24.076C16.7727 24.3424 16.9724 24.5755 17.2055 24.5755C17.4386 24.5755 17.6384 24.3424 17.6384 24.076Z" fill="#C5E3F2"/>
<path d="M7.44983 22.7774C7.44983 22.511 7.28335 22.2779 7.05028 22.2779C6.81721 22.2779 6.61743 22.4777 6.61743 22.7441C6.61743 23.0104 6.78391 23.2435 7.01698 23.2435C7.25005 23.2435 7.44983 23.0437 7.44983 22.7774Z" fill="#C5E3F2"/>
<path d="M14.4751 27.9385C14.5084 27.3724 13.5096 26.8397 12.2443 26.7731C10.979 26.7065 9.94686 27.1394 9.91356 27.7387C9.88026 28.3048 10.8791 28.8375 12.1444 28.9041C13.4097 28.9707 14.4418 28.5378 14.4751 27.9385Z" fill="#EFA766"/>
<path d="M13.5097 27.6724C13.543 27.2396 12.7772 26.84 11.8116 26.8067C10.846 26.7734 10.0469 27.1064 10.0469 27.5392C10.0136 27.9721 10.7794 28.3717 11.745 28.405C12.7106 28.4383 13.5097 28.1053 13.5097 27.6724Z" fill="#F8BE84"/>
<path d="M25.0632 30.0363C25.0965 29.3703 23.8312 28.771 22.2663 28.7044C20.7014 28.6378 19.3696 29.104 19.3696 29.7699C19.3363 30.4358 20.6015 31.0352 22.1664 31.1018C23.7314 31.1684 25.0632 30.7022 25.0632 30.0363Z" fill="#EEA472"/>
<path d="M8.04909 29.0042C8.08238 28.3383 7.0835 27.7722 5.81825 27.7056C4.55301 27.639 3.52083 28.1385 3.48753 28.8044C3.45424 29.4704 4.45312 30.0364 5.71837 30.103C6.98361 30.1696 8.01579 29.6701 8.04909 29.0042Z" fill="#EEA472"/>
<path d="M35.8178 29.8033C35.5514 28.6379 34.0864 28.0052 32.5548 28.3715C31.0564 28.7378 30.0242 29.9698 30.3239 31.1352C30.5903 32.3006 32.0553 32.9332 33.5869 32.567C35.0853 32.2007 36.1175 30.9687 35.8178 29.8033Z" fill="#F8BE84"/>
<path d="M34.8856 30.0029C34.6858 29.2037 33.6869 28.7376 32.6548 29.004C31.6226 29.2703 30.9234 30.1028 31.1231 30.9352C31.3229 31.7343 32.3218 32.2005 33.354 31.9341C34.3862 31.6677 35.0854 30.8353 34.8856 30.0029Z" fill="#EEA472"/>
<path d="M32.4216 30.7691C32.3217 30.3695 31.8223 30.1697 31.3228 30.2696C30.8234 30.4028 30.4904 30.8024 30.6236 31.2019C30.7235 31.6015 31.223 31.8013 31.7224 31.7014C32.2218 31.5682 32.5548 31.1686 32.4549 30.7691H32.4216Z" fill="#F8BE84"/>
<path d="M29.159 31.3018C30.2577 30.6359 29.5585 33.3996 30.6573 32.1343C31.7228 30.869 31.0569 29.2041 31.0569 29.2041L27.927 29.7702C26.9947 30.1364 26.129 33.1665 29.159 31.3351V31.3018Z" fill="#EBA24E"/>
<path d="M7.58276 13.5208C10.0467 10.5907 15.5738 0.767978 18.3374 1.46722C21.0677 2.16646 15.8069 14.5863 15.8069 14.5863L7.61606 13.5208H7.58276Z" fill="#B4CCC4"/>
<path d="M17.8712 30.4026C17.8047 30.2362 17.5716 30.1696 17.3718 30.2362C17.172 30.3027 17.0721 30.5358 17.1387 30.7023C17.2053 30.8688 17.4384 30.9354 17.6049 30.8688C17.8047 30.8022 17.9045 30.6024 17.8379 30.4026H17.8712Z" fill="#4C3C32"/>
<path d="M11.5115 30.5358C11.5448 30.3693 11.4449 30.1695 11.2451 30.1362C11.0453 30.1029 10.8455 30.2028 10.8122 30.3693C10.779 30.5358 10.8788 30.7356 11.0786 30.7688C11.2784 30.8021 11.4782 30.7023 11.5115 30.5358Z" fill="#4C3C32"/>
<path d="M13.3095 4.1311C14.1752 3.09888 14.7079 2.13326 14.5081 1.96677C14.3084 1.80029 13.4427 2.46623 12.577 3.49845C11.7113 4.53066 11.1785 5.49628 11.3783 5.66277C11.5781 5.82926 12.4438 5.16331 13.3095 4.1311Z" fill="#E1F1E9"/>
<path d="M10.0466 8.02683C10.546 7.42748 10.8124 6.86143 10.6792 6.72824C10.546 6.59505 10.0466 6.99462 9.54711 7.59397C9.04767 8.19332 8.7813 8.75937 8.91448 8.89256C9.04767 8.99245 9.54711 8.62618 10.0466 8.02683Z" fill="#E1F1E9"/>
<path d="M50.9677 35.8633C51.8999 35.3639 49.8023 33.3993 48.9699 32.6668C48.7701 32.5003 48.5037 32.467 48.304 32.5669L46.4394 33.5658C46.3062 33.6324 46.2396 33.7323 46.2396 33.8655C46.2396 33.9987 46.3062 34.0986 46.4061 34.1985C48.0709 35.5637 49.1697 36.8289 50.9677 35.83V35.8633Z" fill="#625446"/>
<path d="M21.9998 17.9492C21.3339 17.4498 21.1674 18.5153 21.1341 18.6152C21.1341 18.5153 21.2007 17.816 20.1352 17.4498C19.1364 17.1168 19.5692 18.2489 19.7024 18.5486C19.6025 18.3488 19.2363 17.6163 18.6702 17.4831C18.0043 17.3166 18.2374 18.2156 18.4039 18.9149L22.2995 20.4798C22.3994 20.4798 22.699 18.482 21.9998 17.9492Z" fill="#FCBA63"/>
<path d="M8.88082 15.3857C8.04842 15.3857 8.51456 16.3181 8.54786 16.418C8.51456 16.3514 8.14831 15.7187 7.08283 16.0184C6.08395 16.3181 7.08283 17.0173 7.3492 17.1505C7.14942 17.0173 6.4502 16.651 5.88417 16.8508C5.25154 17.1172 5.95076 17.6833 6.5168 18.1827L10.6122 17.2171C10.7121 17.1505 9.77982 15.3525 8.91412 15.3192L8.88082 15.3857Z" fill="#FCBA63"/>
<path d="M35.1524 61.5021C35.0525 61.1026 34.8194 60.9028 33.9537 61.1359C33.0547 61.369 32.4221 61.9017 32.522 62.3013C32.6219 62.7008 33.421 62.834 34.32 62.601C35.219 62.3679 35.2523 61.9017 35.1524 61.5021Z" fill="#E9E0AF"/>
<path d="M31.6895 55.8748L34.4864 58.0724L36.0514 59.2711L36.6507 58.6052L35.0525 57.573L32.3888 55.2755L31.6895 55.8748Z" fill="#859BAD"/>
<path d="M34.486 58.0725L36.0509 59.2712L36.6502 58.6052L35.052 57.573L34.486 58.0725Z" fill="#677D8E"/>
<path d="M12.9098 84.5438C12.3771 84.3773 11.6446 84.011 12.2772 83.5781C12.9098 83.1453 13.4093 84.3107 13.4093 84.3107L12.9098 84.5438Z" fill="#E47B6A"/>
<path d="M31.256 84.4109C31.6555 84.0779 32.1549 83.5119 31.4557 83.3121C30.7565 83.1123 30.7232 84.3443 30.7232 84.3443L31.256 84.4109Z" fill="#E47B6A"/>
<path d="M30.4235 59.6045L31.1893 60.0706L32.9873 58.1727L32.0883 57.4069L30.8563 57.6399L31.3225 58.1061L30.4235 59.6045Z" fill="#859BAD"/>
<path d="M33.7201 61.0361C33.7201 61.0361 33.8533 61.1693 34.3527 61.0694L33.6202 61.7353L33.7201 61.0361Z" fill="#B6AA76"/>
<defs>
<linearGradient id="paint0_linear" x1="17.468" y1="37.5011" x2="18.094" y2="40.5858" gradientUnits="userSpaceOnUse">
<stop stop-color="#ECCAB5"/>
<stop offset="1" stop-color="#E9C3B4"/>
</linearGradient>
<linearGradient id="paint1_linear" x1="28.9384" y1="33.6606" x2="29.8042" y2="37.9203" gradientUnits="userSpaceOnUse">
<stop stop-color="#D8823E"/>
<stop offset="1" stop-color="#D67D3C"/>
</linearGradient>
</defs>
</svg>
