<svg width="75" height="56" viewBox="0 0 75 56" fill="none" xmlns="http://www.w3.org/2000/svg">
<path d="M32.3053 11.1933C29.0423 13.7572 24.5806 15.0891 24.2809 12.0924C23.9813 9.09562 5.26883 27.3758 0.607371 9.42859C-0.0252562 6.99789 9.49745 9.362 10.5296 9.2621C11.5618 9.16221 16.4563 1.73692 23.8148 0.638113C31.1733 -0.460697 37.7659 6.8647 32.3053 11.1933Z" fill="#68503D"/>
<path d="M32.7383 3.73474C30.7073 5.86576 27.3776 7.8636 23.3488 9.12889C19.7861 10.261 16.3566 10.594 13.6263 10.261C12.8605 12.4253 10.0304 14.0569 6.63415 14.0569C4.80286 14.0569 3.13806 13.5907 1.8728 12.8249C7.9327 24.8452 24.048 9.36197 24.3144 12.1256C24.6141 15.1224 29.0757 13.7905 32.3388 11.2266C35.1356 9.029 34.7694 5.99895 32.7716 3.76804L32.7383 3.73474Z" fill="#513E32"/>
<path d="M35.1694 10.9273L33.0717 8.86285L31.1405 10.8607L33.2382 12.9251L35.1694 10.9273Z" fill="#F4D649"/>
<path d="M50.2186 41.8269C46.8224 38.2641 44.0255 34.2351 34.2697 37.7313C31.1066 38.8634 27.6771 38.2641 24.4807 37.6314C21.3175 37.0321 18.3875 36.4327 16.1566 37.4982C16.1566 37.4982 22.0167 45.2232 21.5173 50.4176C31.1066 52.6152 45.324 55.6119 50.2186 41.8269Z" fill="#6D6137"/>
<path d="M34.9364 54.7132C29.6756 55.3791 19.2872 53.8474 13.6935 50.9839L13.7601 49.8851C13.7601 49.8851 16.4904 52.5156 33.0386 52.0827L34.9364 54.7132Z" fill="#A39741"/>
<path d="M50.9518 42.5928C51.5179 42.5262 52.4169 42.7926 53.6821 43.0589C56.8785 43.7249 62.3058 44.3908 69.5977 39.7625L70.6299 40.3619C70.6299 40.3619 67.2669 46.7549 51.7842 45.7893C47.9885 45.5562 50.9518 42.5928 50.9518 42.5928Z" fill="#D6C24E"/>
<path d="M40.8295 54.8793C38.632 55.2789 35.3024 55.6785 32.5388 54.1468C31.6065 53.614 30.9739 52.715 30.7741 51.6495L30.1082 47.8869C30.1082 47.8869 33.2713 45.3563 35.9683 44.3241L41.1292 54.846L40.7962 54.8793H40.8295Z" fill="#D6C24E"/>
<path d="M34.7033 46.7215C35.4025 46.4218 36.1017 46.1887 36.8009 45.9557L36.0018 44.3241C33.3048 45.3563 30.1417 47.8869 30.1417 47.8869L30.3748 49.2188C31.6067 48.2865 33.0717 47.4207 34.7365 46.7215H34.7033Z" fill="#C1AC43"/>
<path d="M41.8953 54.2466C41.8953 53.847 41.6955 53.5474 41.4624 53.5474C41.2293 53.5474 41.0296 53.8803 41.0296 54.2466C41.0296 54.6462 41.2293 54.9458 41.4624 54.9458C41.6955 54.9458 41.8953 54.6129 41.8953 54.2466Z" fill="#D7B73C"/>
<path d="M37.5004 44.091C37.5004 43.6914 37.1341 43.3918 36.7013 43.3918C36.2684 43.3918 35.9022 43.7247 35.9022 44.091C35.9022 44.4906 36.2684 44.7902 36.7013 44.7902C37.1341 44.7902 37.5004 44.4573 37.5004 44.091Z" fill="#D7B73C"/>
<path d="M41.1295 54.846C38.9319 55.3122 32.306 49.5517 35.9686 44.2242C41.0296 41.5937 48.6877 38.497 53.2493 41.1941C54.4146 42.1264 57.2115 50.817 41.1295 54.8127V54.846Z" fill="#A39741"/>
<path d="M35.6351 46.7214C40.0968 43.6913 46.6229 40.0619 51.7838 40.5614C47.1556 39.1296 40.4964 41.86 35.9681 44.2241C34.9692 45.6559 34.7362 47.1209 34.9692 48.4861C35.1024 47.9201 35.3022 47.3207 35.6351 46.7214Z" fill="#8A7D3E"/>
<path d="M47.8886 41.194C47.5223 40.295 46.2237 39.962 44.9918 40.4615C43.7598 40.9609 43.0606 42.093 43.3936 42.9921C43.7598 43.8911 45.0584 44.2241 46.2903 43.7246C47.5223 43.2251 48.2215 42.093 47.8553 41.194H47.8886Z" fill="#D6C24E"/>
<path d="M54.0811 43.4584C54.3807 42.7925 54.5472 40.3951 51.6838 38.8634C48.8203 37.3317 45.5906 36.9987 43.0934 36.5992C43.5595 36.8656 53.3486 45.0234 54.0478 43.4584H54.0811Z" fill="#F4D649"/>
<path d="M53.2495 42.6592L50.2195 39.8956L50.3194 36.6657L53.7822 37.032L53.2495 42.6592Z" fill="#FDC778"/>
<path d="M45.424 42.6925C44.0921 41.8601 33.737 37.6313 30.9069 36.9987L30.9402 35.7334C30.9402 35.7334 44.192 38.9632 46.6226 40.4949C49.0865 42.0266 45.3907 42.6925 45.3907 42.6925H45.424Z" fill="#D6C24E"/>
<path d="M45.5575 52.0493L47.4553 48.8861L52.4165 48.087L49.3532 51.0837L45.5575 52.0493Z" fill="#F4D649"/>
<path d="M46.2231 48.7863L46.8224 47.7873L48.4206 47.521L47.4217 48.4866L46.2231 48.7863Z" fill="#F4D649"/>
<path d="M52.6163 47.5542L52.583 46.3888L53.7817 45.29L53.482 46.6551L52.6163 47.5542Z" fill="#F4D649"/>
<path d="M42.9267 53.0148L43.7591 52.1491L45.3573 52.249L44.192 52.9815L42.9267 53.0148Z" fill="#F4D649"/>
<path d="M14.2929 51.1834C14.2929 51.1834 10.8301 51.6162 10.1309 50.8837C10.1309 50.8837 12.6947 49.8182 13.627 49.7516C14.5593 49.685 14.3262 51.1834 14.3262 51.1834H14.2929Z" fill="#A39741"/>
<path d="M30.6405 50.8505C26.1788 51.0836 19.1533 48.4198 12.2943 46.1556L12.3609 45.0567C12.3609 45.0567 16.756 47.4542 33.3375 47.2211C34.1699 48.3532 32.9712 50.684 30.6405 50.8505Z" fill="#A39741"/>
<path d="M13.0604 46.2885C13.0604 46.2885 9.59759 46.7214 8.89838 45.9888C8.89838 45.9888 11.4622 44.9233 12.3945 44.8567C13.3268 44.7901 13.0937 46.2885 13.0937 46.2885H13.0604Z" fill="#A39741"/>
<path d="M34.5363 44.4573C34.0701 45.4562 31.4397 53.2144 39.5973 55.4121L41.6949 54.9459C41.6949 54.9459 32.9381 51.8493 36.5007 43.3918L34.5363 44.4573Z" fill="#F4D649"/>
<path d="M16.2906 42.6262C16.2906 42.6262 20.053 39.0967 28.9764 38.3975C28.9764 38.3975 21.0519 35.434 16.1574 37.4984C16.1574 37.4984 13.7601 39.2299 16.2906 42.6262Z" fill="#F4D649"/>
<path d="M13.0268 46.6219C13.0268 46.6219 11.9613 45.6229 13.2598 44.7905L16.4896 45.4898V48.0537L13.0268 46.6219Z" fill="#F4D649"/>
<path d="M14.3921 52.016C14.3921 52.016 13.26 51.0836 14.5253 50.1513L17.7883 50.6508L17.9548 53.2147L14.4254 52.016H14.3921Z" fill="#F4D649"/>
<path d="M69.4641 41.0277C69.5307 38.9632 70.2965 37.8311 71.2621 37.9643C72.2277 38.1308 73.959 41.1942 69.4641 41.0277Z" fill="#DEA45A"/>
<path d="M70.4636 39.3962C70.5635 38.8967 70.4969 38.4306 70.2638 38.364C70.0308 38.2974 69.7644 38.6636 69.6645 39.1631C69.5646 39.6625 69.6312 40.1287 69.8643 40.1953C70.0974 40.2619 70.3637 39.8956 70.4636 39.3962Z" fill="#FDC778"/>
<path d="M70.4961 39.2298C70.8624 39.4962 71.0289 39.4962 71.1953 39.3297C71.3285 39.1632 71.3951 38.8635 71.0289 38.5971C70.6626 38.3307 70.2298 38.2642 70.0966 38.4306C69.9634 38.5971 70.1299 38.9634 70.5294 39.2298H70.4961Z" fill="#FDC778"/>
<path d="M71.6287 38.3971C71.8618 38.0975 71.8618 37.931 71.6953 37.7645C71.5288 37.598 71.2292 37.5314 70.9961 37.8311C70.763 38.1308 70.7297 38.5303 70.8962 38.6635C71.0627 38.83 71.3957 38.6635 71.6287 38.3638V38.3971Z" fill="#FDC778"/>
<path d="M72.0611 39.2631C72.394 39.0634 72.4606 38.9302 72.3607 38.6971C72.2608 38.4973 72.0278 38.2975 71.6948 38.4973C71.3618 38.6971 71.1621 39.0301 71.2953 39.2298C71.3951 39.4296 71.7614 39.4296 72.0944 39.2298L72.0611 39.2631Z" fill="#FDC778"/>
<path d="M72.1613 40.2288C72.5608 40.1622 72.6607 40.0624 72.6274 39.8293C72.5941 39.5962 72.4609 39.3298 72.0947 39.3964C71.6951 39.463 71.3955 39.6961 71.4288 39.9292C71.4621 40.1622 71.795 40.2954 72.1613 40.2288Z" fill="#FDC778"/>
<path d="M31.3739 36.6324C29.5093 37.265 28.244 36.9654 28.0443 35.9664C27.8445 35.0008 29.9754 32.337 31.3739 36.6324Z" fill="#FDC778"/>
<path d="M29.575 36.2662C29.0755 36.3328 28.7093 36.5659 28.7425 36.799C28.7758 37.0321 29.1754 37.1653 29.6748 37.0987C30.1743 37.0321 30.5406 36.799 30.5406 36.5659C30.5073 36.3328 30.1077 36.1996 29.6083 36.2662H29.575Z" fill="#FDC778"/>
<path d="M29.4089 36.2664C29.5088 35.8335 29.4755 35.667 29.2424 35.6004C29.0427 35.5338 28.743 35.5671 28.6431 36C28.5432 36.4328 28.6098 36.8657 28.8429 36.9323C29.0427 36.9989 29.309 36.6992 29.4089 36.2664Z" fill="#FDC778"/>
<path d="M28.2764 35.5005C27.9102 35.4006 27.777 35.4339 27.7104 35.6669C27.6438 35.9 27.6438 36.1664 28.0101 36.2996C28.3763 36.3995 28.7093 36.3329 28.8092 36.0998C28.8758 35.9 28.6427 35.6336 28.2764 35.5005Z" fill="#FDC778"/>
<path d="M28.9092 34.8013C28.6095 34.5682 28.4763 34.5682 28.3098 34.7347C28.1766 34.9012 28.0767 35.2009 28.3764 35.434C28.6761 35.667 29.0424 35.7336 29.1755 35.5672C29.3087 35.4007 29.2088 35.0677 28.9092 34.8346V34.8013Z" fill="#FDC778"/>
<path d="M29.7416 34.4015C29.5419 34.0685 29.4087 34.0019 29.2089 34.1018C29.0091 34.2017 28.8094 34.4348 29.0091 34.7678C29.2089 35.1007 29.5086 35.3005 29.7084 35.2006C29.9081 35.1007 29.9081 34.7345 29.7084 34.4015H29.7416Z" fill="#FDC778"/>
<path d="M66.0011 40.3619L68.5649 43.8248L70.2297 40.6616L69.3973 39.6294L66.0011 40.3619Z" fill="#F4D649"/>
<path d="M32.6051 39.7293L34.8359 36.0666L31.2733 35.7004L30.6406 36.8658L32.6051 39.7293Z" fill="#F4D649"/>
<path d="M57.9107 43.525C56.4456 43.525 55.2137 43.3585 54.1482 43.1587C54.1482 43.1254 54.1482 43.1254 54.1482 43.0921C54.1482 43.1254 54.1482 43.1254 54.1482 43.1587C55.1804 43.3585 56.4456 43.525 57.9107 43.525C59.1093 43.525 60.4745 43.3918 61.9395 43.0588C60.4745 43.3918 59.1093 43.525 57.9107 43.525ZM43.1272 36.6325C43.0939 36.6325 43.0606 36.6325 43.0273 36.5992C43.0606 36.5992 43.0939 36.5992 43.0939 36.5992C43.0939 36.5992 43.0939 36.5992 43.1272 36.5992V36.6325Z" fill="#B3A6A1"/>
<path d="M46.8563 40.3285C46.6233 40.2619 46.3902 40.2286 46.1238 40.2286H46.0905C45.9573 40.162 45.8242 40.0954 45.6577 40.0288C44.0928 38.2973 43.2271 36.7657 43.0273 36.5992C43.0606 36.5992 43.0939 36.5992 43.1272 36.6325C43.4934 36.8989 45.5578 38.5637 47.7886 40.2286C47.489 40.2619 47.156 40.2952 46.823 40.3285H46.8563Z" fill="#514731"/>
<path d="M55.3798 44.9902C54.9803 44.9902 54.5474 44.9569 54.1812 44.9236C54.2477 44.3243 54.2145 43.7582 54.1479 43.292C54.1479 43.2587 54.1812 43.1921 54.1812 43.1589C55.2133 43.3586 56.4786 43.5251 57.9436 43.5251C59.1423 43.5251 60.5074 43.3919 61.9725 43.059C59.5751 44.4241 57.3776 44.9902 55.4131 44.9902H55.3798Z" fill="#99803D"/>
<path d="M54.1815 44.8903C51.6843 44.5906 49.5866 43.4585 47.9218 42.1266C48.0217 41.7937 48.0217 41.4607 47.8885 41.161C47.8552 41.0611 47.7886 40.9612 47.722 40.8613C47.9884 40.7948 48.2548 40.7615 48.5211 40.6949C50.6521 42.2265 52.8163 43.625 53.682 43.625C53.8818 43.625 54.015 43.5584 54.0816 43.4252C54.1149 43.3586 54.1149 43.3253 54.1482 43.2254C54.2148 43.7249 54.2481 44.2577 54.1815 44.857V44.8903ZM46.8896 40.2953C47.2226 40.262 47.5222 40.2287 47.8552 40.1954C47.5555 40.2287 47.2226 40.262 46.8896 40.2953Z" fill="#766638"/>
<path d="M47.722 40.8944C47.5222 40.628 47.2226 40.4282 46.8896 40.3283C47.2226 40.295 47.5222 40.2617 47.8552 40.2284C48.0883 40.3949 48.3213 40.5614 48.5544 40.7279C48.288 40.7612 48.0217 40.8278 47.7553 40.8944H47.722Z" fill="#655734"/>
<path d="M47.8879 42.1264C47.7215 41.9932 47.555 41.86 47.4218 41.7268C47.5883 41.3938 47.4551 40.9943 46.6227 40.4948C46.4895 40.3949 46.323 40.3283 46.09 40.2284H46.1233C46.3896 40.2284 46.6227 40.2617 46.8558 40.3283C47.222 40.4282 47.4884 40.628 47.6882 40.8944C47.7548 40.9943 47.8213 41.0942 47.8546 41.1941C47.9878 41.4937 47.9878 41.8267 47.8879 42.1597V42.1264Z" fill="#99803D"/>
<path d="M53.6818 43.6584C52.7828 43.6584 50.6518 42.2599 48.5209 40.7283C48.2878 40.5618 48.0547 40.3953 47.8216 40.2288C45.5908 38.5639 43.5264 36.8991 43.1602 36.6327C43.1602 36.6327 43.1602 36.6327 43.1269 36.6327C44.1258 36.7992 45.2911 36.9657 46.4898 37.1988C47.6885 37.898 48.9537 38.4641 50.2523 38.9302L50.219 39.9291L53.2489 42.6928L53.4487 40.362C54.2145 41.3942 54.2811 42.4597 54.1479 43.0924C54.1479 43.1257 54.1479 43.1257 54.1479 43.159C54.1479 43.1923 54.1146 43.2589 54.1146 43.2922C54.0813 43.3588 54.0813 43.4253 54.048 43.4919C53.9814 43.6251 53.8482 43.6917 53.6485 43.6917L53.6818 43.6584Z" fill="#AD8D3E"/>
<path d="M53.2494 42.6593L50.2195 39.8957L50.2528 38.8967C51.3516 39.2963 52.4503 39.596 53.5158 39.7625L53.4492 40.3285L53.2494 42.6593Z" fill="#B48350"/>
<path d="M47.422 41.7269C46.7561 41.1609 46.19 40.5948 45.6906 40.0287C45.8571 40.0953 45.9902 40.1619 46.1234 40.2285C46.3232 40.3284 46.4897 40.4283 46.6562 40.4949C47.4553 40.9944 47.6218 41.3939 47.4553 41.7269H47.422Z" fill="#99803D"/>
<path d="M34.7691 21.2159C34.7691 21.2159 31.5394 25.9774 31.5061 26.1439C31.4728 26.3104 32.5716 27.0762 32.5716 27.0762L35.2353 22.0483L34.7691 21.2492V21.2159Z" fill="#6D6137"/>
<path d="M34.5368 20.9161C34.5368 20.9161 28.7099 21.349 28.5768 21.4489C28.4436 21.5488 28.7765 22.8474 28.7765 22.8474L34.1039 22.6809L34.5368 20.9161Z" fill="#6D6137"/>
<path d="M33.7373 21.7819C33.7373 21.7819 30.674 23.3469 30.6407 23.5134C30.5741 23.6799 31.573 26.277 31.573 26.277L35.0358 22.3147L33.7373 21.7819Z" fill="#8D7F3E"/>
<path d="M33.3708 20.5499C33.3708 20.5499 30.2742 19.0848 30.1078 19.1181C29.9413 19.1514 28.4763 21.5488 28.4763 21.5488L33.737 21.915L33.3708 20.5499Z" fill="#8D7F3E"/>
<path d="M46.4569 36.0663C39.8642 37.2983 33.0385 32.3037 33.8376 25.5111C34.6034 18.7517 28.5102 16.5208 33.4381 11.5928C38.3992 6.63154 44.7587 4.96667 52.5833 5.59932C54.9141 5.7991 56.9784 5.46613 58.8097 5.13316C63.1382 4.36732 66.5011 3.56819 70.3968 9.4951C75.9905 17.9526 74.0261 30.8387 46.4569 36.0663Z" fill="#68503D"/>
<path d="M72.0282 12.6918C70.2968 20.45 61.5732 26.3436 51.0849 26.3436C42.3613 26.3436 34.8697 22.2814 31.5734 16.4211C32.1061 18.8518 34.2704 21.3158 33.8042 25.5112C33.0384 32.2706 39.8308 37.2984 46.4235 36.0664C70.7297 31.4714 75.1581 20.9162 72.0282 12.6918Z" fill="#513E32"/>
<path d="M54.9135 39.9622C47.2887 39.1964 36.4341 32.6701 39.564 22.5144C42.6938 12.3588 56.4784 10.261 63.7702 11.0602C71.0621 11.826 77.3218 26.1771 70.5294 34.7678C67.7658 38.2973 62.7048 40.7613 54.9135 39.9622Z" fill="#FDC778"/>
<path fill-rule="evenodd" clip-rule="evenodd" d="M57.7106 40.1289C56.8116 40.1289 55.8793 40.0956 54.9137 39.9957C54.4476 39.9624 54.0148 39.8958 53.5153 39.7959C52.4498 39.5961 51.3511 39.2964 50.2523 38.9302C49.5864 38.6971 48.9537 38.4307 48.2878 38.131C50.4854 39.1632 52.8161 39.7959 54.9137 39.9957C55.8793 40.0956 56.8449 40.1289 57.7106 40.1289C63.937 40.1289 68.099 37.8647 70.5297 34.768C76.6561 26.9765 72.0946 14.4567 65.7683 11.6264C69.9969 13.5244 73.4597 19.7177 73.4597 25.9442C73.4597 29.0409 72.594 32.1708 70.563 34.768C68.1323 37.8314 63.9703 40.1289 57.7439 40.1289H57.7106ZM60.8738 10.9272H60.7739C60.8072 10.9272 60.8072 10.9272 60.8405 10.9272C60.8738 10.9272 60.8738 10.9272 60.9071 10.9272H60.8738Z" fill="url(#paint0_linear)"/>
<path d="M74.2917 20.3171L39.7969 20.5169L38.4984 24.2129L73.6591 28.375L74.2917 20.3171Z" fill="#A39741"/>
<path d="M44.192 24.2128C44.192 22.9142 44.4251 21.6822 44.8247 20.5168L39.7969 20.5501L38.4984 24.2461L44.192 24.912C44.192 24.6789 44.1588 24.4459 44.1588 24.2128H44.192Z" fill="#8D7F3E"/>
<path d="M71.0291 26.9433C70.3299 25.1119 68.2989 19.7511 62.0392 25.5115L71.0291 26.9433Z" fill="#7B713C"/>
<path d="M58.5102 25.3115C56.7455 23.4801 51.5846 18.0527 47.922 24.4125L58.5102 25.3115Z" fill="#7B713C"/>
<path d="M41.0955 25.0452C38.565 23.3803 37.1666 21.4491 35.9679 23.4802C33.8702 27.043 40.03 28.8744 40.03 28.8744L41.0622 25.0452H41.0955Z" fill="#FDC778"/>
<path d="M48.9534 24.4792C49.7858 23.0142 52.1832 18.7521 58.6759 25.3783L48.9534 24.4792Z" fill="#FEEDDF"/>
<path d="M71.0291 26.9428C70.3632 25.4444 68.3654 21.1158 62.6052 25.6775L71.0291 26.9428Z" fill="#FEEDDF"/>
<path d="M70.3298 25.7445C70.3964 25.1451 69.9969 24.6124 69.3975 24.5125C68.7982 24.4459 68.2655 24.8455 68.1656 25.4448C68.099 26.0442 68.4986 26.5769 69.0979 26.6768C69.6972 26.7434 70.2299 26.3438 70.3298 25.7445Z" fill="#483B34"/>
<path d="M56.5455 24.1463C56.6454 23.4803 56.1792 22.881 55.5133 22.7811C54.8474 22.6812 54.248 23.1473 54.1481 23.8133C54.0482 24.4792 54.5144 25.0786 55.1803 25.1785C55.8462 25.2784 56.4456 24.8122 56.5455 24.1463Z" fill="#483B34"/>
<path d="M56.2793 23.8132C56.3126 23.5468 56.1462 23.3137 55.8798 23.2804C55.6134 23.2471 55.3804 23.4136 55.3471 23.68C55.3138 23.9463 55.4802 24.1794 55.7466 24.2127C56.013 24.246 56.2461 24.0795 56.2793 23.8132Z" fill="#765B4D"/>
<path d="M70.1635 25.5112C70.1968 25.2781 70.0304 25.0783 69.7973 25.045C69.5642 25.0117 69.3644 25.1782 69.3311 25.4113C69.2979 25.6443 69.4643 25.8441 69.6974 25.8774C69.9305 25.9107 70.1302 25.7442 70.1635 25.5112Z" fill="#765B4D"/>
<path d="M57.1444 29.4403L64.3031 30.1728C64.3031 30.1728 58.8425 37.7646 57.1444 29.4403Z" fill="#483B34"/>
<path d="M61.8392 31.9041L62.938 30.2726L57.5773 29.7065L58.4097 31.7377L61.8392 31.9041Z" fill="#FEEDE4"/>
<path d="M62.938 27.4426C62.938 27.0098 62.2721 26.6768 61.473 26.6768C60.6739 26.6768 60.0079 27.0098 60.0079 27.4426C60.0079 27.8755 60.6739 28.2085 61.473 28.2085C62.2721 28.2085 62.938 27.8755 62.938 27.4426Z" fill="#DEA45A"/>
<path d="M62.9712 27.1428C62.9712 26.7765 62.4385 26.5101 61.7726 26.5101C61.1066 26.5101 60.5739 26.8098 60.5739 27.1428C60.5739 27.5091 61.1066 27.7754 61.7726 27.7754C62.4385 27.7754 62.9712 27.4758 62.9712 27.1428Z" fill="#FDC778"/>
<path d="M39.8975 25.3445C38.499 24.4122 37.6999 23.3134 37.034 24.4788C35.8686 26.4766 39.3314 27.5088 39.3314 27.5088L39.9308 25.3778L39.8975 25.3445Z" fill="#DEA45A"/>
<path d="M39.9636 26.1774C39.2311 25.7112 38.8315 25.1451 38.4652 25.7112C37.8659 26.7434 39.6639 27.2762 39.6639 27.2762L39.9636 26.1774Z" fill="#FDC778"/>
<path d="M54.8138 27.8752C54.8138 27.2759 53.6151 26.7764 52.1168 26.7764C50.6185 26.7764 49.4198 27.2759 49.4198 27.8752C49.4198 28.4746 50.6185 28.974 52.1168 28.974C53.6151 28.974 54.8138 28.4746 54.8138 27.8752Z" fill="#FAB169"/>
<path d="M70.9954 29.9399C71.062 29.3406 69.8966 28.7079 68.3983 28.5748C66.9 28.4416 65.668 28.8411 65.6014 29.4405C65.5348 30.0398 66.7002 30.6725 68.1985 30.8057C69.6969 30.9389 70.9288 30.5393 70.9954 29.9399Z" fill="#FAB169"/>
<path d="M49.0865 19.451C50.6848 18.7518 54.4805 17.6863 55.5127 17.9527L55.4461 18.5853L49.0865 19.451Z" fill="#68503D"/>
<path d="M71.4618 19.9174C70.0301 19.2847 66.6339 18.419 65.7349 18.6854L65.8348 19.318L71.4618 19.9174Z" fill="#68503D"/>
<defs>
<linearGradient id="paint0_linear" x1="55.1518" y1="10.5766" x2="69.8052" y2="40.4678" gradientUnits="userSpaceOnUse">
<stop stop-color="#EC9F58"/>
<stop offset="0.988235" stop-color="#EA9A59"/>
<stop offset="1" stop-color="#EA9A59"/>
</linearGradient>
</defs>
</svg>
