<svg width="54" height="88" viewBox="0 0 54 88" fill="none" xmlns="http://www.w3.org/2000/svg">
<path d="M27.9899 34.0007C26.5581 35.8321 26.658 40.7934 26.658 40.7934L24.7601 39.5947C24.7601 39.5947 22.4627 40.9266 22.2629 41.2595C22.163 41.426 21.93 40.8267 21.6303 40.194C21.3306 39.5947 20.9311 38.9953 20.5315 39.0952C19.6658 39.295 17.2685 39.3616 17.2685 39.3616C17.2685 39.3616 15.8701 33.5013 14.9378 33.468C14.0055 33.4014 27.9899 33.9674 27.9899 33.9674V34.0007Z" fill="#A26D42"/>
<path d="M36.0475 31.7701C35.6146 34.0343 38.0452 38.3963 38.0452 38.3963L35.8144 38.2298C35.8144 38.2298 34.3827 40.4607 34.3827 40.8603C34.3827 41.06 33.9498 40.6605 33.4171 40.2942C32.851 39.8946 32.1851 39.4618 31.8189 39.7615C31.1529 40.3608 29.0553 41.5262 29.0553 41.5262C29.0553 41.5262 25.6591 38.6293 24.8267 39.0289C23.961 39.4285 36.0142 31.7701 36.0142 31.7701H36.0475Z" fill="#A26D42"/>
<path d="M43.7386 28.1739C43.7386 30.4714 46.9018 34.3339 46.9018 34.3339L44.6709 34.567C44.6709 34.567 43.672 37.031 43.7386 37.4305C43.7719 37.597 43.3058 37.3306 42.7397 37.0643C42.1071 36.7646 41.308 36.4316 41.0416 36.7979C40.5089 37.4971 38.6443 39.0288 38.6443 39.0288C38.6443 39.0288 34.782 36.7979 34.0162 37.3306C33.2503 37.8634 43.7386 28.1739 43.7386 28.1739Z" fill="#A26D42"/>
<path d="M26.6916 36.4984L23.8947 36.3652L23.5618 42.5585L26.392 42.6917L26.6916 36.4984Z" fill="#F8BE84"/>
<path d="M23.0953 81.6823C26.0253 80.1174 33.2173 81.0497 36.9798 77.7533C40.7422 74.4235 51.6301 77.1206 53.3615 79.9842C53.3615 79.9842 40.1762 39.2616 24.6935 40.6601C10.3761 36.1317 23.0953 81.6823 23.0953 81.6823Z" fill="#665388"/>
<path d="M24.6599 40.6606C22.8619 40.0945 21.4968 40.3276 20.4646 41.1267C20.731 74.6238 32.7176 67.9976 35.1482 78.9191C35.8141 78.5861 36.4135 78.2199 36.9462 77.7537C40.7087 74.424 51.5965 77.1211 53.3279 79.9846C53.3279 79.9846 40.1426 39.2621 24.6599 40.6606Z" fill="#4F426D"/>
<path d="M22.7625 63.0694C20.8313 58.0415 17.2353 41.7258 19.4329 40.7602C25.9922 39.5615 31.5527 42.5583 32.7513 44.9557C33.7169 46.9202 34.1498 54.7118 34.4494 58.3745C34.516 59.107 33.9833 59.8062 33.2175 60.006C30.4539 60.7719 24.2608 62.5366 22.7958 63.0694H22.7625Z" fill="#58A2CF"/>
<path d="M32.7511 44.9559C32.1851 43.8238 30.6201 42.5585 28.4559 41.6595C30.0208 42.4919 31.1196 43.4908 31.5857 44.4231C32.5513 46.3877 32.9842 54.1792 33.2838 57.8419C33.3504 58.5745 32.8177 59.2737 32.0519 59.4735C29.6545 60.1394 24.76 61.5379 22.4959 62.2372C22.5958 62.5368 22.6956 62.8032 22.7955 63.0696C24.2939 62.5368 30.4537 60.7721 33.2172 60.0062C34.0163 59.7732 34.5158 59.1072 34.4492 58.3747C34.1495 54.712 33.75 46.9537 32.7511 44.9559Z" fill="#40819E"/>
<path d="M22.3628 61.7043C23.2285 64.9009 21.9632 68.2972 29.2551 79.9179L30.4204 79.7182C30.4204 79.7182 23.7612 66.1995 29.4881 64.9675C35.2151 63.7022 39.144 77.121 39.144 77.121L40.4093 76.6215L34.7822 58.974L22.3961 61.7043H22.3628Z" fill="#58A2CF"/>
<path d="M29.4552 64.9676C29.7215 64.901 29.9546 64.901 30.1877 64.901C29.6549 64.7678 29.0889 64.7345 28.5229 64.8677C22.7959 66.133 29.4552 79.6184 29.4552 79.6184L29.0556 79.685C29.1222 79.7516 29.1555 79.8515 29.2221 79.918L30.3875 79.7183C30.3875 79.7183 23.7282 66.1996 29.4552 64.9676Z" fill="#40819E"/>
<path d="M34.7822 58.9737L33.9498 59.1402L39.4769 76.4881L39.0108 76.6546C39.1107 76.9209 39.144 77.0874 39.144 77.0874L40.4092 76.588L34.7822 58.9404V58.9737Z" fill="#40819E"/>
<path d="M25.1927 74.99L29.3547 72.6592L33.0506 80.3176C33.0506 80.3176 34.4157 87.5764 31.2193 87.1102C28.0229 86.6108 28.5889 80.7172 28.5889 80.7172L25.1927 74.99Z" fill="#BAE5FA"/>
<path d="M33.0175 80.3176L29.3216 72.6592L27.6568 73.5916C28.5891 74.5905 29.5214 75.8891 30.3205 77.454C32.3183 81.3498 32.6512 85.179 31.0863 85.9781C30.6202 86.2112 30.0208 86.1446 29.3882 85.845C29.7878 86.4776 30.3538 86.9771 31.1862 87.077C34.3826 87.5764 33.0175 80.2843 33.0175 80.2843V80.3176Z" fill="#9ED6ED"/>
<path d="M39.5103 69.6288L35.1152 71.2936L38.7445 78.9187C38.7445 78.9187 43.5392 84.546 45.1374 81.8156C46.7356 79.0852 41.8078 75.7888 41.8078 75.7888L39.477 69.5955L39.5103 69.6288Z" fill="#BAE5FA"/>
<path d="M41.8076 75.8223L39.4769 69.629L37.3792 70.4281C38.2116 71.6268 39.044 73.2584 39.7432 75.123C40.6755 77.5204 41.2083 79.7847 41.2749 81.3829C42.6733 82.4817 44.3048 83.2476 45.1372 81.8491C46.7354 79.1187 41.8076 75.8223 41.8076 75.8223Z" fill="#9ED6ED"/>
<path d="M35.0156 60.4388L22.696 62.8362V64.3679L35.0156 62.0038V60.4388Z" fill="#40819E"/>
<path d="M20.6648 58.5077L22.2963 64.0018L35.6814 60.4723L34.5493 55.3112L20.6648 58.5077Z" fill="#FCF273"/>
<path d="M32.3851 57.2089C32.7514 58.6407 32.7847 60.0392 32.5849 61.2712L35.7147 60.4387L34.5494 55.2776L31.9855 55.877C32.152 56.3099 32.2852 56.7427 32.4184 57.2089H32.3851Z" fill="#EAD755"/>
<path d="M22.1631 59.7395C22.0299 59.24 21.9633 58.7073 21.8967 58.2078L20.6648 58.5075L22.2963 64.0348L23.9944 63.5687C23.1953 62.5364 22.5294 61.2378 22.1631 59.7395Z" fill="#EAD755"/>
<path d="M28.9891 42.0588C30.3542 41.3263 44.272 52.3143 46.1699 53.7128L45.7037 54.512C45.7037 54.512 30.1877 45.7215 28.9891 45.9879C28.9891 45.9879 27.6239 42.7913 28.9891 42.0588Z" fill="#58A2CF"/>
<path d="M31.6857 43.4239C31.8855 42.6247 30.1541 40.9932 26.0919 40.7601C22.729 40.5603 19.9987 39.3949 19.7657 40.194C19.5659 40.9932 22.0298 42.3583 25.3261 43.2574C28.6224 44.1564 31.4526 44.223 31.6857 43.4239Z" fill="#40819E"/>
<path d="M45.404 53.1136L45.1709 53.5465C45.1709 53.5465 37.3463 49.1179 32.3852 46.6539L32.2853 47.4864C37.2131 49.8838 45.7037 54.5121 45.7037 54.5121L46.1698 53.713C46.0033 53.5798 45.7369 53.38 45.404 53.1469V53.1136Z" fill="#40819E"/>
<path d="M40.0097 47.1201L38.1118 51.7817L42.5069 55.6775C41.9742 55.7108 42.5069 57.6088 43.8055 58.5411C45.8365 59.4068 49.8987 55.6442 47.4015 53.4133C44.9042 51.1824 39.9764 47.0868 39.9764 47.0868L40.0097 47.1201Z" fill="#BAE5FA"/>
<path d="M44.6382 56.7429C44.1055 56.5431 43.5728 56.6097 43.4396 56.9093C43.3064 57.209 43.606 57.6086 44.1055 57.8084C44.6382 58.0082 45.171 57.9416 45.3041 57.6419C45.4373 57.3422 45.1377 56.9426 44.6382 56.7429Z" fill="#9ED6ED"/>
<path d="M47.401 53.4134C46.8683 52.9139 46.2024 52.3479 45.5031 51.7485C45.5697 52.248 45.603 52.7474 45.603 53.2469C45.603 55.3446 45.0703 57.2093 44.2046 58.641C46.3022 58.974 49.7651 55.5111 47.4343 53.4134H47.401Z" fill="#9ED6ED"/>
<path d="M29.4546 59.7062C29.4878 58.7073 28.7553 57.8748 27.7565 57.8415C26.7576 57.8082 25.9252 58.5408 25.8919 59.5397C25.8586 60.5386 26.5911 61.3711 27.59 61.4044C28.5889 61.4377 29.4213 60.7051 29.4546 59.7062Z" fill="#40819E"/>
<path d="M31.5193 42.7581C31.719 41.959 29.9876 40.4273 25.9255 40.4273C22.5626 40.4273 19.8323 39.3951 19.6326 40.1942C19.4328 40.9933 21.8967 42.2253 25.193 42.9246C28.4893 43.6238 31.3195 43.5572 31.5193 42.7581Z" fill="#665388"/>
<path d="M19.2324 45.4549C19.2324 45.4549 7.57879 31.5367 6.11375 29.7719L6.67979 29.0727C6.67979 29.0727 19.066 41.0264 20.198 40.9931L19.1991 45.4549H19.2324Z" fill="#58A2CF"/>
<path d="M28.9217 59.7063C28.955 59.0071 28.4222 58.4077 27.723 58.3744C27.0238 58.3411 26.4245 58.8739 26.3912 59.5731C26.3579 60.2723 26.8906 60.8717 27.5898 60.905C28.2891 60.9383 28.8884 60.4055 28.9217 59.7063Z" fill="#FCF273"/>
<path d="M28.2233 58.7743L26.725 59.1406L26.8915 59.8065L28.3898 59.4735L28.2233 58.7743Z" fill="#40819E"/>
<path d="M28.0564 60.7055L27.7235 59.3403L27.5237 59.4069L27.8234 60.7721L28.0564 60.7055Z" fill="#40819E"/>
<path d="M26.6249 45.8212C25.5594 45.8212 24.5938 46.1875 23.828 46.8201C24.4273 46.5537 25.0933 46.4205 25.8258 46.4205C28.323 46.4205 30.3541 48.1853 30.3541 50.3496C30.3541 52.5139 28.323 54.2787 25.8258 54.2787C25.0933 54.2787 24.4273 54.1122 23.828 53.8791C24.5938 54.4785 25.5594 54.8781 26.6249 54.8781C29.1221 54.8781 31.1199 52.8469 31.1199 50.3829C31.1199 47.8856 29.0888 45.8878 26.6249 45.8878V45.8212Z" fill="#BAE5FA"/>
<path d="M25.692 53.5133C26.4245 53.5133 27.0904 53.2469 27.6232 52.8474C27.2236 53.0138 26.7575 53.1137 26.258 53.1137C24.5599 53.1137 23.1615 51.915 23.1615 50.4167C23.1615 48.9183 24.5266 47.7196 26.258 47.7196C26.7575 47.7196 27.2236 47.8195 27.6232 47.986C27.0904 47.5531 26.4245 47.32 25.692 47.32C23.9939 47.32 22.5955 48.6852 22.5955 50.4167C22.5955 52.1148 23.9606 53.5133 25.692 53.5133Z" fill="#BAE5FA"/>
<path d="M28.1898 50.2169C28.1898 49.4178 27.5239 48.7518 26.7248 48.7518C25.9257 48.7518 25.2597 49.4178 25.2597 50.2169C25.2597 51.016 25.9257 51.682 26.7248 51.682C27.5239 51.682 28.1898 51.016 28.1898 50.2169Z" fill="#BAE5FA"/>
<path d="M41.9404 48.7183L40.2423 46.8536L37.0459 52.0147L39.2767 52.7472L41.9404 48.7183Z" fill="#9ED6ED"/>
<path d="M44.5381 57.5423C44.0054 57.4424 43.4726 57.6421 43.406 57.9418C43.3061 58.2748 43.6724 58.6078 44.2384 58.6744C44.7712 58.7743 45.3039 58.5745 45.3705 58.2748C45.4704 57.9418 45.0708 57.6088 44.5381 57.5423Z" fill="#BAE5FA"/>
<path d="M44.2716 56.2768C43.8387 55.1447 43.0729 54.3455 42.6067 54.4787C42.1073 54.6119 42.0407 55.6441 42.4736 56.7762C42.9064 57.9083 43.6722 58.7075 44.1384 58.5743C44.6378 58.4411 44.7044 57.4089 44.2716 56.2768Z" fill="#BAE5FA"/>
<path d="M34.4159 44.9892C33.417 44.3232 32.4847 43.6906 31.6856 43.1911C31.6523 43.0579 31.619 42.9247 31.5191 42.7582C31.5191 42.725 31.5191 42.6917 31.5524 42.6584C32.5513 43.291 33.5169 44.0901 34.4492 44.9892H34.4159Z" fill="#3E354A"/>
<path d="M28.5561 44.5564C27.9901 44.4898 27.424 44.3899 26.858 44.29C23.7947 43.7239 21.5639 42.9914 19.9657 42.1923L20.1988 41.0934C20.2986 41.16 20.3985 41.2266 20.4984 41.2932C21.464 41.9925 23.2287 42.7583 25.3264 43.3244C26.4251 43.624 27.4906 43.8238 28.4229 43.957C28.4562 44.1901 28.4895 44.3899 28.5561 44.623V44.5564Z" fill="#466C84"/>
<path d="M19.6325 40.6936C19.1997 40.4273 18.6003 39.9611 17.9011 39.3618C18.6003 39.9611 19.1997 40.4273 19.6325 40.6936ZM17.102 38.6625C16.769 38.3628 16.4361 38.0632 16.0698 37.7635C16.4361 38.0965 16.769 38.3961 17.102 38.6625Z" fill="#B3A6A1"/>
<path d="M17.9011 39.3615C17.6347 39.1618 17.3683 38.9287 17.0687 38.6623C17.3683 38.8954 17.6347 39.1285 17.9011 39.3615Z" fill="#764D34"/>
<path d="M20.0985 40.9603C19.9987 40.927 19.8322 40.8271 19.6324 40.6939C19.699 40.6939 19.7323 40.6939 19.7989 40.6606C19.8655 40.7605 19.9654 40.8271 20.0652 40.927L20.0985 40.9603Z" fill="#466C84"/>
<path d="M23.6946 40.2939C23.6613 40.2939 23.628 40.2939 23.628 40.2939C23.6613 40.2939 23.6613 40.2939 23.6946 40.2939ZM21.5303 39.9943C21.0642 39.9277 20.6979 39.8944 20.3982 39.8944C20.2651 39.8944 20.1652 39.8944 20.0653 39.9277C20.1652 39.8944 20.2651 39.8944 20.3982 39.8944C20.6979 39.8944 21.0975 39.9277 21.5303 39.9943Z" fill="#B3A6A1"/>
<path d="M23.5947 40.2606C22.7956 40.1607 22.0963 40.0608 21.497 39.9609C22.0963 40.0275 22.7956 40.1607 23.5947 40.2606Z" fill="#764D34"/>
<path d="M26.4915 40.4271C26.325 40.4271 26.1253 40.4271 25.9255 40.4271C25.1264 40.4271 24.3606 40.3605 23.6614 40.2939L23.7612 38.5292C24.6269 38.6624 25.5592 38.729 26.5581 38.7956L26.4915 40.4604V40.4271Z" fill="#B07E59"/>
<path d="M34.0498 44.9889C32.4183 44.9889 30.5537 44.8557 28.5226 44.556C28.4893 44.3563 28.4227 44.1232 28.3894 43.8901C28.9222 43.9567 29.4216 43.99 29.8545 43.99C30.8867 43.99 31.5526 43.7902 31.6525 43.4239C31.6858 43.3573 31.6858 43.2575 31.6525 43.1909C32.4516 43.6903 33.3839 44.2897 34.3828 44.9889C34.2496 44.9889 34.1497 44.9889 34.0165 44.9889H34.0498Z" fill="#466C84"/>
<path d="M29.8877 43.9902C29.4548 43.9902 28.9554 43.9569 28.4226 43.8903C27.4903 43.7905 26.4582 43.5574 25.3261 43.2577C23.2284 42.6916 21.4304 41.9258 20.4982 41.2266C21.4637 41.8259 23.1951 42.4586 25.1929 42.8914C26.7245 43.2244 28.123 43.3909 29.2217 43.3909C30.5203 43.3909 31.386 43.1578 31.4859 42.7582C31.5858 42.8914 31.6524 43.0579 31.6524 43.1911C31.6524 43.291 31.6524 43.3576 31.6524 43.4242C31.5525 43.7905 30.8865 43.9902 29.8544 43.9902H29.8877Z" fill="#385967"/>
<path d="M29.2546 43.4241C28.1558 43.4241 26.7241 43.2576 25.2257 42.9247C23.228 42.4918 21.4966 41.8592 20.531 41.2598C20.4311 41.1932 20.3312 41.1266 20.2313 41.06V40.9934C20.198 40.9934 20.1647 40.9934 20.0981 40.9601C19.9982 40.8602 19.8984 40.7603 19.8318 40.6938C19.6986 40.5273 19.632 40.3608 19.6653 40.2276C19.6986 40.0611 19.8318 39.9945 20.0648 39.9612C20.1647 39.9279 20.2646 39.9279 20.3978 39.9279C20.6975 39.9279 21.097 39.9612 21.5299 40.0278C22.1292 40.0944 22.8284 40.2276 23.6275 40.3275C23.6608 40.3275 23.6941 40.3275 23.6941 40.3275C24.3933 40.3941 25.1591 40.4607 25.9583 40.4607C26.158 40.4607 26.3245 40.4607 26.5243 40.4607C29.9871 40.5939 31.5853 41.8925 31.5853 42.6916C31.5853 42.7249 31.5853 42.7582 31.552 42.7915C31.4188 43.2243 30.5531 43.4241 29.2879 43.4241H29.2546Z" fill="#4D3F59"/>
<path d="M19.9652 42.1587C17.0019 40.6936 16.1362 38.9955 16.0363 37.7635C16.4026 38.0965 16.7355 38.3961 17.0685 38.6625C17.3681 38.8956 17.6345 39.1287 17.9009 39.3618C18.6001 39.9611 19.1994 40.4273 19.6323 40.6936C19.8321 40.8268 19.9652 40.8934 20.0984 40.96C20.165 40.9933 20.1983 40.9933 20.2316 40.9933V41.0599L19.9985 42.1587H19.9652Z" fill="#466C84"/>
<path d="M24.6938 5.46522C26.0589 2.20209 30.6871 -0.228612 33.2842 2.0689C33.2842 2.0689 33.5838 7.22997 34.4495 8.56186C35.3152 9.92705 24.6938 5.46522 24.6938 5.46522Z" fill="#665388"/>
<path d="M22.662 38.3627C17.5011 37.3638 2.4179 30.6711 11.2081 12.8237C14.2047 6.76364 22.2291 1.90224 33.8495 5.69813C40.7418 7.96234 48.0669 14.8882 43.8383 30.1716C41.441 38.8622 28.9882 39.5614 22.6287 38.3294L22.662 38.3627Z" fill="#F8BE84"/>
<path d="M8.37806 19.6832C8.24488 21.3148 8.31147 23.0462 8.61113 24.8443C10.5756 19.4168 34.0494 18.8841 43.8385 31.3705C43.8385 31.3705 44.6376 30.0053 45.3701 27.841C35.2814 16.4867 14.6377 15.6875 8.37806 19.7165V19.6832Z" fill="#EEA472"/>
<path d="M8.64463 24.3112C10.6424 18.8837 34.2827 18.3843 44.1383 30.8707C44.1383 30.8707 53.6277 14.6883 37.0795 5.66472C21.2639 -2.99257 5.94764 8.42839 8.64463 24.3112Z" fill="#665388"/>
<path d="M44.1383 30.9041C44.1383 30.9041 44.1383 30.9041 44.105 30.8708C44.105 30.8708 44.105 30.8708 44.1383 30.9041Z" fill="#795959"/>
<path d="M44.1047 30.871C44.0048 30.7378 43.9049 30.6046 43.7717 30.4714C43.8716 30.6046 43.9715 30.7378 44.1047 30.871Z" fill="#9F7271"/>
<path d="M44.1389 30.9045C44.1389 30.9045 44.1389 30.9045 44.1056 30.8712C44.0057 30.738 43.9058 30.6048 43.7726 30.4716C40.8426 26.9421 36.7804 24.4781 32.452 22.9131C35.2155 15.9207 39.544 11.1925 43.6395 11.0926C50.4652 19.9164 44.2388 30.7047 44.1389 30.9045Z" fill="#5B4C7B"/>
<path d="M43.1724 10.5262C41.7074 8.79471 39.7096 7.16314 37.0459 5.69806C21.4633 -2.82603 6.34688 8.12876 8.51113 23.6453C14.3047 11.9246 28.0893 5.56487 43.1724 10.5262Z" fill="#715F95"/>
<path d="M43.0728 27.7412C46.4357 26.5758 47.5677 28.4405 47.1016 30.4716C46.6687 32.5028 41.974 35.7992 39.5434 33.5017C36.913 31.0044 39.9762 28.8401 43.0395 27.7412H43.0728Z" fill="#F8BE84"/>
<path d="M16.7354 23.0463L25.792 23.2794C25.792 23.2794 21.297 34.0677 16.7354 23.0463Z" fill="#4C3C32"/>
<path d="M17.2688 23.279L18.4342 25.1436L23.6617 25.8096L25.0602 23.3789L17.2688 23.279Z" fill="#FEEDDF"/>
<path d="M12.4409 19.9497C11.6418 19.6167 12.5408 15.3879 13.7395 14.6221C16.836 12.6909 19.7994 14.389 19.7328 17.3858C19.7328 18.1516 14.6052 20.882 12.4076 19.9497H12.4409Z" fill="#FEEDDF"/>
<path d="M30.4203 20.2493C31.3193 19.9163 30.2538 15.5544 28.8887 14.8885C25.1928 13.0904 22.296 14.9218 22.6623 17.5522C22.7622 18.3181 28.023 21.1483 30.4203 20.2493Z" fill="#FEEDDF"/>
<path d="M8.54524 35.8322L11.3088 31.0374L7.37988 26.8086C7.37988 26.8086 8.54524 23.7786 6.44759 22.5799C4.31663 21.3812 -1.17723 25.3436 1.25339 28.1072C3.68401 30.8376 8.57854 35.8655 8.57854 35.8655L8.54524 35.8322Z" fill="#BAE5FA"/>
<path d="M7.34659 26.8087C7.34659 26.8087 8.51196 23.7787 6.4143 22.58C6.31441 22.5134 6.21452 22.4801 6.08133 22.4468C5.38211 23.1793 4.6163 24.4779 4.11686 24.9108C3.25116 25.6766 4.05027 27.6411 4.01697 28.4403C3.98367 29.1062 6.74726 32.3694 9.07799 34.9665L11.3088 31.0375L7.37989 26.8087H7.34659Z" fill="#9ED6ED"/>
<path d="M22.4625 20.9153C22.5957 20.3826 21.9631 19.7832 21.0308 19.5501C20.1318 19.3171 19.2661 19.5834 19.1329 20.1162C18.9997 20.649 19.6323 21.2483 20.5646 21.4814C21.4969 21.7145 22.3293 21.4481 22.4625 20.9153Z" fill="#EFA766"/>
<path d="M21.7963 20.4489C21.8962 20.0493 21.43 19.6165 20.7641 19.45C20.0982 19.2835 19.4656 19.4833 19.399 19.8495C19.2991 20.2491 19.7652 20.682 20.4311 20.8485C21.0971 21.0149 21.7297 20.8152 21.7963 20.4489Z" fill="#F8BE84"/>
<path d="M17.4682 16.2536C17.5681 15.288 16.8023 14.5222 15.7035 14.5222C14.6047 14.5222 13.6391 15.288 13.5393 16.2536C13.4394 17.2192 14.2052 17.9851 15.304 17.9851C16.4027 17.9851 17.3683 17.2192 17.4682 16.2536Z" fill="#926964"/>
<path d="M16.2027 15.3545C16.236 15.0215 15.9696 14.7218 15.5701 14.7218C15.1705 14.7218 14.8043 14.9882 14.771 15.3545C14.7377 15.6875 15.004 15.9871 15.4036 15.9871C15.8031 15.9871 16.1694 15.7208 16.2027 15.3545Z" fill="#C69C9C"/>
<path d="M27.6569 17.0191C27.9898 16.2533 27.5237 15.3875 26.5914 15.0879C25.6591 14.8215 24.6269 15.221 24.294 15.9869C23.961 16.7527 24.4272 17.6185 25.3595 17.9181C26.2917 18.1845 27.3239 17.7849 27.6569 17.0191Z" fill="#926964"/>
<path d="M26.425 15.887C26.4583 15.554 26.1919 15.2543 25.7924 15.2543C25.3928 15.2543 25.0266 15.5207 24.9933 15.887C24.96 16.22 25.2263 16.5196 25.6259 16.5196C26.0255 16.5196 26.3917 16.2532 26.425 15.887Z" fill="#C69C9C"/>
<path d="M43.0062 28.8067C45.1372 28.0409 45.8364 29.2396 45.57 30.5382C45.2703 31.8368 42.307 33.9678 40.7753 32.5027C39.1105 30.9045 41.0417 29.506 43.0062 28.8067Z" fill="#EEA472"/>
<path d="M41.0756 31.0043C42.1411 30.6381 42.4741 31.2041 42.3409 31.8701C42.2077 32.536 40.7094 33.5682 39.9769 32.8357C39.1445 32.0366 40.11 31.3373 41.0756 31.0043Z" fill="#F8BE84"/>
<path d="M34.3826 25.7431C34.5824 25.0439 33.4503 24.1116 31.8521 23.6787C30.2539 23.2126 28.7889 23.4123 28.5891 24.1116C28.3893 24.8108 29.5214 25.7431 31.1196 26.176C32.7178 26.6422 34.1829 26.4424 34.3826 25.7431Z" fill="#EEA472"/>
<path d="M15.4703 22.9463C15.2039 22.2804 13.7389 22.2138 12.2073 22.7799C10.6423 23.3792 9.61016 24.3781 9.84324 25.0441C10.1096 25.71 11.5746 25.7766 13.1063 25.2106C14.6712 24.6112 15.7034 23.6123 15.4703 22.9463Z" fill="#EEA472"/>
<path d="M26.2916 23.3456C26.2916 23.1125 26.0919 22.9127 25.8255 22.9127C25.5591 22.9127 25.3593 23.1125 25.3593 23.3456C25.3593 23.5786 25.5591 23.7784 25.8255 23.7784C26.0919 23.7784 26.2916 23.5786 26.2916 23.3456Z" fill="#4C3C32"/>
<path d="M17.2023 23.1128C17.2023 22.8797 17.0025 22.68 16.7361 22.68C16.4698 22.68 16.27 22.8797 16.27 23.1128C16.27 23.3459 16.4698 23.5457 16.7361 23.5457C17.0025 23.5457 17.2023 23.3459 17.2023 23.1128Z" fill="#4C3C32"/>
<path d="M22.8291 8.06235C25.8591 2.90127 29.1554 0.670356 33.2841 1.93565C32.1854 1.26971 31.1532 0.970032 30.2209 0.970032H30.121C26.6915 1.03663 24.2942 4.83251 22.8291 8.06235Z" fill="#897BB5"/>
<path d="M31.5193 15.0213C31.6524 14.7549 31.0531 13.6561 29.8544 13.0234C28.6558 12.3575 27.3572 12.3908 27.224 12.6571C27.0909 12.9235 28.1563 13.3231 29.3217 13.989C30.5204 14.655 31.3861 15.2876 31.5193 15.0213Z" fill="#715F95"/>
<path d="M16.7688 12.3576C16.6689 12.0579 15.437 11.8581 14.1717 12.3243C12.9064 12.8237 12.074 13.8226 12.2072 14.1223C12.3071 14.422 13.306 13.8559 14.5713 13.3565C15.8365 12.857 16.902 12.6239 16.7688 12.3576Z" fill="#897BB5"/>
<path d="M12.4074 30.8375L10.3763 29.9385L7.21318 34.5002L8.31195 36.7644L12.4074 30.8375Z" fill="#9ED6ED"/>
<path d="M6.94688 24.9441C7.31313 24.4113 7.34643 23.7787 7.04676 23.5123C6.7471 23.2459 6.21436 23.4457 5.8814 23.9785C5.51514 24.5112 5.48185 25.1439 5.78151 25.4103C6.08118 25.6766 6.61392 25.4768 6.94688 24.9441Z" fill="#BAE5FA"/>
<path d="M2.51851 26.7754V26.6755C2.21885 28.4736 4.91583 29.4392 4.91583 29.4392V28.1073C4.15002 28.74 2.51851 26.7754 2.51851 26.7754Z" fill="#9ED6ED"/>
<path d="M4.28269 26.2427C3.91643 25.4103 3.3171 24.8442 2.95084 25.0107C2.58458 25.1772 2.58458 25.9763 2.95084 26.8088C3.3171 27.6412 3.91643 28.2072 4.28269 28.0408C4.64895 27.8743 4.64895 27.0751 4.28269 26.2427Z" fill="#BAE5FA"/>
<path d="M28.256 80.8837L31.4857 79.7516C31.4857 79.7516 31.5523 77.8203 27.4902 79.5185L28.256 80.8837Z" fill="#58A2CF"/>
<path d="M27.2907 79.1851L30.5204 78.053C30.5204 78.053 30.587 76.1218 26.5248 77.8199L27.2907 79.1851Z" fill="#58A2CF"/>
<path d="M26.2247 77.4206L29.4545 76.2885C29.4545 76.2885 29.5211 74.3572 25.4589 76.0554L26.2247 77.4206Z" fill="#58A2CF"/>
<path d="M42.2069 75.4229L39.5432 76.7215C39.5432 76.7215 38.0782 75.4895 41.6408 74.0244L42.2069 75.4229Z" fill="#58A2CF"/>
<path d="M41.4743 73.6579L38.8106 74.9564C38.8106 74.9564 37.3456 73.7244 40.9082 72.2594L41.4743 73.6579Z" fill="#58A2CF"/>
<path d="M40.7751 71.7932L38.1114 73.0918C38.1114 73.0918 36.6464 71.8598 40.2091 70.3947L40.7751 71.7932Z" fill="#58A2CF"/>
</svg>
