<svg width="45" height="82" viewBox="0 0 45 82" fill="none" xmlns="http://www.w3.org/2000/svg">
<path d="M11.026 46.4015C2.53546 35.8796 -6.62098 7.87658 14.1891 7.51031C19.5165 -7.90632 61.4363 -0.580927 35.4986 45.2361L10.9927 46.4015H11.026Z" fill="#F68F3B"/>
<path d="M38.8614 14.3695C37.3963 23.3598 30.3376 30.1857 21.847 30.1857C14.9547 30.1857 9.02802 25.7239 6.23114 19.2309C5.7317 28.2878 9.76053 40.3081 13.5896 46.4015L32.6683 45.2361C38.6283 31.7174 39.9934 21.5617 38.8281 14.3695H38.8614Z" fill="#E67338"/>
<path d="M21.1145 42.406L18.3176 39.6423L27.241 38.8765L25.2765 42.0064L21.1145 42.406Z" fill="#7CC7E6"/>
<path d="M21.3812 41.2071V35.9794C23.945 36.2125 23.945 36.2125 23.945 36.2125L24.4445 41.4401L21.3812 41.2071Z" fill="#FCCB9E"/>
<path d="M40.1269 56.0909C38.3955 53.4604 30.6708 40.6743 25.8096 40.3413L26.0093 43.2715C26.0093 43.2715 32.0692 45.802 39.3611 56.9233L40.1269 56.0909Z" fill="#58A2CF"/>
<path d="M39.4276 54.9922L38.8616 55.6249C32.7351 46.3016 27.4743 42.8054 25.9427 42.0063L26.0092 43.2383C26.0092 43.2383 32.0691 45.7689 39.361 56.8902L40.1268 56.0577C39.9603 55.7913 39.7273 55.4251 39.4276 54.9589V54.9922Z" fill="#4C8FB2"/>
<path d="M37.796 48.1998L33.8004 51.3964C33.8004 51.3964 36.6306 60.7862 41.4919 58.8882C46.3531 56.9903 43.5562 52.2288 40.5596 52.9946L37.796 48.1998Z" fill="#91D5F5"/>
<path d="M8.56168 58.3885C10.0267 55.5916 16.5528 41.8398 21.414 41.0074L21.4806 44.1373C21.4806 44.1373 15.6205 47.3006 9.42738 59.1211L8.56168 58.3885Z" fill="#58A2CF"/>
<path d="M9.76034 58.0891L9.02782 57.4565C8.82805 57.8228 8.66156 58.1557 8.56168 58.3888L9.42738 59.1214C15.6538 47.3008 21.4806 44.1376 21.4806 44.1376L21.3807 42.9056C20.0156 43.8046 15.0544 48.0001 9.76034 58.0891Z" fill="#4C8FB2"/>
<path d="M19.1831 59.2545C18.8169 55.9248 17.3518 42.0731 20.6481 41.2074C23.9445 40.3417 26.8745 39.8089 27.4739 41.2074C28.0732 42.6059 31.0032 55.9248 30.0377 58.7217C29.0721 61.5187 19.1831 59.2545 19.1831 59.2545Z" fill="#58A2CF"/>
<path d="M27.9401 44.7702C28.7059 49.0322 29.6382 55.5585 29.6382 59.2545C29.8047 59.088 29.9378 58.9215 30.0377 58.7217C30.8035 56.624 29.3385 48.3996 28.3396 44.2041C28.04 42.9721 27.6737 43.2385 27.9401 44.7702Z" fill="#4C8FB2"/>
<path d="M24.3113 78.034C22.3801 73.8386 16.7864 62.3843 19.0505 52.7614C19.0505 52.7614 28.9395 53.1943 29.4722 53.5272C29.9717 53.8602 32.0027 68.6442 28.0738 78.8997L27.5743 78.7999C27.5743 78.7999 30.8041 61.7517 25.0438 61.6518C19.3835 61.5519 25.2103 77.9341 25.2103 77.9341L24.3446 78.034H24.3113Z" fill="#58A2CF"/>
<path d="M18.6173 58.555H30.0712V57.8224H18.6173V58.555Z" fill="#4C8FB2"/>
<path d="M29.4717 53.5271C29.4384 53.4938 29.3385 53.4605 29.2053 53.4605C29.8713 56.6571 30.8701 68.2778 27.8735 77.1016C27.707 78.1338 27.6071 78.7997 27.6071 78.7997L28.1066 78.8996C32.0355 68.6441 30.0044 53.8601 29.505 53.5271H29.4717Z" fill="#4C8FB2"/>
<path d="M25.0437 61.6183C25.9094 61.6183 26.542 62.0178 27.0414 62.6838C26.5087 61.4851 25.7096 60.7193 24.5109 60.686C18.8506 60.5861 24.6774 76.9683 24.6774 76.9683L23.9116 77.0682C24.0781 77.4012 24.2113 77.7342 24.3444 78.0005L25.2101 77.9006C25.2101 77.9006 19.4166 61.4851 25.0437 61.6183Z" fill="#4C8FB2"/>
<path d="M24.3438 77.701C23.5447 78.9663 23.6779 81.4303 23.6779 81.4303C23.6779 81.4303 25.5425 78.4002 25.1429 77.8342C24.7434 77.2681 24.3438 77.701 24.3438 77.701Z" fill="#91D5F5"/>
<path d="M28.6393 78.267C29.6382 79.5323 29.4384 81.9963 29.4384 81.9963C29.4384 81.9963 27.1077 78.9662 27.6071 78.4002C28.1066 77.8341 28.606 78.267 28.606 78.267H28.6393Z" fill="#91D5F5"/>
<path d="M23.8451 73.2392L22.3801 73.6055L24.1781 78.6001L25.3102 77.9675L23.8451 73.2392Z" fill="#91D5F5"/>
<path d="M28.3063 73.8718L29.4717 74.2381L28.9723 78.8997L27.6071 78.6L28.3063 73.8718Z" fill="#91D5F5"/>
<path d="M19.9495 41.274L23.5122 44.0377L26.4422 40.3084C26.4422 40.3084 23.6121 39.5093 19.9495 41.3073V41.274Z" fill="#7CC7E6"/>
<path d="M20.1822 48.4994L23.645 51.5627L27.474 47.0343L23.4119 49.7646L20.1822 48.4994Z" fill="#A7DFF5"/>
<path d="M21.7135 51.5626L24.011 54.0599L25.6425 51.0964L23.8445 52.8612L21.7135 51.5626Z" fill="#A7DFF5"/>
<path d="M18.884 44.3038C18.2846 44.2372 17.7519 44.1706 17.2191 44.104C18.1514 43.0052 19.117 42.1394 20.016 41.5734C19.4833 42.0729 19.117 43.0718 18.884 44.3038Z" fill="#466C84"/>
<path d="M26.3755 40.4081L26.4421 40.3083L26.3755 40.4081Z" fill="#A25236"/>
<path d="M28.9722 44.1374C28.6392 43.871 28.3396 43.6379 28.0732 43.4381C27.8068 42.306 27.5737 41.5069 27.4406 41.2072C27.2741 40.7743 26.8745 40.5413 26.3085 40.4414C27.7402 40.7743 29.405 42.0729 31.0365 43.8044C30.4039 43.9376 29.6714 44.0708 28.9389 44.1707L28.9722 44.1374Z" fill="#466C84"/>
<path d="M28.3401 44.2042C28.2735 43.9045 28.2069 43.7047 28.1403 43.5715C28.1403 43.5049 28.107 43.4716 28.107 43.405C28.3734 43.6048 28.6731 43.8379 29.006 44.1043C28.8062 44.1376 28.5732 44.1709 28.3734 44.2042H28.3401Z" fill="#3C6173"/>
<path d="M20.1494 41.4405L20.1161 41.4072L20.1494 41.4405Z" fill="#A25236"/>
<path d="M20.1492 41.4403L20.1159 41.407L20.0826 41.3737L20.1825 41.4403H20.1492Z" fill="#5C8391"/>
<path d="M23.2789 44.5036C21.7473 44.5036 20.249 44.437 18.9171 44.3038C19.1502 43.0719 19.5164 42.0729 20.0492 41.5735L20.1491 41.4736L23.512 44.0708L26.3422 40.4414C26.8749 40.5413 27.2745 40.8076 27.4742 41.2072C27.6074 41.5069 27.8405 42.306 28.1069 43.4381C28.1069 43.5047 28.1402 43.538 28.1402 43.6046C28.0736 43.5047 28.0403 43.4714 28.007 43.4714C27.9071 43.4714 27.8405 43.7711 27.9071 44.3038C26.4753 44.4703 24.9437 44.5369 23.3122 44.5369L23.2789 44.5036Z" fill="#466C84"/>
<path d="M27.8741 44.2705C27.8075 43.7044 27.8741 43.438 27.974 43.438C28.0073 43.438 28.0739 43.4713 28.1072 43.5712C28.1738 43.7044 28.2403 43.9042 28.3069 44.2039C28.1405 44.2372 28.0073 44.2372 27.8408 44.2705H27.8741Z" fill="#3C6173"/>
<path d="M24.2112 39.1429L27.2411 38.8765L24.2112 39.1429Z" fill="#A25236"/>
<path d="M19.9824 41.2737L18.3176 39.6421L21.3808 39.3757V40.6743C20.9147 40.8408 20.4485 41.0073 19.9824 41.2404V41.2737ZM26.3753 40.2747C26.1755 40.2414 25.6094 40.1082 24.7437 40.1082C24.6106 40.1082 24.4441 40.1082 24.2776 40.1082L24.1777 39.1093L27.241 38.843L26.3753 40.2414V40.2747Z" fill="#5C8391"/>
<path d="M21.3812 40.7078V39.0097C21.5144 39.0097 21.6476 39.0097 21.7808 39.0097C21.8807 39.0097 22.0139 39.0097 22.1137 39.0097C22.813 39.0097 23.5122 38.9431 24.1781 38.8765L24.2114 39.1429L24.3113 40.1418C23.5122 40.1751 22.5133 40.3415 21.3812 40.7078Z" fill="#B58767"/>
<path d="M23.5122 44.0376L20.1493 41.4404L20.0494 41.3738L19.9495 41.3072C20.4489 41.0742 20.9151 40.8744 21.3479 40.7412C22.48 40.3749 23.4789 40.2084 24.278 40.1751C24.4445 40.1751 24.5777 40.1751 24.7441 40.1751C25.6098 40.1751 26.1759 40.3083 26.3756 40.3416C26.4089 40.3416 26.4422 40.3749 26.4422 40.3749L26.3424 40.4748L23.5122 44.1042V44.0376Z" fill="#5C8391"/>
<path d="M5.69838 21.1288C5.73168 26.5562 10.1601 38.743 21.7804 39.0094C33.2343 39.2758 38.2953 26.4231 38.1621 21.1288C38.0955 18.0321 36.4973 7.77659 22.2799 8.17615C10.5929 8.50913 5.66508 15.7013 5.69838 21.1288Z" fill="#FCCB9E"/>
<path fill-rule="evenodd" clip-rule="evenodd" d="M22.1131 39.0096C22.0132 39.0096 21.88 39.0096 21.7802 39.0096C20.5482 38.9763 19.3828 38.8098 18.2841 38.5434C19.3828 38.8098 20.5482 38.9763 21.7802 39.0096C21.88 39.0096 22.0132 39.0096 22.1131 39.0096C29.2718 39.0096 33.8667 33.8818 36.2307 28.8206C33.8667 33.8818 29.2385 39.0096 22.1131 39.0096ZM35.6979 13.5705C34.5326 11.9389 32.8345 10.4405 30.3706 9.44162C32.8345 10.4405 34.5326 11.9389 35.6979 13.5705Z" fill="url(#paint0_linear)"/>
<path d="M15.3208 9.07538C19.1831 10.4739 19.0832 13.2375 23.2453 12.7714C27.4073 12.3052 28.8723 11.9389 31.1697 12.4717C31.1697 12.4717 28.7058 11.1731 24.4772 12.0055C20.2486 12.838 17.6182 7.6103 16.4528 7.90998C15.2875 8.20965 15.2875 9.07538 15.2875 9.07538H15.3208Z" fill="#F68F3B"/>
<path d="M16.7533 7.57714C20.7488 8.54276 20.9819 11.3064 25.044 10.3741C29.1394 9.44179 30.5379 8.90903 32.9019 9.17541C32.9019 9.17541 30.3048 8.1432 26.1761 9.44179C22.0474 10.7404 18.8842 5.84568 17.7522 6.27855C16.6534 6.71141 16.72 7.54384 16.72 7.54384L16.7533 7.57714Z" fill="#F68F3B"/>
<path d="M38.5288 15.4683C35.1326 12.2051 29.0727 11.6058 26.6421 14.3362C24.0117 17.1664 20.2492 17.3329 17.3858 14.3362C17.3192 14.2696 17.2526 14.203 17.186 14.1364C14.4557 11.6724 8.529 13.1375 5.66554 16.8668C2.76877 20.6293 7.59671 29.3865 9.26152 29.6862C12.2915 30.2523 19.7498 29.4198 20.9152 26.9891C22.4801 23.7593 23.8785 25.2577 25.0106 27.1223C26.4423 29.4531 33.7675 29.6529 36.7308 28.654C38.3624 28.1212 41.9583 18.7314 38.5288 15.435V15.4683Z" fill="#4E94BA"/>
<path d="M8.32852 15.3687C8.32852 15.3687 3.46728 12.3387 2.66817 13.0379C1.86907 13.7372 4.36628 17.0669 4.36628 17.0669C4.36628 17.0669 2.20203 15.6018 1.33633 16.6007C0.470627 17.5997 3.60047 20.1968 3.60047 20.1968C3.60047 20.1968 1.26973 19.3977 0.670404 20.5298C0.0377768 21.6619 6.03109 25.4578 6.03109 25.4578L8.29523 15.3687H8.32852Z" fill="#4E94BA"/>
<path d="M34.466 13.7368C34.466 13.7368 38.961 9.10847 39.9932 9.54133C41.0254 9.9742 39.1941 14.1364 39.1941 14.1364C39.1941 14.1364 41.1585 11.972 42.3572 12.6713C43.5559 13.3705 40.7923 17.0332 40.7923 17.0332C40.7923 17.0332 43.0897 15.4682 44.0553 16.4006C45.0209 17.3329 39.4937 23.0933 39.4937 23.0933L34.4993 13.7035L34.466 13.7368Z" fill="#4E94BA"/>
<path d="M31.8694 17.3332C27.4743 17.3332 23.9449 20.4964 23.9449 24.4255C23.9449 24.925 24.0115 25.4244 24.1114 25.8906C24.4111 26.2236 24.7108 26.6897 25.0104 27.1226C26.4422 29.4534 33.7673 29.6532 36.7307 28.6543C37.5631 28.3546 38.9615 25.6908 39.5941 22.7273C38.7617 19.6307 35.6319 17.3332 31.9027 17.3332H31.8694Z" fill="#61B5D9"/>
<path d="M12.5577 18.0659C17.0194 17.5331 21.1481 20.2302 21.7808 24.0927C21.8474 24.5922 21.8807 25.0916 21.8474 25.5578C21.581 25.9573 21.3479 26.3902 21.1481 26.8897C20.0494 29.3537 12.6576 30.4858 9.49449 29.8531C8.5955 29.6866 6.76421 27.1893 5.63214 24.3591C5.9984 21.1958 8.79527 18.5321 12.591 18.0659H12.5577Z" fill="#61B5D9"/>
<path d="M8.02956 30.3856C7.43023 29.42 6.39805 28.9538 5.76542 29.3201C5.13279 29.7197 5.09949 30.8185 5.69883 31.8174C6.29816 32.783 7.33034 33.2492 7.96297 32.8829C8.5956 32.4833 8.62889 31.3845 8.02956 30.3856Z" fill="#FCCB9E"/>
<path d="M7.8962 30.5855C7.46335 29.8862 6.76413 29.5533 6.29798 29.8529C5.83183 30.1193 5.83183 30.9184 6.26468 31.6177C6.69753 32.3169 7.39675 32.6499 7.8629 32.3502C8.29575 32.0838 8.32905 31.2847 7.8962 30.5855Z" fill="#EFA766"/>
<path d="M7.99623 30.5521C7.76316 30.1858 7.3969 30.0193 7.16383 30.1525C6.93075 30.2857 6.93075 30.7185 7.13053 31.0515C7.3636 31.4178 7.72986 31.5843 7.96294 31.4511C8.19601 31.3179 8.19601 30.885 7.99623 30.5521Z" fill="#FCCB9E"/>
<path d="M38.7617 31.2179C39.4276 30.4187 39.4942 29.3532 38.8949 28.8871C38.2956 28.3876 37.2967 28.654 36.6307 29.4531C35.9648 30.2523 35.8982 31.3178 36.4976 31.7839C37.0969 32.2834 38.0958 32.017 38.7617 31.2179Z" fill="#FCCB9E"/>
<path d="M38.3286 30.9519C38.7948 30.3858 38.8281 29.6866 38.4285 29.3536C38.029 29.0206 37.3297 29.1871 36.8636 29.7532C36.3974 30.3192 36.3642 31.0185 36.7637 31.3515C37.1633 31.6844 37.8625 31.5179 38.3286 30.9519Z" fill="#EFA766"/>
<path d="M37.2302 30.4191C37.4633 30.1194 37.4965 29.7199 37.2968 29.5534C37.0637 29.3869 36.6974 29.4535 36.4644 29.7532C36.2313 30.0529 36.198 30.4524 36.3978 30.6189C36.6309 30.7854 36.9971 30.7188 37.2302 30.4191Z" fill="#FCCB9E"/>
<path d="M35.698 14.6029C35.698 14.6029 36.0976 8.87575 35.0987 8.50948C34.0998 8.14321 32.3351 11.9058 32.3351 11.9058C32.3351 11.9058 32.6015 9.30861 31.3362 9.00894C30.071 8.70926 29.2386 12.7049 29.2386 12.7049C29.2386 12.7049 28.839 10.2742 27.5738 10.2742C26.3085 10.2409 25.7425 17.3333 25.7425 17.3333L35.698 14.6029Z" fill="#4E94BA"/>
<path d="M6.99701 16.0679C6.99701 16.0679 5.03254 9.94124 5.89824 9.2087C6.76394 8.50946 9.59411 12.0723 9.59411 12.0723C9.59411 12.0723 8.62852 9.3086 9.79389 8.60935C10.9593 7.91011 12.9237 12.039 12.9237 12.039C12.9237 12.039 12.6241 9.2753 13.8893 8.87573C15.1546 8.47616 17.6518 16.0679 17.6518 16.0679H6.99701Z" fill="#4E94BA"/>
<path d="M25.9426 27.0559C26.7417 28.2213 32.4687 28.9538 34.1335 27.7884C35.2656 25.5575 34.9659 20.5629 31.1368 19.897C28.906 19.5307 24.8106 22.4942 25.9426 27.0559Z" fill="#417C96"/>
<path d="M26.0758 27.1226C26.8416 28.2547 32.3021 28.9206 33.8671 27.8218C34.9658 25.6908 34.6662 20.9293 31.0369 20.2966C28.9392 19.9304 25.0103 22.7606 26.0758 27.1226Z" fill="#FEEDDF"/>
<path d="M12.0914 28.5875C13.2235 29.4199 18.8838 28.2545 20.0825 26.623C20.4487 24.1257 18.5176 19.4974 14.6885 20.13C12.4577 20.4963 9.52762 24.6251 12.0914 28.5875Z" fill="#417C96"/>
<path d="M12.1576 28.6209C13.2564 29.42 18.6837 28.2879 19.849 26.7562C20.182 24.4254 18.384 20.0968 14.6881 20.6961C12.5572 21.0291 9.727 24.9249 12.1576 28.6209Z" fill="#FEEDDF"/>
<path d="M19.7829 30.785L25.6763 30.6852C25.6763 30.6852 22.6796 38.6432 19.7829 30.785Z" fill="#564132"/>
<path d="M20.2493 31.0848L21.0817 32.6498L24.1782 32.5832L25.1105 30.9849L20.2493 31.0848Z" fill="#FEF0EA"/>
<path d="M24.4771 28.6543C24.4771 28.1216 23.7113 27.6554 22.8123 27.6554C21.8801 27.6554 21.1475 28.0883 21.1475 28.6543C21.1475 29.1871 21.9133 29.6533 22.8123 29.6533C23.7446 29.6533 24.4771 29.2204 24.4771 28.6543Z" fill="#EFA766"/>
<path d="M24.2774 28.388C24.2774 27.9884 23.5782 27.6554 22.7125 27.6554C21.8468 27.6554 21.1475 27.9884 21.1475 28.388C21.1475 28.7875 21.8468 29.1205 22.7125 29.1205C23.5782 29.1205 24.2774 28.7875 24.2774 28.388Z" fill="#FCCB9E"/>
<path d="M31.1702 25.8907C31.1702 24.7253 30.3045 23.793 29.2058 23.793C28.107 23.793 27.2413 24.7253 27.2413 25.8907C27.2413 27.0561 28.107 27.9884 29.2058 27.9884C30.3045 27.9884 31.1702 27.0561 31.1702 25.8907Z" fill="#5C663B"/>
<path d="M18.2511 25.8907C18.2511 24.7253 17.3854 23.793 16.2866 23.793C15.1878 23.793 14.3221 24.7253 14.3221 25.8907C14.3221 27.0561 15.1878 27.9884 16.2866 27.9884C17.3854 27.9884 18.2511 27.0561 18.2511 25.8907Z" fill="#5C663B"/>
<path d="M17.4855 25.4911C17.4855 25.1248 17.1859 24.7919 16.8529 24.7919C16.4866 24.7919 16.2203 25.0915 16.2203 25.4911C16.2203 25.8574 16.5199 26.1571 16.8529 26.1571C17.2192 26.1571 17.4855 25.8574 17.4855 25.4911Z" fill="#899E47"/>
<path d="M30.3375 25.3577C30.3375 25.0247 30.0712 24.7583 29.7715 24.7583C29.4385 24.7583 29.2055 25.0247 29.2055 25.3577C29.2055 25.6907 29.4718 25.957 29.7715 25.957C30.1045 25.957 30.3375 25.6907 30.3375 25.3577Z" fill="#899E47"/>
<path d="M1.10394 20.796C1.00405 21.129 1.23713 21.5286 1.63668 21.6618C2.03623 21.7949 2.46908 21.5952 2.56897 21.2622C2.66886 20.9292 2.43579 20.5296 2.03623 20.3965C1.63668 20.2633 1.20383 20.4631 1.10394 20.796Z" fill="#61B5D9"/>
<path d="M1.60289 17.0337C1.503 17.3666 1.73607 17.7662 2.13563 17.8994C2.53518 18.0326 2.96803 17.8328 3.06792 17.4998C3.16781 17.1669 2.93473 16.7673 2.53518 16.6341C2.13563 16.5009 1.70278 16.7007 1.60289 17.0337Z" fill="#61B5D9"/>
<path d="M3.23488 13.637C3.0018 13.9034 3.0684 14.3695 3.40136 14.6359C3.73432 14.9023 4.20046 14.9023 4.43353 14.6359C4.66661 14.3695 4.60001 13.9034 4.26705 13.637C3.93409 13.3706 3.46795 13.3706 3.23488 13.637Z" fill="#61B5D9"/>
<path d="M6.43101 10.0409C6.16464 10.1741 6.09805 10.5404 6.26453 10.8734C6.43101 11.1731 6.79727 11.3062 7.03034 11.1731C7.29671 11.0399 7.36331 10.6736 7.19683 10.3406C7.03034 10.0409 6.66409 9.90776 6.43101 10.0409Z" fill="#61B5D9"/>
<path d="M9.9941 9.20843C9.66114 9.34162 9.49466 9.77448 9.62784 10.174C9.76102 10.5736 10.1606 10.8067 10.5268 10.6735C10.8598 10.5403 11.0263 10.1075 10.8931 9.70789C10.7599 9.30832 10.3604 9.07524 9.9941 9.20843Z" fill="#61B5D9"/>
<path d="M31.4028 9.80795C31.0365 9.74136 30.6702 10.0077 30.6037 10.4406C30.5038 10.8735 30.7368 11.273 31.0698 11.3396C31.4361 11.4062 31.8023 11.1398 31.8689 10.707C31.9688 10.2741 31.7357 9.87455 31.4028 9.80795Z" fill="#61B5D9"/>
<path d="M34.7326 9.17538C34.3664 9.10879 34.0001 9.37517 33.9335 9.80803C33.8336 10.2409 34.0667 10.6405 34.3997 10.7071C34.7659 10.7736 35.1322 10.5073 35.1988 10.0744C35.2987 9.64154 35.0656 9.24198 34.7326 9.17538Z" fill="#61B5D9"/>
<path d="M39.1274 10.3409C38.7612 10.2743 38.3949 10.5407 38.3283 10.9736C38.2284 11.4064 38.4615 11.806 38.7945 11.8726C39.1607 11.9392 39.527 11.6728 39.5936 11.2399C39.6935 10.8071 39.4604 10.4075 39.1274 10.3409Z" fill="#61B5D9"/>
<path d="M41.7247 12.9377C41.3584 12.8711 40.9921 13.1375 40.9256 13.5704C40.8257 14.0033 41.0587 14.4028 41.3917 14.4694C41.758 14.536 42.1242 14.2696 42.1908 13.8368C42.2907 13.4039 42.0576 13.0043 41.7247 12.9377Z" fill="#61B5D9"/>
<path d="M43.0568 16.6671C42.6905 16.6005 42.3243 16.8669 42.2577 17.2997C42.1578 17.7326 42.3909 18.1322 42.7238 18.1988C43.0901 18.2654 43.4563 17.999 43.5229 17.5661C43.6228 17.1332 43.3898 16.7337 43.0568 16.6671Z" fill="#61B5D9"/>
<path d="M13.8892 9.57493C13.6228 9.60822 13.423 9.9412 13.4896 10.2742C13.5562 10.6071 13.8226 10.8402 14.089 10.7736C14.3553 10.7403 14.5551 10.4074 14.4885 10.0744C14.4219 9.74141 14.1556 9.50833 13.8892 9.57493Z" fill="#61B5D9"/>
<path d="M27.7076 11.1063C27.4412 11.1396 27.2414 11.4726 27.308 11.8055C27.3746 12.1385 27.641 12.3716 27.9074 12.305C28.1737 12.2717 28.3735 11.9387 28.3069 11.6058C28.2403 11.2728 27.974 11.0397 27.7076 11.1063Z" fill="#61B5D9"/>
<path d="M30.2714 18.7318C31.4368 18.7318 33.6676 19.0647 34.5333 20.7629L35.2325 20.3633C33.7675 18.5653 32.6021 18.3655 30.2714 18.7318Z" fill="#4C8FB2"/>
<path d="M14.9881 19.2312C13.8227 19.2312 11.5919 19.5642 10.7262 21.2623L10.0269 20.8628C11.492 19.0647 12.6573 18.8649 14.9881 19.2312Z" fill="#4C8FB2"/>
<path d="M40.1936 54.2599L40.6264 52.9613H40.5598L40.2935 52.4951L39.8939 53.6938L37.8629 53.261L38.0626 52.1954H38.0959L38.9283 50.1976L38.6287 49.6982L37.7963 51.6627L36.3312 51.2964L35.5321 49.9645L35.4322 50.0311L35.1659 50.2642L35.9317 51.5295L34.6997 53.7937C34.7663 53.9602 34.8662 54.1267 34.9328 54.2932L36.3312 51.7959L37.5965 52.0956L37.0305 55.1922L35.2991 54.9924C35.3989 55.1589 35.4988 55.3254 35.5654 55.4919L37.0305 55.6584L38.329 57.4564L37.6298 58.0558C37.763 58.1557 37.8629 58.2555 37.996 58.3554L38.9616 57.523L37.43 55.392L37.7297 53.6938L40.127 54.2266L40.1936 54.2599Z" fill="#71C4E6"/>
<path d="M41.2592 57.4231C41.2592 56.5907 40.9262 55.9247 40.4934 55.9247C40.0938 55.9247 39.7275 56.5907 39.7275 57.4231C39.7275 58.2555 40.0605 58.9215 40.4934 58.9215C40.8929 58.9215 41.2592 58.2555 41.2592 57.4231Z" fill="#58A2CF"/>
<path d="M40.9922 56.4571C40.9922 56.0243 40.5261 55.658 39.96 55.658C39.394 55.658 38.9279 56.0243 38.9279 56.4571C38.9279 56.89 39.394 57.2563 39.96 57.2563C40.5261 57.2563 40.9922 56.89 40.9922 56.4571Z" fill="#58A2CF"/>
<path d="M42.6902 55.5583C42.6902 55.1255 42.224 54.7592 41.658 54.7592C41.092 54.7592 40.6258 55.1255 40.6258 55.5583C40.6258 55.9912 41.092 56.3575 41.658 56.3575C42.224 56.3575 42.6902 55.9912 42.6902 55.5583Z" fill="#58A2CF"/>
<path d="M44.255 54.2597C44.255 53.8268 43.7889 53.4605 43.2229 53.4605C42.6568 53.4605 42.1907 53.8268 42.1907 54.2597C42.1907 54.6925 42.6568 55.0588 43.2229 55.0588C43.7889 55.0588 44.255 54.6925 44.255 54.2597Z" fill="#58A2CF"/>
<path d="M42.8901 56.3907C42.8901 55.5583 42.5571 54.8923 42.1243 54.8923C41.7247 54.8923 41.3585 55.5583 41.3585 56.3907C41.3585 57.2231 41.6914 57.8891 42.1243 57.8891C42.5238 57.8891 42.8901 57.2231 42.8901 56.3907Z" fill="#58A2CF"/>
<path d="M44.4214 55.092C44.4214 54.2596 44.0884 53.5937 43.6556 53.5937C43.256 53.5937 42.8898 54.2596 42.8898 55.092C42.8898 55.9245 43.2227 56.5904 43.6556 56.5904C44.0551 56.5904 44.4214 55.9245 44.4214 55.092Z" fill="#58A2CF"/>
<path d="M40.9595 53.6603C41.7919 53.8267 42.4911 53.6603 42.4578 53.2274C42.4578 52.8278 41.7586 52.3284 40.9262 52.1619C40.0938 51.9954 39.3946 52.1619 39.4279 52.5947C39.4279 52.9943 40.1271 53.4938 40.9595 53.6603Z" fill="#58A2CF"/>
<path d="M41.6579 54.5593C42.3238 54.0599 42.6235 53.3939 42.3904 53.061C42.124 52.728 41.3915 52.8612 40.7589 53.3606C40.093 53.8601 39.7933 54.526 40.0264 54.859C40.2928 55.192 41.0253 55.0588 41.6579 54.5593Z" fill="#58A2CF"/>
<path d="M40.2264 55.9912C40.1931 55.8248 39.8934 55.7582 39.5937 55.8248C39.2941 55.8914 39.0943 56.0911 39.1276 56.2576C39.1609 56.4241 39.4606 56.4907 39.7602 56.4241C40.0599 56.3575 40.2597 56.1577 40.2264 55.9912Z" fill="#91D5F5"/>
<path d="M41.8918 55.1255C41.8585 54.959 41.5588 54.8924 41.2592 54.959C40.9595 55.0256 40.7597 55.2254 40.793 55.3919C40.8263 55.5583 41.126 55.6249 41.4256 55.5583C41.7253 55.4917 41.9251 55.292 41.8918 55.1255Z" fill="#91D5F5"/>
<path d="M43.4892 53.9269C43.4559 53.7604 43.1562 53.6938 42.8566 53.7604C42.5569 53.827 42.3571 54.0268 42.3904 54.1933C42.4237 54.3598 42.7234 54.4264 43.023 54.3598C43.3227 54.2932 43.5225 54.0934 43.4892 53.9269Z" fill="#91D5F5"/>
<path d="M41.2588 54.2932C41.2255 54.1267 40.9258 54.0602 40.6261 54.1267C40.3265 54.1933 40.1267 54.3931 40.16 54.5596C40.1933 54.7261 40.493 54.7927 40.7926 54.7261C41.0923 54.6595 41.2921 54.4597 41.2588 54.2932Z" fill="#91D5F5"/>
<path d="M9.12762 53.2606L12.9234 56.4239C12.9234 56.4239 10.2264 65.8137 5.59823 63.9158C0.97007 62.0178 3.63376 57.2563 6.49723 58.0221L9.12762 53.2273V53.2606Z" fill="#91D5F5"/>
<path d="M6.79686 59.3209L6.39731 58.0223H6.4639L6.73027 57.5562L7.09653 58.7549L9.02771 58.322L8.82793 57.2565H8.79463L7.99552 55.2586L8.26189 54.7592L9.061 56.7237L10.4261 56.3575L11.192 55.0256L11.2918 55.0922L11.5582 55.3252L10.8257 56.5905L12.0244 58.8547C11.9578 59.0212 11.8579 59.1877 11.7913 59.3542L10.4594 56.8569L9.26078 57.1566L9.79352 60.2532L11.425 60.0535C11.3251 60.2199 11.2585 60.3864 11.1587 60.5529L9.76022 60.7194L8.52826 62.5174L9.19419 63.1168C9.0943 63.2167 8.96111 63.3166 8.82793 63.4165L7.92893 62.584L9.36067 60.453L9.061 58.7549L6.76357 59.2876L6.79686 59.3209Z" fill="#71C4E6"/>
<path d="M5.7988 62.4841C5.7988 61.6517 6.13176 60.9858 6.53131 60.9858C6.93086 60.9858 7.26382 61.6517 7.26382 62.4841C7.26382 63.3166 6.93086 63.9825 6.53131 63.9825C6.13176 63.9825 5.7988 63.3166 5.7988 62.4841Z" fill="#58A2CF"/>
<path d="M6.06503 61.5187C6.06503 61.0858 6.49788 60.7195 7.06392 60.7195C7.59666 60.7195 8.06281 61.0858 8.06281 61.5187C8.06281 61.9515 7.62995 62.3178 7.06392 62.3178C6.53118 62.3178 6.06503 61.9515 6.06503 61.5187Z" fill="#58A2CF"/>
<path d="M4.43311 60.6194C4.43311 60.1865 4.86596 59.8202 5.43199 59.8202C5.96473 59.8202 6.43088 60.1865 6.43088 60.6194C6.43088 61.0522 5.99803 61.4185 5.43199 61.4185C4.89925 61.4185 4.43311 61.0522 4.43311 60.6194Z" fill="#58A2CF"/>
<path d="M2.96786 59.3207C2.96786 58.8878 3.40071 58.5216 3.96675 58.5216C4.49948 58.5216 4.96563 58.8878 4.96563 59.3207C4.96563 59.7536 4.53278 60.1198 3.96675 60.1198C3.43401 60.1198 2.96786 59.7536 2.96786 59.3207Z" fill="#58A2CF"/>
<path d="M4.23296 61.4517C4.23296 60.6193 4.56592 59.9534 4.93217 59.9534C5.33173 59.9534 5.66469 60.6193 5.66469 61.4517C5.66469 62.2842 5.33173 62.9501 4.93217 62.9501C4.53262 62.9501 4.23296 62.2842 4.23296 61.4517Z" fill="#58A2CF"/>
<path d="M2.80122 60.1536C2.80122 59.3211 3.13418 58.6552 3.53374 58.6552C3.93329 58.6552 4.26625 59.3211 4.26625 60.1536C4.26625 60.986 3.93329 61.6519 3.53374 61.6519C3.13418 61.6519 2.80122 60.986 2.80122 60.1536Z" fill="#58A2CF"/>
<path d="M6.09756 58.7218C5.29846 58.8883 4.66583 58.7218 4.66583 58.2889C4.66583 57.8894 5.33175 57.3899 6.13086 57.2234C6.92997 57.0569 7.56259 57.2234 7.56259 57.6563C7.56259 58.0558 6.89667 58.5553 6.09756 58.7218Z" fill="#58A2CF"/>
<path d="M5.43255 59.6204C4.79992 59.1209 4.50025 58.455 4.73333 58.122C4.9664 57.789 5.66562 57.9222 6.29825 58.4217C6.93088 58.9211 7.23054 59.5871 6.99747 59.9201C6.7644 60.253 6.06518 60.1198 5.43255 59.6204Z" fill="#58A2CF"/>
<path d="M6.7968 61.0523C6.8301 60.8858 7.09647 60.8192 7.39613 60.8858C7.6958 60.9524 7.86228 61.1522 7.82898 61.3187C7.79569 61.4851 7.52932 61.5517 7.22965 61.4851C6.92999 61.4186 6.76351 61.2188 6.7968 61.0523Z" fill="#91D5F5"/>
<path d="M5.19941 60.1865C5.2327 60.02 5.49907 59.9534 5.79874 60.02C6.09841 60.0866 6.26489 60.2864 6.23159 60.4529C6.1983 60.6194 5.93193 60.686 5.63226 60.6194C5.33259 60.5528 5.16611 60.353 5.19941 60.1865Z" fill="#91D5F5"/>
<path d="M3.70061 58.9879C3.73391 58.8214 4.00028 58.7549 4.29995 58.8214C4.59961 58.888 4.76609 59.0878 4.7328 59.2543C4.6995 59.4208 4.43313 59.4874 4.13346 59.4208C3.8338 59.3542 3.66732 59.1544 3.70061 58.9879Z" fill="#91D5F5"/>
<path d="M5.79793 59.3543C5.83123 59.1878 6.0976 59.1212 6.39726 59.1878C6.69693 59.2544 6.86341 59.4541 6.83011 59.6206C6.79682 59.7871 6.53045 59.8537 6.23078 59.7871C5.93112 59.7205 5.76464 59.5207 5.79793 59.3543Z" fill="#91D5F5"/>
<path d="M18.1845 58.1556H30.5041V56.9902H18.1845V58.1556Z" fill="#91D5F5"/>
<path d="M25.3098 56.724L23.0457 56.7905L24.0446 58.6885L25.3098 56.724Z" fill="#EFDC6C"/>
<defs>
<linearGradient id="paint0_linear" x1="26.6664" y1="9.41232" x2="27.8458" y2="39.0459" gradientUnits="userSpaceOnUse">
<stop stop-color="#ECA472"/>
<stop offset="0.988235" stop-color="#EA9E73"/>
<stop offset="1" stop-color="#EA9E73"/>
</linearGradient>
</defs>
</svg>
