<svg width="49" height="87" viewBox="0 0 49 87" fill="none" xmlns="http://www.w3.org/2000/svg">
<path d="M36.2668 46.4862C40.9283 47.2853 46.6885 52.4464 47.2546 54.7439C47.8206 57.0081 42.3933 63.4345 42.3933 63.4345L42.0604 61.7363C42.0604 61.7363 46.4555 56.9082 45.3234 54.7439C44.1913 52.5796 37.632 50.948 37.632 50.948L36.2668 46.5195V46.4862Z" fill="#CB4940"/>
<path d="M42.8928 61.3037C42.8928 61.3037 47.2879 56.4756 46.1558 54.3113C45.0237 52.1469 38.4644 50.5154 38.4644 50.5154L37.299 46.7528C36.9328 46.6529 36.5998 46.553 36.2668 46.5197L37.632 50.9482C37.632 50.9482 44.1913 52.6131 45.3234 54.7441C46.4555 56.9085 42.0604 61.7366 42.0604 61.7366L42.3933 63.4347C42.3933 63.4347 42.693 63.0684 43.1259 62.5357L42.8928 61.337V61.3037Z" fill="#B23B3A"/>
<path d="M43.5916 57.5076C45.4895 58.3733 46.5883 59.5054 47.3208 61.5698L42.3929 63.4345C42.3929 63.4345 43.4251 67.0639 40.6948 65.4656C37.9646 63.8673 43.5916 57.5076 43.5916 57.5076Z" fill="#FADF6A"/>
<path d="M42.06 65.5657C41.0611 62.6023 43.9246 60.1383 45.4895 58.6732C44.9568 58.2071 44.3574 57.8075 43.5916 57.4745C43.5916 57.4745 37.9646 63.8343 40.6948 65.4326C41.494 65.8987 41.9934 65.8987 42.2598 65.6989C42.1932 65.6656 42.0933 65.6323 42.06 65.5324V65.5657Z" fill="#EAC247"/>
<path d="M24.5132 45.0547L34.4355 44.4554L34.7018 46.2201L28.6419 47.3855L24.5132 45.0547Z" fill="#EFBF50"/>
<path d="M32.5037 81.4817C35.6002 81.0155 37.4315 47.6184 32.0375 46.453C26.6769 45.3209 14.4572 66.5312 11.8268 79.8501C11.8268 79.8501 17.6203 78.485 20.1175 78.485C22.6147 78.485 26.244 82.3807 32.4704 81.4817H32.5037Z" fill="#73302F"/>
<path d="M32.5041 81.4817C32.5041 81.4817 34.2022 80.516 32.5707 78.3517C32.5707 78.3517 35.2344 70.7933 35.3343 68.3293C34.9014 75.6214 34.1689 81.4151 32.5374 81.4817H32.5041Z" fill="#873532"/>
<path d="M31.572 42.4576L28.8084 42.9237L29.6075 47.3523L32.3711 46.8528L31.572 42.4576Z" fill="#FDC778"/>
<path d="M17.6543 85.7105H22.5155C22.5155 85.7105 26.9106 70.7601 30.9062 69.8278C40.7951 67.5302 38.9305 86.1101 38.9305 86.1101H44.2246L40.6286 84.079C40.6286 84.079 43.6586 49.7828 37.0327 46.6862C35.0016 45.7538 28.076 46.1534 26.2114 48.3177C24.3468 50.4821 28.1093 61.8031 26.4445 67.6301C24.7797 73.4239 21.0838 84.2455 21.0838 84.2455L17.6876 85.7438L17.6543 85.7105Z" fill="#CB4940"/>
<path d="M40.8945 66.0652H26.7436V68.1962L41.2607 67.6302L40.8945 66.0652Z" fill="#B23B3A"/>
<path d="M21.8488 84.3786C21.8488 84.3786 26.5103 72.9576 28.1751 67.1306C29.4404 62.7686 27.0763 55.6763 26.6102 51.4809C26.4437 50.0824 25.6113 49.8826 25.6779 51.3144C25.8444 55.6763 27.709 63.2015 26.4437 67.5967C24.7789 73.3905 21.083 84.2121 21.083 84.2121L17.6868 85.7105H18.8522L21.8821 84.4119L21.8488 84.3786Z" fill="#B23B3A"/>
<path d="M39.6958 86.1102C39.829 84.4453 40.7945 70.7934 34.0354 69.8611C40.3284 71.8257 38.8967 86.1102 38.8967 86.1102H39.6958Z" fill="#B23B3A"/>
<path d="M41.7606 64.3001L25.9449 64.4333V67.4634L41.7606 67.3302V64.3001Z" fill="#FADF6A"/>
<path d="M29.6075 64.8999C29.6075 64.7334 29.6075 64.5669 29.6075 64.4337L25.9449 64.467V67.4971L29.774 67.4638C29.6408 66.6314 29.5742 65.7989 29.5742 64.8999H29.6075Z" fill="#EAC247"/>
<path d="M23.4812 59.439C22.7487 58.2736 19.5522 56.9084 18.4202 57.5077C17.8541 58.2403 21.1837 60.1715 23.4812 59.439Z" fill="#D3A83A"/>
<path d="M18.1868 59.6386C18.1868 59.6386 23.2811 47.3186 29.8071 46.6193C29.8071 46.6193 28.9747 49.1166 27.7427 50.1821C23.614 53.7449 19.9847 60.804 19.3521 60.8373C18.7195 60.8705 18.22 59.6718 18.22 59.6718L18.1868 59.6386Z" fill="#CB4940"/>
<path d="M18.6867 60.438C18.8865 60.6378 19.0862 60.8376 19.3526 60.8043C19.9519 60.771 23.0485 54.8441 26.711 51.1148C23.3481 54.0783 20.2516 58.4735 18.6867 60.438Z" fill="#B23B3A"/>
<path d="M18.3862 57.5076C19.152 58.9394 20.5837 59.4721 23.4139 59.4721L18.253 63.268C18.253 63.268 20.2175 64.7997 19.2519 66.3646C18.4861 67.5966 14.7569 67.7298 15.4228 64.9994C16.4217 60.8706 18.3862 57.5409 18.3862 57.5409V57.5076Z" fill="#FADF6A"/>
<path d="M16.6216 65.3327C17.3874 62.2693 18.6527 59.6388 19.252 58.4734C18.919 58.2071 18.6527 57.8741 18.4196 57.4745C18.4196 57.4745 16.4884 60.8042 15.4562 64.9331C15.09 66.4315 16.0556 67.0974 17.121 67.164C16.6549 66.831 16.4218 66.2317 16.6216 65.3327Z" fill="#EAC247"/>
<path d="M28.342 47.0192L34.1688 47.2523L34.5684 46.0203C31.605 46.1868 30.2066 46.2866 28.342 47.0192Z" fill="#FDC778"/>
<path d="M27.2102 47.5184L24.5132 45.0544L32.8372 47.1854L27.2102 47.5184Z" fill="#FADF6A"/>
<path d="M38.8965 86.1101L40.6279 84.079L41.2273 78.5849L38.5969 79.5506L38.8965 86.1101Z" fill="#FADF6A"/>
<path d="M22.5155 85.6438L20.9506 84.0122L22.7486 77.4859L25.0461 79.5504L22.5155 85.6438Z" fill="#FADF6A"/>
<path d="M34.4349 44.4554L35.4671 46.2867L34.1685 47.2523L34.4349 44.4554Z" fill="#FADF6A"/>
<path d="M31.4056 57.3411L33.7031 51.2144L36.8329 56.7418L31.4056 57.3411Z" fill="#FADF6A"/>
<path d="M18.7858 66.0316C18.919 65.8985 18.6859 65.7986 18.4196 65.5322C18.1532 65.2658 17.9867 64.8995 17.8535 65.066C17.7204 65.1992 17.8535 65.5322 18.0866 65.7986C18.353 66.0649 18.6526 66.1648 18.7525 66.0316H18.7858Z" fill="#EAC247"/>
<path d="M35.6674 46.3198C35.6008 46.3198 35.5009 46.2865 35.4344 46.2865C35.5009 46.2865 35.6008 46.3198 35.6674 46.3198ZM24.5132 45.0545L29.1414 44.7881L24.5132 45.0545ZM31.9716 44.6216L31.7718 43.4229L31.9716 44.6216L34.4355 44.4885L31.9716 44.6216Z" fill="#B3A6A1"/>
<path d="M39.0963 49.2833C38.6301 48.1845 38.0308 47.3521 37.3316 46.8859L37.2983 46.7195C38.5636 47.0857 39.8288 47.7184 41.0608 48.4842C40.4947 48.7839 39.8621 49.0503 39.0963 49.2833ZM36.7656 46.5863H36.7323H36.7656Z" fill="#913834"/>
<path d="M37.3649 46.8859C37.265 46.8194 37.1318 46.7528 37.0319 46.6862C36.932 46.6529 36.8322 46.6196 36.7323 46.5863H36.7656H36.7989C36.9653 46.6196 37.1318 46.6862 37.2983 46.7195L37.3316 46.8859H37.3649Z" fill="#7E3431"/>
<path d="M29.4077 46.3198L24.5132 45.0545L29.1414 44.7881L29.4077 46.3198ZM32.2379 46.1866L31.9715 44.6216L34.4355 44.4884L34.3023 46.0534C33.5032 46.0867 32.8372 46.1533 32.2379 46.1866Z" fill="#A9803C"/>
<path d="M30.0734 46.4863L29.4074 46.3198L29.1411 44.7881L28.908 43.5228C29.1078 43.5228 29.3075 43.5228 29.474 43.5228C30.2065 43.5228 30.9724 43.4895 31.7382 43.4229L31.9379 44.6216L32.2043 46.1866C31.4052 46.2532 30.706 46.3531 30.0734 46.4863Z" fill="#B48350"/>
<path d="M29.9732 50.4819C29.1075 50.4819 28.2418 50.4486 27.4427 50.4153C27.5426 50.3487 27.6425 50.2488 27.7091 50.1822C28.4749 49.5163 29.1075 48.2177 29.4738 47.4186L32.6702 47.2188L34.1353 47.2854L35.4005 46.3531C35.4671 46.3531 35.567 46.3864 35.6336 46.3864C36.0331 46.4529 36.3661 46.5195 36.6658 46.6194H36.6991C36.799 46.6527 36.8988 46.686 36.9987 46.7193C37.1319 46.7859 37.2318 46.8525 37.3317 46.9191C38.0309 47.3853 38.5969 48.2177 39.0964 49.3165C36.7657 50.0491 33.5359 50.5152 29.9732 50.5152V50.4819Z" fill="#913834"/>
<path d="M27.4435 50.382C26.2781 50.3154 25.146 50.1822 24.1139 50.0157C25.0462 48.9835 26.0783 48.0845 27.1771 47.4851L29.4413 47.352C29.1083 48.1844 28.4757 49.4497 27.6766 50.1156C27.5767 50.1822 27.4768 50.2821 27.4102 50.3487L27.4435 50.382Z" fill="#913834"/>
<path d="M34.1692 47.252L32.7041 47.1854H32.8373L30.107 46.4861C30.7729 46.353 31.4389 46.2531 32.238 46.1865C32.8373 46.1199 33.5032 46.0866 34.3023 46.0533L34.2024 47.252H34.1692Z" fill="#B48350"/>
<path d="M27.2102 47.5186L24.5132 45.0879L29.4077 46.3532L30.0737 46.5197L32.804 47.2189H32.6708L29.4743 47.4187L27.2102 47.5519V47.5186Z" fill="#B19149"/>
<path d="M34.1693 47.2521L34.2692 46.0534L34.4024 44.4884L35.4345 46.2865L35.4013 46.3198L34.136 47.2521H34.1693Z" fill="#B19149"/>
<path d="M40.2288 19.8486C42.9923 20.0484 46.7548 19.5823 48.1533 15.1537C48.1533 15.1537 42.8592 16.5855 43.3919 11.1581L40.2288 19.8486Z" fill="#533832"/>
<path d="M8.39744 27.3404L2.50402 23.7443L0.539551 29.2717L7.8647 28.4392L8.39744 27.3404Z" fill="#B03B39"/>
<path d="M7.59837 30.0374L1.40529 33.1341L5.10116 37.6958L8.2643 31.0697L7.59837 30.0374Z" fill="#B03B39"/>
<path d="M24.6799 42.3574C19.4524 42.6904 12.0606 41.1254 11.8608 38.1619C11.8608 38.1619 7.53235 38.8279 6.60006 35.5315C5.66777 32.235 7.69883 30.9364 7.69883 30.9364L6.79984 26.1749C6.79984 26.1749 5.03514 25.9418 5.53458 27.4069C6.03402 28.872 -1.05806 24.3769 5.80095 21.6465C5.80095 21.6465 4.30262 17.6175 7.0662 16.6186C7.0662 16.6186 -0.425429 14.987 1.67223 10.8582C3.76989 6.72933 8.26487 8.06122 8.26487 8.06122C8.26487 8.06122 6.73324 4.69819 11.5612 3.69928C16.3891 2.70036 16.7221 5.76371 16.7221 5.76371C16.7221 5.76371 17.2881 2.46728 22.3491 2.86684C22.3491 2.86684 21.6166 0.00328106 25.1127 0.302956C28.6088 0.635929 30.1737 2.53387 30.1737 2.53387C30.1737 2.53387 35.7342 4.16544 34.6354 1.13539C34.6354 1.13539 51.8162 -2.82699 42.7264 18.4167L24.6799 42.3574Z" fill="#533832"/>
<path d="M28.3749 28.8052C19.2185 28.8052 11.0942 25.9084 5.73352 21.4132C5.76681 21.5464 5.80011 21.613 5.80011 21.613C-1.0589 24.3434 6.03318 28.8385 5.53374 27.3734C5.0343 25.8751 6.79899 26.1414 6.79899 26.1414L7.69799 30.903C7.69799 30.903 5.66692 32.2348 6.59922 35.498C7.53151 38.7944 11.86 38.1285 11.86 38.1285C12.0931 41.0919 19.4848 42.6569 24.679 42.3239L35.3338 28.2059C33.1029 28.5721 30.7722 28.7719 28.3749 28.7719V28.8052Z" fill="#46322F"/>
<path d="M20.4843 41.7246C28.3755 45.2874 43.0591 44.4217 45.1567 31.9352C46.7217 22.612 37.6318 -0.562882 17.421 18.3833C10.9949 24.4101 17.9538 40.5925 20.4843 41.7579V41.7246Z" fill="#FDC778"/>
<path d="M45.2565 30.2041L15.7562 30.5371V31.7025L45.19 31.7691L45.2565 30.2041Z" fill="#DFA257"/>
<path fill-rule="evenodd" clip-rule="evenodd" d="M45.1895 31.7691V31.7358V31.7025V31.6692L45.2228 31.6359L45.1895 31.6692V31.7025V31.7358V31.7691Z" fill="url(#paint0_linear)"/>
<path d="M6.50018 27.4401L44.9572 23.5777L45.8562 31.003L7.46577 31.3026L6.50018 27.4401Z" fill="#CB4940"/>
<path d="M15.3237 26.5413L6.50018 27.4403L7.46577 31.3028L16.4557 31.2362C15.8231 29.7379 15.4568 28.1729 15.3237 26.5413Z" fill="#B03B39"/>
<path d="M16.722 31.6025C14.8907 30.6702 12.7931 29.8044 12.0273 32.3683C11.2282 34.9322 14.8907 36.4639 16.9884 35.798C19.0861 35.0987 16.722 31.6025 16.722 31.6025Z" fill="#FDC778"/>
<path d="M21.8824 30.0707C22.4485 28.5391 24.08 24.0772 31.3053 29.4048L21.8824 30.0707Z" fill="#FEEDDF"/>
<path d="M43.3923 28.9389C42.4933 27.607 39.9295 23.7778 35.1349 29.0387L43.3923 28.9389Z" fill="#FEEDDF"/>
<path d="M41.095 27.6066C41.0617 26.9073 40.4956 26.3413 39.7631 26.3746C39.0639 26.4079 38.4979 26.9739 38.5312 27.7065C38.5645 28.4057 39.1305 28.9717 39.863 28.9385C40.5622 28.9052 41.1283 28.3391 41.095 27.6066Z" fill="#483B34"/>
<path d="M27.2768 28.3061C27.2435 27.5403 26.6109 26.9076 25.8451 26.9409C25.0792 26.9742 24.4466 27.6069 24.4799 28.3727C24.5132 29.1385 25.1458 29.7712 25.9116 29.7379C26.6775 29.7046 27.3101 29.072 27.2768 28.3061Z" fill="#483B34"/>
<path d="M26.8771 27.9729C26.8771 27.6732 26.6107 27.4401 26.311 27.4401C26.0114 27.4401 25.7783 27.7065 25.7783 28.0062C25.7783 28.3059 26.0447 28.5389 26.3443 28.5389C26.644 28.5389 26.8771 28.2726 26.8771 27.9729Z" fill="#765B4D"/>
<path d="M40.8283 27.3736C40.8283 27.1072 40.5952 26.8741 40.3288 26.8741C40.0625 26.8741 39.8294 27.1072 39.8294 27.3736C39.8294 27.64 40.0625 27.873 40.3288 27.873C40.5952 27.873 40.8283 27.64 40.8283 27.3736Z" fill="#765B4D"/>
<path d="M35.3339 31.4026C35.2673 30.8366 34.335 30.5036 33.2695 30.6368C32.204 30.77 31.4049 31.336 31.4715 31.9021C31.5381 32.4681 32.4704 32.8011 33.5359 32.6679C34.6014 32.5347 35.4005 31.9687 35.3339 31.4026Z" fill="#DFA257"/>
<path d="M35.3015 31.1363C35.2349 30.6701 34.4691 30.3705 33.5701 30.5036C32.6711 30.6035 32.0051 31.103 32.0717 31.5692C32.1383 32.0353 32.9041 32.335 33.8031 32.2018C34.7021 32.1019 35.368 31.6025 35.3015 31.1363Z" fill="#FDC778"/>
<path d="M21.3498 25.4424C22.2488 25.0095 26.3442 24.5766 27.2432 24.1105C28.1422 23.611 27.0101 22.5122 27.0101 22.5122L21.3165 25.4424H21.3498Z" fill="#533832"/>
<path d="M42.593 22.679C41.7606 22.4459 38.2645 22.912 37.3988 22.6124C36.5331 22.3127 37.1324 21.0474 37.1324 21.0474L42.593 22.679Z" fill="#533832"/>
<path d="M16.0224 32.235C14.8571 31.6356 13.5585 31.1029 13.0591 32.7344C12.5596 34.3327 14.8571 35.2983 16.1889 34.8988C17.4874 34.4659 16.0224 32.2683 16.0224 32.2683V32.235Z" fill="#DFA257"/>
<path d="M16.6555 33.2675C16.156 33.0011 15.5567 32.7681 15.3569 33.4673C15.1239 34.1665 16.156 34.5994 16.7554 34.4329C17.3214 34.2331 16.6888 33.2675 16.6888 33.2675H16.6555Z" fill="#FDC778"/>
<path d="M29.2078 34.1995L36.4996 34.0996C36.4996 34.0996 33.5696 42.1243 29.2078 34.1995Z" fill="#4C3C32"/>
<path d="M29.9739 34.499L31.0061 35.9974L34.8018 36.064L36.167 34.2993L29.9739 34.499Z" fill="#FEEDDF"/>
<path d="M29.7401 34.2994C29.7401 34.1662 29.5736 34.033 29.3739 34.033C29.1741 34.033 29.0076 34.1329 29.0076 34.2661C29.0076 34.3993 29.1741 34.5325 29.3739 34.5325C29.5736 34.5325 29.7401 34.4326 29.7401 34.2994Z" fill="#4C3C32"/>
<path d="M36.9994 34.2329C36.9994 34.0997 36.8329 33.9665 36.6331 33.9665C36.4333 33.9665 36.2668 34.0664 36.2668 34.1996C36.2668 34.3328 36.4333 34.466 36.6331 34.466C36.8329 34.466 36.9994 34.3661 36.9994 34.2329Z" fill="#4C3C32"/>
<path d="M26.1115 33.5336C26.1115 33.0008 25.2791 32.6013 24.2469 32.6013C23.2148 32.6013 22.3824 33.0341 22.3824 33.5336C22.3824 34.0663 23.2148 34.4659 24.2469 34.4659C25.2791 34.4659 26.1115 34.033 26.1115 33.5336Z" fill="#EEAD64"/>
<path d="M42.5262 33.434C42.5262 32.9012 41.6938 32.5016 40.6616 32.5016C39.6294 32.5016 38.797 32.9345 38.797 33.434C38.797 33.9667 39.6294 34.3663 40.6616 34.3663C41.6938 34.3663 42.5262 33.9334 42.5262 33.434Z" fill="#EEAD64"/>
<path d="M32.0377 56.8417L33.8024 52.1468L36.1664 56.3755L32.0377 56.8417Z" fill="#CB4940"/>
<path d="M36.3663 65.7655C36.3663 65.1329 35.767 64.6334 35.0677 64.6334C34.3352 64.6334 33.7692 65.1329 33.7692 65.7655C33.7692 66.3982 34.3685 66.8976 35.0677 66.8976C35.8003 66.8976 36.3663 66.3982 36.3663 65.7655Z" fill="#CB4940"/>
<path d="M36.0006 65.7654C36.0006 65.3325 35.5677 64.9662 35.0683 64.9662C34.5689 64.9662 34.136 65.3325 34.136 65.7654C34.136 66.1982 34.5689 66.5645 35.0683 66.5645C35.5677 66.5645 36.0006 66.1982 36.0006 65.7654Z" fill="#FADF6A"/>
<path d="M24.1464 16.1526C26.0776 17.1515 33.1696 13.4555 30.4727 10.2257L25.8445 10.6253C25.8445 10.6253 27.7757 14.854 24.1464 16.1859V16.1526Z" fill="#533832"/>
<defs>
<linearGradient id="paint0_linear" x1="45.2079" y1="31.621" x2="45.1919" y2="31.7671" gradientUnits="userSpaceOnUse">
<stop stop-color="#D88541"/>
<stop offset="1" stop-color="#CD7E44"/>
</linearGradient>
</defs>
</svg>
