<svg width="56" height="82" viewBox="0 0 56 82" fill="none" xmlns="http://www.w3.org/2000/svg">
<path d="M16.0441 68.9231C16.0441 68.9231 18.7078 45.948 20.9387 42.8846C23.1695 39.788 33.791 41.6526 34.2904 42.2187C38.6189 47.0801 42.6145 68.7899 42.6145 68.7899C37.4536 71.9864 32.6922 70.4548 28.2638 68.9564C23.902 67.458 19.8732 65.9596 16.0108 68.9564L16.0441 68.9231Z" fill="#76CBC7"/>
<path d="M16.4763 68.9233C16.4763 68.9233 20.272 46.2146 22.4363 43.1179C24.6005 40.0213 32.858 42.1856 33.3574 42.7849C37.5527 47.6463 42.1476 69.1897 42.1476 69.1897C37.1532 72.3862 32.5583 70.7546 28.2964 69.1231C24.1011 67.5248 20.2054 65.9265 16.4763 68.9233Z" fill="#4B8983"/>
<path d="M33.9243 42.8849C33.9243 42.8849 42.6812 47.9128 49.6401 42.5186L50.7388 43.7173C50.7388 43.7173 45.4114 50.6098 33.9576 46.9139L33.9243 42.8849Z" fill="#564047"/>
<path d="M49.6726 42.5516C49.2065 43.1177 44.2121 48.8448 33.9568 46.0145V46.9136C45.4107 50.6096 50.7381 43.717 50.7381 43.717L49.6726 42.5516Z" fill="#47363C"/>
<path d="M45.4778 42.2857L48.541 49.2448L53.602 41.2868L52.8029 40.3211L45.4778 42.2857Z" fill="#72AFAD"/>
<path d="M46.9428 45.5819C48.4411 45.1157 49.9727 44.1501 51.1714 42.685C51.804 41.9525 52.2702 41.1533 52.6364 40.3542L45.4778 42.2854L46.9095 45.5819H46.9428Z" fill="#76CBC7"/>
<path d="M52.4037 40.7205C51.9708 39.8547 52.2372 37.8236 53.3027 37.5905C54.3348 37.3574 55.1007 38.3231 55.2338 39.0889C55.3337 39.8547 53.4691 42.7849 52.4037 40.7538V40.7205Z" fill="#564047"/>
<path d="M22.337 60.3657C23.4024 62.2969 33.8907 61.4645 35.2892 60.1326C36.6876 58.834 38.2192 44.2831 32.0927 42.252C30.1616 41.6193 22.7032 41.353 22.1705 42.818C21.6377 44.2831 20.5723 57.1692 22.337 60.3324V60.3657Z" fill="#564047"/>
<path d="M16.1769 78.08C14.9782 72.6526 15.9105 67.6247 16.8428 65.6268C17.7751 63.629 22.1369 59.2671 22.0037 56.3702L34.9559 55.9706C34.9559 58.2349 40.3832 60.8653 43.1467 65.3605C45.9103 69.8556 45.5441 77.4141 45.5441 77.4141H44.4786C44.4786 77.4141 41.715 66.9587 39.5841 65.6268C37.4531 64.295 34.2567 63.3959 29.5286 64.0286C24.6341 64.6945 16.9427 64.6945 17.209 77.9135L16.1436 78.0467L16.1769 78.08Z" fill="#564047"/>
<path d="M38.652 64.8276C36.521 63.4957 33.3246 62.5967 28.5966 63.2293C23.702 63.8952 16.0106 63.8952 16.277 77.1143L15.9773 77.1476C16.0439 77.4472 16.0772 77.7469 16.1438 78.0466L17.2093 77.9134C16.9429 64.6944 24.6343 64.6944 29.5288 64.0284C34.0571 63.4291 37.187 64.2282 39.3179 65.4602C39.0848 65.1605 38.8851 64.9608 38.6853 64.8276H38.652Z" fill="#47363C"/>
<path d="M43.1469 65.3605C41.2158 62.1972 37.9527 59.9663 36.188 58.135C35.4222 57.3358 35.1226 57.2026 35.8551 57.9019C37.6864 59.6333 40.4832 61.7311 42.2146 64.5613C44.9782 69.0565 44.612 76.6149 44.612 76.6149H44.2457C44.3789 77.1144 44.4788 77.4141 44.4788 77.4141H45.5443C45.5443 77.4141 45.9438 69.8556 43.1469 65.3605Z" fill="#47363C"/>
<path d="M20.6718 59.3336L27.8971 64.6279L31.3932 64.3282L37.7861 59.2004L36.5541 57.0361L21.1047 57.6355L20.6718 59.3336Z" fill="#76CBC7"/>
<path d="M30.7607 60.9653C28.2302 61.6978 25.7996 61.9309 23.8351 61.6645L27.8639 64.628L31.36 64.3283L37.7529 59.1672L36.9538 57.7687C35.4554 59.034 33.2912 60.1994 30.7274 60.9653H30.7607Z" fill="#61B7B1"/>
<path d="M23.6022 42.4187C23.6022 42.4187 14.4791 47.4133 7.42031 41.9526L6.25494 43.1513C6.25494 43.1513 11.549 50.1104 23.4358 46.5143L23.6022 42.452V42.4187Z" fill="#564047"/>
<path d="M11.549 70.1218C11.549 70.1218 16.044 74.8833 15.7776 78.5793C15.711 79.3785 12.4813 81.1099 12.4813 81.1099H18.1749C18.1749 81.1099 17.1094 72.2528 20.6721 70.6546L11.549 70.1218Z" fill="#76CBC7"/>
<path d="M20.6723 70.6544L16.1774 70.3881C16.9099 71.6534 17.3427 73.2516 17.3427 74.9831C17.3427 77.5137 16.4104 79.7113 15.012 81.1098H18.1418C18.1418 81.1098 17.0764 72.2527 20.639 70.6544H20.6723Z" fill="#72AFAD"/>
<path d="M48.7742 70.9211C48.7742 70.9211 45.1782 75.3496 45.8108 78.7792C45.944 79.5117 49.1071 81.11 49.1071 81.11H43.8463C43.8463 81.11 43.9129 72.8856 40.4834 71.4205L48.7742 70.9211Z" fill="#76CBC7"/>
<path d="M49.1404 81.11C49.1404 81.11 45.9773 79.5117 45.8441 78.7792C45.2115 75.3496 48.8074 70.9211 48.8074 70.9211L45.1116 71.1541C45.3113 72.153 45.4445 73.2519 45.4445 74.4173C45.4445 77.081 44.8452 79.4784 43.9129 81.0767V81.1433H49.1737L49.1404 81.11Z" fill="#72AFAD"/>
<path d="M10.6832 41.6197L6.55445 48.2458L2.22595 39.8216L3.22484 38.9559L10.6832 41.6197Z" fill="#72AFAD"/>
<path d="M3.22508 38.9557L2.25949 39.8214L2.45927 40.221C3.65793 41.12 5.25614 41.9191 7.05413 42.4186C8.01972 42.685 8.95201 42.8848 9.85101 42.9847L10.7167 41.5862L3.22508 38.9224V38.9557Z" fill="#76CBC7"/>
<path d="M35.2224 42.3521C35.2224 41.3865 32.2258 40.6872 28.5299 40.7538C24.834 40.8204 21.8374 41.6529 21.8374 42.6185C21.8374 43.5841 24.834 44.2833 28.5299 44.2168C32.2258 44.1502 35.2224 43.3177 35.2224 42.3521Z" fill="#76CBC7"/>
<path d="M29.9278 37.424L26.1986 37.6238L26.4317 42.0857C27.2308 42.8515 29.5616 42.8848 30.1609 41.8859L29.9278 37.424Z" fill="#F8BE84"/>
<path d="M25.3339 4.35997L26.366 1.19673C26.4992 0.763869 26.8988 0.464193 27.3316 0.464193C27.7645 0.430896 28.1973 0.697274 28.3638 1.13014L29.8622 4.59305L25.3339 4.39327V4.35997Z" fill="#5F474F"/>
<path d="M31.4927 4.79279L33.1242 1.89593C33.3573 1.49636 33.7901 1.29658 34.223 1.36318C34.6559 1.42977 35.0221 1.76274 35.122 2.19561L35.9211 5.85831L31.4927 4.79279Z" fill="#5F474F"/>
<path d="M20.0064 6.79033L19.5735 3.4939C19.5069 3.06103 19.74 2.62817 20.1395 2.39509C20.5391 2.19531 21.0053 2.2286 21.3715 2.52828L24.2017 4.99228L20.0064 6.79033Z" fill="#5F474F"/>
<path d="M23.2361 57.9016L21.7378 57.8683V58.6342L23.2361 58.6675V57.9016Z" fill="#FBF282"/>
<path d="M25.6992 57.8018L24.2009 57.8684L24.2342 58.6342L25.7325 58.5676L25.6992 57.8018Z" fill="#FBF282"/>
<path d="M28.2965 57.6687L26.7982 57.7353L26.8315 58.5011L28.3298 58.4345L28.2965 57.6687Z" fill="#FBF282"/>
<path d="M30.9272 57.5356L29.4289 57.6021L29.4622 58.368L30.9605 58.3014L30.9272 57.5356Z" fill="#FBF282"/>
<path d="M33.558 57.469L32.0597 57.5689L32.093 58.3347L33.5913 58.2348L33.558 57.469Z" fill="#FBF282"/>
<path d="M36.2876 57.2693L34.8226 57.3692L34.8559 58.135L36.3542 58.0352L36.2876 57.2693Z" fill="#FBF282"/>
<path d="M30.5276 45.8151L27.2646 48.4455L29.2957 49.3113L26.632 51.5089L28.4966 52.3746L25.6997 55.0717L30.3611 52.3746L28.0637 51.409L32.592 48.9783L29.2291 48.0793L30.5276 45.8151Z" fill="#FBF282"/>
<path d="M36.6204 44.0503C36.0876 43.8838 35.6215 43.684 35.2219 43.5175C35.6215 43.684 36.0876 43.8838 36.6204 44.0503Z" fill="#B3A6A1"/>
<path d="M35.2226 43.5175C34.9229 43.3843 34.6565 43.2844 34.4567 43.1846C34.5899 43.118 34.7231 43.0181 34.8563 42.9515C34.9895 43.118 35.0894 43.3177 35.2226 43.5175Z" fill="#59887F"/>
<path d="M35.1893 45.3157C34.8563 44.5832 34.4235 43.9505 33.8907 43.4178C34.0905 43.3512 34.2903 43.2513 34.4568 43.1847C34.6566 43.2846 34.9229 43.4178 35.2226 43.5177C35.6221 43.6842 36.0883 43.8839 36.621 44.0504C36.2548 44.5166 35.7886 44.9494 35.1893 45.3157Z" fill="#423436"/>
<path d="M19.04 44.0502C19.5727 43.917 20.0722 43.7838 20.505 43.6506C20.0389 43.7838 19.5394 43.917 19.04 44.0502Z" fill="#B3A6A1"/>
<path d="M20.505 43.6507C20.6382 43.3177 20.7714 43.0513 20.9046 42.8849C21.3707 42.2522 22.2031 41.8527 23.202 41.5863C22.303 41.8859 21.7703 42.2855 21.7703 42.6851C21.7703 42.8516 21.8701 43.0181 22.0366 43.1512C21.6038 43.3177 21.071 43.5175 20.4717 43.7173L20.505 43.6507Z" fill="#59887F"/>
<path d="M28.3638 46.9802C26.7323 46.9802 25.0342 46.7471 23.4693 46.281L23.5692 43.7504C24.7012 44.0501 26.2661 44.2166 28.0308 44.2166C28.1973 44.2166 28.3638 44.2166 28.5303 44.2166C30.7278 44.1833 32.6923 43.8503 33.9243 43.4174C34.4237 43.9502 34.8566 44.5828 35.2228 45.3154C33.8577 46.1811 31.9598 46.7471 29.8954 46.9136L30.5281 45.8148L29.0963 46.9802C28.8632 46.9802 28.6302 46.9802 28.3638 46.9802Z" fill="#423436"/>
<path d="M23.4684 46.2811C21.8368 45.815 20.3385 45.0491 19.04 44.0502C19.5727 43.917 20.0722 43.7838 20.505 43.6506C21.1043 43.4509 21.6371 43.2844 22.0699 43.0846C22.3696 43.3177 22.869 43.5508 23.5349 43.7172L23.4351 46.2478L23.4684 46.2811Z" fill="#423436"/>
<path d="M28.0304 44.2169C26.2658 44.2169 24.7008 44.0504 23.5688 43.7507C22.9028 43.5843 22.4034 43.3512 22.1037 43.1181C21.9373 42.9516 21.8374 42.8184 21.8374 42.6519C21.8374 42.2524 22.3701 41.8861 23.2691 41.5531C23.2691 41.5531 23.2691 41.5531 23.3024 41.5531C24.1015 41.2867 25.167 41.0537 26.3989 40.9205L26.4655 42.0859C26.8318 42.4522 27.5643 42.6519 28.2968 42.6519C29.0959 42.6519 29.895 42.4189 30.228 41.8861L30.1614 40.8206C33.0249 40.9538 35.1558 41.5531 35.289 42.319C35.289 42.319 35.289 42.319 35.289 42.3523C35.289 42.552 35.1558 42.7185 34.9227 42.9183C34.8229 42.9849 34.6897 43.0848 34.5232 43.1514C34.3567 43.2513 34.1902 43.3179 33.9572 43.3845C32.7252 43.8173 30.794 44.1503 28.5632 44.1836C28.3967 44.1836 28.2302 44.1836 28.0637 44.1836L28.0304 44.2169Z" fill="#59887F"/>
<path d="M28.2639 42.6185C27.5314 42.6185 26.7989 42.4187 26.4326 42.0524L26.366 40.887L26.3327 40.2544C26.7656 40.2877 27.1984 40.2877 27.6313 40.2877C27.7645 40.2877 27.8977 40.2877 28.0308 40.2877C28.7634 40.2877 29.4293 40.2211 30.0952 40.1545L30.1285 40.7538L30.1951 41.8193C29.8621 42.3521 29.0963 42.5852 28.2639 42.5852V42.6185Z" fill="#B07E59"/>
<path d="M29.0956 46.9805L30.5274 45.8151L29.8947 46.9139C29.6284 46.9472 29.362 46.9472 29.0956 46.9805Z" fill="#B59F55"/>
<path d="M14.3786 39.6217C12.2144 34.9601 5.08898 15.2814 17.9746 8.22241H40.3163C40.3163 8.22241 54.1009 23.6723 40.5161 39.6217H14.3786Z" fill="#564047"/>
<path d="M15.5778 39.6217C13.6134 34.9601 7.08732 15.2814 18.8741 8.22241H39.318C39.318 8.22241 51.9372 23.6723 39.5177 39.6217H15.6111H15.5778Z" fill="#47373C"/>
<path d="M11.2492 23.206C11.8485 32.2629 17.2092 40.5206 28.0304 40.3208C41.0492 40.0877 44.9116 30.265 45.1114 23.3059C45.2778 17.0127 41.249 4.62615 28.0304 4.75934C19.8396 4.85923 10.5167 11.8184 11.2492 23.1727V23.206Z" fill="#F8BE84"/>
<path d="M44.3792 28.8999H12.1485L13.5136 31.8301H42.9474L44.3792 28.8999Z" fill="#EEA475"/>
<path fill-rule="evenodd" clip-rule="evenodd" d="M44.1455 28.9001C44.7448 26.9688 45.0112 25.0376 45.0778 23.3061C45.2443 17.7788 42.1144 7.48992 32.3919 5.22571C41.9146 7.45662 45.1111 17.2793 45.1111 22.9066C45.1111 23.0397 45.1111 23.1729 45.1111 23.3061C45.0445 25.0709 44.7781 27.0021 44.1788 28.9001H44.1455Z" fill="url(#paint0_linear)"/>
<path fill-rule="evenodd" clip-rule="evenodd" d="M42.9466 31.8301C43.0798 31.5637 43.213 31.3306 43.3128 31.0642L43.3461 30.9643L43.4127 30.8311C43.446 30.7645 43.4793 30.698 43.4793 30.6647C43.7124 30.0986 43.9455 29.4993 44.1119 28.8999C43.9122 29.4993 43.7124 30.0653 43.4793 30.6647C43.446 30.7313 43.4127 30.7978 43.4127 30.8311L43.3461 30.9643L43.3128 31.0642C43.1797 31.3306 43.0798 31.5637 42.9466 31.8301Z" fill="url(#paint1_linear)"/>
<path d="M11.8481 31.0975H44.5782C45.5105 28.6335 46.4761 26.1029 46.5427 23.872C46.7425 17.0127 42.3474 3.52736 27.9967 3.69385C19.1067 3.79374 8.98462 11.3855 9.78373 23.7721C9.95021 26.336 10.9491 28.8333 11.8481 31.1308V31.0975Z" fill="#564047"/>
<path d="M10.3838 26.9019C14.8788 18.511 23.9353 12.7838 34.3903 12.7838C38.0196 12.7838 41.4824 13.4831 44.6456 14.7484C42.1816 9.02124 37.0873 3.59379 27.9642 3.69368C19.0741 3.79357 8.95209 11.3853 9.75119 23.7719C9.81779 24.8374 10.0509 25.9029 10.3172 26.9352L10.3838 26.9019Z" fill="#5F474F"/>
<path d="M11.1157 24.4049C10.9159 12.318 20.0723 5.05922 28.4962 4.35998H28.4629C20.1389 4.0603 10.2833 10.7198 10.483 22.3405C10.5163 23.3394 10.6495 24.3383 10.8826 25.304C10.9492 25.1708 11.0491 25.0376 11.1157 24.9377C11.1157 24.7712 11.0824 24.5714 11.0824 24.4049H11.1157Z" fill="#6E555F"/>
<path d="M10.6164 25.5701C9.1181 24.4713 7.28682 27.4015 8.2857 28.6002C9.28458 29.7989 11.7152 30.7312 11.7152 30.7312L10.6164 25.5701Z" fill="#F8BE84"/>
<path d="M45.711 25.5701C47.1427 24.4713 48.8741 27.4015 47.9086 28.6002C46.943 29.7989 44.6455 30.7312 44.6455 30.7312L45.711 25.5701Z" fill="#F8BE84"/>
<path d="M45.9101 26.1693C46.9755 25.3369 48.2741 27.5345 47.5416 28.4336C46.8424 29.3326 45.111 30.0318 45.111 30.0318L45.9101 26.1693Z" fill="#EEA472"/>
<path d="M45.5446 27.0687C46.1772 26.5692 46.943 27.8678 46.5102 28.4006C46.0773 28.9333 45.0784 29.3329 45.0784 29.3329L45.5446 27.0687Z" fill="#F8BE84"/>
<path d="M10.317 26.4026C9.28485 25.7034 7.98629 27.4348 8.65222 28.1674C9.31814 28.8999 10.983 29.4992 10.983 29.4992L10.317 26.3693V26.4026Z" fill="#EEA472"/>
<path d="M10.6499 27.1018C10.0506 26.7022 9.28475 27.7011 9.6843 28.134C10.0839 28.5669 11.0494 28.9331 11.0494 28.9331L10.6499 27.1018Z" fill="#F8BE84"/>
<path d="M48.974 70.888L40.3503 71.2876V72.2199L48.974 71.787V70.888Z" fill="#FBF282"/>
<path d="M20.7051 70.5217L11.2157 70.0222V70.9212L20.7051 71.454V70.5217Z" fill="#FBF282"/>
<path d="M24.0017 33.9279H31.7597C31.7597 33.9279 28.5633 40.8538 24.0017 33.9279Z" fill="#4C3C32"/>
<path d="M24.834 34.1611L25.9993 35.9259H29.7618L31.0603 34.1611H24.834Z" fill="#FEEDDF"/>
<path d="M29.9948 31.4971C29.9948 30.8977 29.1957 30.3983 28.1968 30.3983C27.1979 30.3983 26.3988 30.8977 26.3988 31.4971C26.3988 32.0964 27.1979 32.5959 28.1968 32.5959C29.1957 32.5959 29.9948 32.0964 29.9948 31.4971Z" fill="#EFA766"/>
<path d="M29.7287 31.231C29.7287 30.7648 29.096 30.3652 28.2969 30.3652C27.4978 30.3652 26.8652 30.7648 26.8652 31.231C26.8652 31.6971 27.4978 32.0967 28.2969 32.0967C29.096 32.0967 29.7287 31.6971 29.7287 31.231Z" fill="#F8BE84"/>
<path d="M18.0417 29.4993C18.0417 29.4993 21.3713 28.2673 25.0672 29.0332C25.0672 29.0332 24.2348 23.7056 20.9718 24.1052C17.7421 24.5047 17.7421 28.2673 18.0417 29.4993Z" fill="#FEEDDF"/>
<path d="M37.6527 29.4993C37.6527 29.4993 34.5562 28.2673 31.0934 29.0332C31.0934 29.0332 31.8925 23.7056 34.9224 24.1052C37.9524 24.5047 37.9524 28.2673 37.6527 29.4993Z" fill="#FEEDDF"/>
<path d="M34.3235 21.6077C33.5244 22.3402 38.2192 23.6721 38.6853 23.4057C39.1181 23.1394 36.0882 19.9761 34.3235 21.6077Z" fill="#6E555F"/>
<path d="M22.6694 21.3747C22.9691 20.3425 18.2743 21.7076 18.0412 22.1405C17.8082 22.6067 22.0368 23.7055 22.6694 21.3747Z" fill="#6E555F"/>
<path d="M35.0894 27.2016C35.0894 26.4358 34.59 25.8032 33.9907 25.8032C33.3913 25.8032 32.8919 26.4358 32.8919 27.2016C32.8919 27.9675 33.3913 28.6001 33.9907 28.6001C34.59 28.6001 35.0894 27.9675 35.0894 27.2016Z" fill="#89ACC2"/>
<path d="M34.5227 26.8353C34.5227 26.5689 34.3562 26.3691 34.1564 26.3691C33.9567 26.3691 33.7902 26.5689 33.7902 26.8353C33.7902 27.1017 33.9567 27.3015 34.1564 27.3015C34.3562 27.3015 34.5227 27.1017 34.5227 26.8353Z" fill="#C1DFEE"/>
<path d="M22.9365 27.2016C22.9365 26.4358 22.437 25.8032 21.8377 25.8032C21.2384 25.8032 20.7389 26.4358 20.7389 27.2016C20.7389 27.9675 21.2384 28.6001 21.8377 28.6001C22.437 28.6001 22.9365 27.9675 22.9365 27.2016Z" fill="#89ACC2"/>
<path d="M22.5028 26.8353C22.5028 26.5689 22.3364 26.3691 22.1366 26.3691C21.9368 26.3691 21.7703 26.5689 21.7703 26.8353C21.7703 27.1017 21.9368 27.3015 22.1366 27.3015C22.3364 27.3015 22.5028 27.1017 22.5028 26.8353Z" fill="#C1DFEE"/>
<path d="M53.0361 38.5229C52.7698 38.0567 52.3369 37.7571 52.0706 37.8902C51.8375 38.0234 51.8375 38.4896 52.1039 38.9891C52.3702 39.4552 52.8031 39.7549 53.0694 39.6217C53.3025 39.4885 53.3025 39.0223 53.0361 38.5229Z" fill="#F8BE84"/>
<path d="M52.6367 39.5217C52.6034 39.0223 52.3703 37.8569 52.0707 37.8902C51.6045 37.9235 51.3382 39.8547 52.4702 40.4541C52.7033 40.5872 52.7033 40.0212 52.6367 39.4884V39.5217Z" fill="#F8BE84"/>
<path d="M53.6014 37.224C53.1686 37.1907 52.8356 37.3572 52.8356 37.5903C52.8356 37.8234 53.2019 38.0565 53.6014 38.0898C54.0343 38.1231 54.3672 37.9566 54.3672 37.7235C54.3672 37.4904 54.001 37.2573 53.6014 37.224Z" fill="#F8BE84"/>
<path d="M53.6354 37.7571C53.5688 37.4575 53.3024 37.2577 53.0694 37.291C52.8363 37.3576 52.7364 37.6572 52.803 37.9569C52.8696 38.2566 53.136 38.4564 53.369 38.4231C53.6021 38.3565 53.702 38.0568 53.6354 37.7571Z" fill="#F8BE84"/>
<path d="M54.368 39.1224C54.3014 38.8227 54.0351 38.6229 53.802 38.6562C53.5689 38.7228 53.469 39.0225 53.5356 39.3221C53.6022 39.6218 53.8686 39.8216 54.1017 39.7883C54.3347 39.7217 54.4346 39.422 54.368 39.1224Z" fill="#F8BE84"/>
<path d="M54.1008 38.2566C54.0342 37.9569 53.7679 37.7571 53.5348 37.7904C53.3017 37.857 53.2018 38.1567 53.2684 38.4564C53.335 38.756 53.6014 38.9558 53.8344 38.9225C54.0675 38.8559 54.1674 38.5563 54.1008 38.2566Z" fill="#F8BE84"/>
<path d="M54.2347 37.89C53.8351 37.89 53.5022 38.0564 53.5022 38.2895C53.5022 38.5226 53.8351 38.7224 54.2347 38.7224C54.6342 38.7224 54.9672 38.5559 54.9672 38.3228C54.9672 38.0897 54.6342 37.89 54.2347 37.89Z" fill="#F8BE84"/>
<path d="M54.4007 38.6226C53.9345 38.6226 53.5682 38.8224 53.5682 39.0555C53.5682 39.2886 53.9345 39.4883 54.4007 39.4883C54.8668 39.4883 55.2331 39.2886 55.2331 39.0555C55.2331 38.8224 54.8668 38.6226 54.4007 38.6226Z" fill="#F8BE84"/>
<path d="M3.82397 39.0888C4.15693 38.1565 3.45771 36.1919 2.29235 36.1586C1.12699 36.1253 0.427773 37.2241 0.461069 37.99C0.461069 38.7558 3.05816 41.2531 3.82397 39.0555V39.0888Z" fill="#564047"/>
<path d="M2.72582 37.0578C2.95889 36.5251 3.35844 36.1588 3.6581 36.2587C3.95777 36.3253 4.02436 36.8247 3.79129 37.3242C3.59151 37.857 3.15866 38.2232 2.859 38.1233C2.55934 38.0567 2.49274 37.5573 2.72582 37.0245V37.0578Z" fill="#F8BE84"/>
<path d="M3.32441 37.9566C3.29111 37.4571 3.32441 36.2917 3.65738 36.2584C4.15683 36.2251 4.82276 38.0565 3.69067 38.8556C3.4576 39.0221 3.35771 38.4561 3.32441 37.9566Z" fill="#F8BE84"/>
<path d="M1.86005 35.8924C2.3262 35.7592 2.72575 35.8591 2.79234 36.0922C2.82564 36.3253 2.49268 36.5916 2.02653 36.7248C1.56039 36.858 1.16083 36.7581 1.09424 36.525C1.06095 36.292 1.39391 36.0256 1.86005 35.8924Z" fill="#F8BE84"/>
<path d="M1.92634 36.4252C1.95964 36.0922 2.19271 35.8591 2.45909 35.8591C2.72546 35.8591 2.89194 36.1588 2.85865 36.4585C2.82535 36.7915 2.59227 37.0245 2.3259 37.0245C2.05953 37.0245 1.89304 36.7249 1.92634 36.4252Z" fill="#F8BE84"/>
<path d="M1.3939 37.9235C1.4272 37.5906 1.66027 37.3575 1.92663 37.3575C2.19299 37.3575 2.35947 37.6572 2.32618 37.9568C2.29288 38.2898 2.05981 38.5229 1.79345 38.5229C1.52708 38.5229 1.36061 38.2232 1.3939 37.9235Z" fill="#F8BE84"/>
<path d="M1.49348 37.0242C1.52678 36.6913 1.75984 36.4582 2.02621 36.4582C2.29257 36.4582 2.45905 36.7579 2.42576 37.0575C2.39246 37.3905 2.15939 37.6236 1.89303 37.6236C1.62666 37.6236 1.46018 37.3239 1.49348 37.0242Z" fill="#F8BE84"/>
<path d="M1.29331 36.6914C1.75945 36.5915 2.12571 36.7247 2.1923 36.9578C2.2256 37.1909 1.89264 37.4572 1.45979 37.5571C1.02694 37.657 0.62739 37.5238 0.560798 37.2907C0.527502 37.0577 0.860462 36.7913 1.29331 36.6914Z" fill="#F8BE84"/>
<path d="M1.22735 37.4241C1.72679 37.3242 2.15964 37.4574 2.19294 37.6904C2.22623 37.9235 1.85998 38.1899 1.36054 38.2565C0.861097 38.3564 0.428249 38.2232 0.394953 37.9901C0.361657 37.757 0.727913 37.4907 1.22735 37.4241Z" fill="#F8BE84"/>
<path d="M28.2964 10.6195L26.9313 13.2167L28.2964 15.7806L29.6283 13.2167L28.2964 10.6195Z" fill="#76CBC7"/>
<defs>
<linearGradient id="paint0_linear" x1="38.6559" y1="5.1392" x2="38.9363" y2="28.963" gradientUnits="userSpaceOnUse">
<stop stop-color="#E89963"/>
<stop offset="1" stop-color="#E59361"/>
</linearGradient>
<linearGradient id="paint1_linear" x1="43.5179" y1="28.8819" x2="43.5526" y2="31.8244" gradientUnits="userSpaceOnUse">
<stop stop-color="#DB8456"/>
<stop offset="1" stop-color="#DA7F55"/>
</linearGradient>
</defs>
</svg>
