<svg width="51" height="82" viewBox="0 0 51 82" fill="none" xmlns="http://www.w3.org/2000/svg">
<path d="M47.2676 36.7123C46.302 34.9476 46.3686 33.6157 47.2676 33.2827C48.1666 32.9497 51.0966 34.6479 47.2676 36.7123Z" fill="#674235"/>
<path d="M14.0052 49.8643C3.31717 28.7206 0.154031 -7.37365 24.4935 4.58006C47.601 -12.1352 53.8607 27.6218 38.8109 47.4003C31.5523 53.2939 14.0052 49.8643 14.0052 49.8643Z" fill="#613731"/>
<path d="M24.693 10.2408C18.3002 10.2408 1.6854 18.665 15.5699 49.8645C15.5699 49.8645 31.0193 53.2942 37.4122 47.4006C47.3344 32.4501 48.0336 10.2408 24.7263 10.2408H24.693Z" fill="#4A302D"/>
<path d="M25.326 74.4712C25.326 74.4712 39.0107 74.6377 48.5334 68.6442C48.5334 68.6442 34.8154 37.5113 27.1573 38.1772C19.4991 38.8432 25.326 74.4712 25.326 74.4712Z" fill="#6D4064"/>
<path d="M31.8853 38.7765C31.2527 38.4769 27.7566 38.1106 27.1573 38.1439C19.4991 38.8098 25.326 74.4379 25.326 74.4379C25.326 74.4379 39.3104 76.9352 48.5667 68.6109C48.5001 68.511 47.8675 68.844 47.2015 69.1769C46.5356 69.5099 45.8697 69.8096 45.8364 69.743C40.509 60.9858 33.317 46.1685 31.9186 38.7432L31.8853 38.7765Z" fill="#5B3A57"/>
<path d="M26.2251 37.7109H28.8888V32.6164H26.2251V37.7109Z" fill="#80523C"/>
<path d="M37.6787 62.0847C37.5455 61.6518 32.5511 60.9859 26.691 62.1846C20.8641 63.4165 16.4025 66.047 16.5023 66.4799C16.6355 66.9128 21.4302 65.4144 27.257 64.2157C33.0838 62.9837 37.7786 62.5175 37.6787 62.0847Z" fill="#C34E6F"/>
<path d="M23.4281 81.7302C21.397 77.0353 17.235 60.087 21.2638 50.4308L24.66 52.0957C24.66 52.0957 19.3992 60.753 24.8265 81.8634L23.4281 81.7302Z" fill="#FDC35E"/>
<path d="M22.5622 68.8773C21.5966 57.09 24.6598 52.0622 24.6598 52.0622L21.2636 50.3973C19.0328 55.7249 19.3325 63.25 20.3313 69.7097C20.9973 69.2435 21.7631 68.9439 22.5622 68.8773Z" fill="#E6A341"/>
<path d="M45.2374 81.8631C41.0088 77.4678 28.7891 61.6183 28.2563 52.5948L32.4517 54.1264C32.4517 54.1264 31.2863 62.2177 46.7024 81.963L45.2374 81.8298V81.8631Z" fill="#FDC35E"/>
<path d="M35.6481 66.8793C35.8812 66.7461 36.1475 66.6129 36.4139 66.4797C31.9189 57.8557 32.4517 54.1264 32.4517 54.1264L28.2563 52.5948C28.5227 56.7902 31.2863 62.4508 34.5826 67.745C34.9156 67.4453 35.2818 67.1457 35.6814 66.9126L35.6481 66.8793Z" fill="#E6A341"/>
<path d="M16.5352 66.4798C25.2588 62.584 30.0535 63.8493 39.0101 62.4841L32.584 51.4627L19.6984 53.1942L16.5352 66.4798Z" fill="#DE6080"/>
<path d="M32.7844 51.9954C32.7844 50.9965 29.8543 50.3305 26.2251 50.5303C22.5958 50.6968 19.6324 52.3616 19.6324 53.3606C19.6324 54.3595 22.396 54.6925 26.0253 54.526C29.6546 54.3595 32.7844 53.0276 32.7844 52.0287V51.9954Z" fill="#CF5176"/>
<path d="M37.6122 62.6509C38.0783 62.5843 38.5445 62.5177 39.0106 62.4511L32.5845 51.4297L32.3514 51.463L37.6122 62.6509Z" fill="#CF5176"/>
<path d="M20.5641 53.0612L19.6984 53.1944L16.5352 66.48C17.068 66.2469 17.6007 66.0138 18.1335 65.814L20.5641 53.0945V53.0612Z" fill="#CF5176"/>
<path d="M9.11088 35.3138C8.8778 39.6757 13.506 46.202 23.961 37.9443L23.628 41.4405C23.628 41.4405 8.74462 49.898 7.61255 35.8132L9.11088 35.3138Z" fill="#DE6080"/>
<path d="M10.4429 39.6091C9.47735 38.3105 9.07779 36.7123 9.14438 35.3138L7.64606 35.8132C7.81254 37.7112 8.21209 39.1763 8.77813 40.3084L10.4429 39.6091Z" fill="#C34E6F"/>
<path d="M17.1681 41.6069C16.7685 42.4393 16.2691 43.2051 15.703 43.8711C19.6986 43.638 23.6608 41.3738 23.6608 41.3738L23.9938 37.8776C21.3634 39.942 19.0992 41.1074 17.2014 41.5736L17.1681 41.6069Z" fill="#C34E6F"/>
<path d="M46.3021 37.1448C46.1689 41.5067 42.0402 47.9331 29.7206 36.9783L31.0525 41.9729C31.0525 41.9729 45.4031 51.6957 47.7671 37.7774L46.3021 37.1448Z" fill="#DE6080"/>
<path d="M46.5352 41.64C47.0679 40.6078 47.5008 39.3425 47.7671 37.7776L46.3021 37.1449C46.2688 38.4102 45.8692 39.8753 45.0368 41.0074L46.5352 41.64Z" fill="#C34E6F"/>
<path d="M36.1801 41.6066C34.3488 40.641 32.1845 39.1759 29.7206 36.9783L31.0525 41.9729C31.0525 41.9729 34.0158 43.9707 37.5119 44.8697C36.9126 43.9041 36.4797 42.8053 36.1801 41.6399V41.6066Z" fill="#C34E6F"/>
<path d="M44.3712 39.5757L48.5999 40.4747L48.167 35.913L46.8019 35.58L44.3712 39.5757Z" fill="#FDC35E"/>
<path d="M19.2991 52.7282C19.5322 47.334 20.9972 39.3094 24.4267 37.5779C29.0549 35.2471 30.9861 38.2772 31.5188 39.1096C31.8851 39.7089 32.5843 47.2674 32.9838 51.6293C31.6187 53.8936 19.8319 55.0257 19.2991 52.7282Z" fill="#A95696"/>
<path d="M20.3315 53.0609C20.498 47.9664 21.5635 40.6077 23.9275 37.9106C20.8643 40.1748 19.5324 47.6334 19.3326 52.7279C19.4325 53.1941 19.9986 53.4937 20.7977 53.6935C20.5646 53.527 20.3981 53.2939 20.3648 53.0609H20.3315Z" fill="#914984"/>
<path d="M31.519 39.1095C31.2526 38.7099 30.62 37.711 29.4879 37.1449C30.1538 37.711 30.5201 38.4768 30.7199 38.8098C31.0528 39.4091 31.6522 47.3672 31.9518 51.8956C31.7854 52.2619 31.3858 52.5948 30.8531 52.8945C31.8852 52.5282 32.6843 52.0954 32.984 51.6292C32.6178 47.2673 31.9185 39.6755 31.519 39.1095Z" fill="#914984"/>
<path d="M40.3087 77.2347L44.0046 76.0693L46.3354 80.8641L50.9968 81.7964L44.837 81.9962L40.3087 77.2347Z" fill="#DE6080"/>
<path d="M24.127 75.703L19.9649 76.0026L22.7285 80.864L18.5665 81.7964L24.9927 81.9961L24.127 75.703Z" fill="#DE6080"/>
<path d="M32.1846 43.0055C32.1846 43.0055 31.6851 40.9077 30.8194 39.1763C30.1535 37.8444 28.855 36.7789 29.754 36.7123C33.1502 36.4126 32.1846 43.0055 32.1846 43.0055Z" fill="#FDC35E"/>
<path d="M20.8307 43.1051C20.8307 43.1051 21.4634 41.407 22.4622 39.6422C23.0616 38.5767 24.8263 37.7776 24.0272 37.6444C20.5977 37.045 20.8307 43.1051 20.8307 43.1051Z" fill="#FDC35E"/>
<path d="M29.4547 45.2027C29.3215 43.5379 27.9564 42.206 26.2583 42.206C24.5602 42.206 23.1617 43.5379 23.0619 45.2027H29.488H29.4547Z" fill="#FDC35E"/>
<path d="M23.0619 46.0354C23.3282 47.5338 24.6601 48.6659 26.225 48.6659C27.7899 48.6659 29.1218 47.5338 29.3881 46.0354H23.0619Z" fill="#FDC35E"/>
<path d="M24.4601 45.5028C24.4601 46.4684 25.2259 47.2343 26.1915 47.2343C27.1571 47.2343 27.9229 46.4684 27.9229 45.5028C27.9229 44.5372 27.1571 43.7714 26.1915 43.7714C25.2259 43.7714 24.4601 44.5372 24.4601 45.5028Z" fill="#A95696"/>
<path d="M25.2923 45.5357C25.2923 46.0351 25.6919 46.4347 26.1913 46.4347C26.6907 46.4347 27.0903 46.0351 27.0903 45.5357C27.0903 45.0362 26.6907 44.6366 26.1913 44.6366C25.6919 44.6366 25.2923 45.0362 25.2923 45.5357Z" fill="#FDC35E"/>
<path d="M28.8888 36.9117C28.4892 36.7785 28.0897 36.7119 27.5902 36.7119C27.1574 36.7119 26.7245 36.7785 26.2251 36.8784V35.1803C27.1574 35.147 28.0564 35.0804 28.8888 34.9805V36.8784V36.9117Z" fill="#5E3E32"/>
<path d="M27.3898 41.4735C25.5585 41.4735 23.7938 41.3404 22.2622 41.074C22.5952 40.0751 22.9947 39.2093 23.4609 38.5434C23.927 38.1438 24.3266 37.8441 24.2267 37.711C24.2933 37.6777 24.3599 37.6111 24.4598 37.5778C25.0924 37.2448 25.6917 37.045 26.2577 36.8785C26.7572 36.7453 27.2233 36.712 27.6229 36.712C28.089 36.712 28.5219 36.7786 28.9214 36.9118C29.1212 36.9784 29.321 37.045 29.5208 37.1449C29.7205 37.5778 30.3865 38.3103 30.8193 39.176C30.8193 39.176 30.8193 39.2093 30.8526 39.2093C30.9192 39.6422 31.0191 40.3747 31.119 41.2738C29.9536 41.4069 28.6884 41.4735 27.3898 41.4735Z" fill="#784062"/>
<path d="M22.2292 41.1073C22.0627 41.074 21.8962 41.0407 21.7297 41.0074C21.9295 40.5745 22.1959 40.1084 22.4623 39.6422C22.6953 39.2426 23.0949 38.8764 23.4278 38.5767C22.995 39.2759 22.5954 40.1417 22.2292 41.1073Z" fill="#6A3957"/>
<path d="M34.5493 40.6747C33.7835 40.2086 32.9844 39.6425 32.1187 38.9766L32.152 39.0099C32.3185 39.143 32.4849 39.2429 32.6181 39.3761C32.7846 39.5093 32.9511 39.6092 33.1176 39.7424C33.2175 39.809 33.3173 39.8756 33.3839 39.9422C33.7835 40.2086 34.1497 40.4749 34.516 40.708L34.5493 40.6747Z" fill="#3C2F2D"/>
<path d="M32.3185 41.1406C32.3185 40.4747 32.2852 39.7088 32.1187 39.0096C32.9844 39.6755 33.7835 40.2416 34.5493 40.7077C33.8501 40.8742 33.1176 41.0407 32.3185 41.1406Z" fill="#8C3B4D"/>
<path d="M19.8651 40.6077C19.9983 40.5411 20.0982 40.4745 20.2314 40.4079L20.298 40.3746C20.1648 40.4412 20.0316 40.5078 19.8651 40.6077ZM20.4311 40.308C20.6309 40.2081 20.864 40.0749 21.0638 39.9417L21.197 39.8751L21.2635 39.8418C20.9972 40.0083 20.7308 40.1748 20.4644 40.308H20.4311Z" fill="#3C2F2D"/>
<path d="M20.9972 40.8741C20.5976 40.7742 20.2314 40.7076 19.8651 40.6077C19.9983 40.5411 20.1315 40.4745 20.298 40.3746C20.3313 40.3413 20.3646 40.3413 20.4311 40.308C20.6975 40.1748 20.9639 40.0083 21.2303 39.8418C21.1304 40.1748 21.0638 40.5411 20.9972 40.8741Z" fill="#8C3B4D"/>
<path d="M24.0938 37.6446C24.0605 37.6446 24.0272 37.6446 24.0272 37.6113C24.0605 37.6113 24.0938 37.6113 24.0938 37.6446Z" fill="#3C2F2D"/>
<path d="M31.0864 41.2737C30.9865 40.3747 30.8867 39.6421 30.8201 39.2093C31.153 39.8752 31.4194 40.5745 31.6525 41.2071C31.486 41.2404 31.2862 41.2404 31.0864 41.2737Z" fill="#6A3957"/>
<path d="M31.652 41.2072C31.4522 40.5745 31.1525 39.8753 30.8196 39.2093C30.8196 39.2093 30.8196 39.176 30.7863 39.176C30.3534 38.3436 29.6875 37.6111 29.4877 37.1449C29.3545 36.8785 29.3878 36.7453 29.7208 36.712C29.7874 36.712 29.854 36.712 29.9206 36.712C31.2191 36.712 31.8184 37.7443 32.0848 39.0095C32.2513 39.7088 32.2846 40.4746 32.2846 41.1406C32.0848 41.1739 31.8517 41.2072 31.6187 41.2405L31.652 41.2072Z" fill="#B48242"/>
<path d="M21.7296 41.0074C21.4632 40.9741 21.2302 40.9075 20.9971 40.8742C21.0637 40.5413 21.1303 40.175 21.2302 39.842C21.5964 38.6433 22.2624 37.5778 23.5609 37.5778C23.6941 37.5778 23.8606 37.5778 24.0271 37.6111C24.0603 37.6111 24.0936 37.6111 24.0936 37.6444C24.1602 37.6777 24.1602 37.6777 24.1935 37.711C24.2934 37.8442 23.8939 38.1439 23.4277 38.5434C23.0615 38.8431 22.6619 39.2094 22.4621 39.6089C22.1958 40.0751 21.9627 40.5413 21.7296 40.9741V41.0074Z" fill="#B48242"/>
<path d="M9.34326 19.6637C9.07689 23.4596 7.97812 35.9461 26.0579 35.2136C44.1377 34.481 44.8702 24.1589 43.6716 18.5649C42.5062 12.971 34.8148 4.74657 26.3243 5.47911C17.8338 6.21165 9.876 11.7057 9.34326 19.6637Z" fill="#80523C"/>
<path d="M7.11331 25.4577C6.74705 24.3922 7.14661 23.4266 7.94571 23.2934C8.77812 23.1602 9.71041 23.8928 10.0767 24.925C10.4429 25.9905 10.0434 26.9561 9.24426 27.0893C8.41186 27.2225 7.47957 26.4899 7.11331 25.4577Z" fill="#80523C"/>
<path d="M7.61274 25.3579C7.37966 24.6253 7.61274 23.9594 8.17877 23.8595C8.7448 23.7596 9.37743 24.2591 9.6438 24.9916C9.87687 25.7242 9.6438 26.3901 9.07777 26.49C8.51173 26.5899 7.87911 26.0904 7.61274 25.3579Z" fill="#674235"/>
<path d="M8.51149 25.8572C8.34501 25.391 8.51149 24.9914 8.87775 24.9248C9.24401 24.8582 9.64356 25.1912 9.77675 25.6241C9.94323 26.0903 9.77675 26.4898 9.41049 26.5564C9.04423 26.623 8.64468 26.29 8.51149 25.8572Z" fill="#80523C"/>
<path d="M45.9359 22.2276C46.2689 21.1621 45.9026 20.1632 45.1701 20.03C44.4043 19.8968 43.5386 20.6293 43.2056 21.6948C42.8727 22.7603 43.2389 23.7593 43.9714 23.8924C44.7373 24.0256 45.603 23.2931 45.9359 22.2276Z" fill="#80523C"/>
<path d="M45.4704 22.128C45.7035 21.3955 45.4704 20.7295 44.9377 20.6297C44.4383 20.5298 43.8389 21.0292 43.6059 21.7618C43.3728 22.4943 43.6059 23.1602 44.1386 23.2601C44.638 23.36 45.2707 22.8606 45.4704 22.128Z" fill="#674235"/>
<path d="M44.6711 22.6273C44.8043 22.1611 44.6711 21.7282 44.3382 21.6949C44.0052 21.6284 43.6389 21.9613 43.5057 22.4275C43.3726 22.8937 43.5057 23.3265 43.8387 23.3598C44.1717 23.4264 44.5379 23.0934 44.6711 22.6273Z" fill="#80523C"/>
<path fill-rule="evenodd" clip-rule="evenodd" d="M44.0054 23.3601C44.0387 22.8939 44.072 22.3944 44.072 21.9283C44.072 22.3944 44.0387 22.8606 44.0054 23.3601Z" fill="url(#paint0_linear)"/>
<path d="M24.5935 24.2923L24.6268 24.2257H25.892C25.9253 24.2923 25.9253 24.3256 25.9586 24.3921C27.5568 26.7563 38.0451 26.9893 44.0384 21.6951C44.0051 20.563 43.8719 19.4975 43.6721 18.5984C43.1061 15.8348 40.9419 12.4717 37.8786 9.80795C32.8842 14.2698 27.2239 19.7305 26.0252 22.7606H24.3271C22.8954 20.1967 17.4681 16.0345 12.2739 12.4384C10.6091 14.5029 9.5103 16.9669 9.34382 19.6972C9.24393 20.9625 9.07745 23.1934 9.5436 25.5908C15.9365 27.8551 23.528 26.4566 24.5935 24.3256V24.2923Z" fill="#674235"/>
<path d="M24.5938 23.127C22.4296 27.3558 -5.33943 28.721 1.45299 4.18091C1.45299 4.18091 26.4917 19.3644 24.5938 23.127Z" fill="#A95696"/>
<path d="M24.5938 23.1269C25.2264 21.8616 22.8291 19.331 19.3663 16.5007C14.3719 15.302 9.91022 16.3009 9.1777 18.8315C8.54508 21.0291 10.9424 23.7595 14.8048 25.491C19.5328 25.8572 23.7947 24.6918 24.5938 23.1602V23.1269Z" fill="#DE6080"/>
<path d="M25.9921 23.2265C28.6558 27.1556 55.9253 25.2243 46.0697 1.68317C46.0697 1.68317 23.6281 19.7303 25.9921 23.2265Z" fill="#A95696"/>
<path d="M25.992 23.2267C27.1574 24.9581 33.1174 25.5575 38.5447 23.6595C42.0408 20.8626 43.7722 17.2998 42.4736 15.0023C41.0086 12.4384 36.3804 12.3052 31.719 14.4695C27.9232 18.2987 25.0597 21.8948 25.992 23.2267Z" fill="#DE6080"/>
<path d="M36.5137 21.8282C36.0809 19.2643 34.7823 17.1 32.6847 17.1C30.5537 17.1 29.0887 19.231 28.8556 21.8282C28.7557 22.9603 30.2208 24.159 32.3517 24.159C34.4827 24.159 36.7801 23.1601 36.547 21.8282H36.5137Z" fill="#7C406E"/>
<path d="M21.4302 21.8282C20.9973 19.2643 19.6988 17.1 17.6011 17.1C15.4702 17.1 14.0052 19.231 13.7721 21.8282C13.6722 22.9603 15.1372 24.159 17.2682 24.159C19.3991 24.159 21.6966 23.1601 21.4635 21.8282H21.4302Z" fill="#7C406E"/>
<path d="M22.8617 26.7894L28.4221 26.3898C28.4221 26.3898 26.8239 36.3124 22.8617 26.7894Z" fill="#553830"/>
<path d="M23.4277 27.1226L24.4932 29.0872L27.2901 28.9873L28.1558 26.7896L23.4277 27.1226Z" fill="#FEF0EA"/>
<path d="M36.147 21.9614C35.7474 19.5307 34.5821 17.5329 32.6509 17.5329C30.7197 17.5329 29.3546 19.5307 29.1548 21.9614C29.0549 23.0269 30.3868 24.159 32.3179 24.159C34.2491 24.159 36.3801 23.2267 36.147 21.9614Z" fill="#FEEDDF"/>
<path d="M21.0635 22.028C20.6639 19.5973 19.4986 17.5994 17.5674 17.5994C15.6362 17.5994 14.2711 19.5973 14.0713 22.028C13.9714 23.0935 15.3033 24.2256 17.2344 24.2256C19.1656 24.2256 21.2966 23.2933 21.0635 22.028Z" fill="#FEEDDF"/>
<path d="M23.9612 23.0603H26.6914V21.562H23.9612V23.0603Z" fill="#DE6080"/>
<path d="M27.09 25.0911C27.09 24.5917 26.3575 24.1588 25.4585 24.1588C24.5595 24.1588 23.827 24.5584 23.827 25.0911C23.827 25.5906 24.5595 26.0235 25.4585 26.0235C26.3575 26.0235 27.09 25.6239 27.09 25.0911Z" fill="#674133"/>
<path d="M33.6503 22.1943C33.6503 21.4284 33.0843 20.7958 32.3851 20.7958C31.6858 20.7958 31.1198 21.4284 31.1198 22.1943C31.1198 22.9601 31.6858 23.5927 32.3851 23.5927C33.0843 23.5927 33.6503 22.9601 33.6503 22.1943Z" fill="#4F616D"/>
<path d="M18.9326 22.1943C18.9326 21.4284 18.3666 20.7958 17.6674 20.7958C16.9682 20.7958 16.4021 21.4284 16.4021 22.1943C16.4021 22.9601 16.9682 23.5927 17.6674 23.5927C18.3666 23.5927 18.9326 22.9601 18.9326 22.1943Z" fill="#4F616D"/>
<path d="M18.4668 21.8614C18.4668 21.6283 18.3003 21.4619 18.1005 21.4619C17.9008 21.4619 17.7343 21.6616 17.7343 21.8614C17.7343 22.0945 17.9008 22.261 18.1005 22.261C18.3003 22.261 18.4668 22.0612 18.4668 21.8614Z" fill="#8097A3"/>
<path d="M33.217 21.8614C33.217 21.6283 33.0505 21.4619 32.8508 21.4619C32.651 21.4619 32.4845 21.6616 32.4845 21.8614C32.4845 22.0945 32.651 22.261 32.8508 22.261C33.0505 22.261 33.217 22.0612 33.217 21.8614Z" fill="#8097A3"/>
<path d="M17.9678 13.1709C17.8679 10.4072 18.5338 6.44486 23.6947 5.14627L24.1275 5.64573C24.1275 5.64573 18.4339 6.57805 18.5671 13.1709H17.9678Z" fill="#613731"/>
<path d="M15.8697 12.4382C16.0362 9.67452 17.0351 5.81204 22.2959 4.97961L22.6954 5.51237C22.6954 5.51237 16.9352 5.91194 16.469 12.5048L15.8697 12.4715V12.4382Z" fill="#613731"/>
<path d="M22.562 12.2051C21.8295 10.0408 21.3633 6.77767 25.1258 4.48016L25.5919 4.74654C25.5919 4.74654 21.33 6.84427 23.0281 12.0386L22.562 12.2051Z" fill="#613731"/>
<path d="M26.724 24.8583C26.724 24.4255 26.0914 24.0592 25.2923 24.0592C24.4932 24.0592 23.8606 24.4255 23.8606 24.8583C23.8606 25.2912 24.4932 25.6575 25.2923 25.6575C26.0914 25.6575 26.724 25.2912 26.724 24.8583Z" fill="#80523C"/>
<path d="M45.3698 4.11386C45.3698 4.11386 40.5752 10.174 45.9692 5.84532L45.3698 4.11386Z" fill="#FDC35E"/>
<path d="M46.569 7.27716C46.569 7.27716 40.7755 12.4382 46.8686 9.07521L46.569 7.27716Z" fill="#FDC35E"/>
<path d="M47.1685 10.4075C47.1685 10.4075 42.3738 13.7705 47.2351 11.7727L47.1685 10.4075Z" fill="#FDC35E"/>
<path d="M2.21827 6.61157C2.21827 6.61157 7.87862 11.2066 1.9852 8.44292L2.21827 6.61157Z" fill="#FDC35E"/>
<path d="M1.71896 10.0076C1.71896 10.0076 8.11182 13.4372 1.78556 11.839L1.71896 10.0076Z" fill="#FDC35E"/>
<path d="M1.7525 13.2375C1.7525 13.2375 6.88011 15.202 1.95228 14.6027L1.7525 13.2375Z" fill="#FDC35E"/>
<path d="M47.3008 34.8472C47.1344 34.3811 46.8347 34.0148 46.6349 34.0814C46.4018 34.148 46.3685 34.5809 46.535 35.047C46.7015 35.5132 47.0012 35.8795 47.2009 35.8129C47.4007 35.7463 47.4673 35.3134 47.3008 34.8472Z" fill="#80523C"/>
<path d="M47.2349 34.7144C47.6677 34.7477 47.8342 34.6811 47.8675 34.448C47.9008 34.2149 47.8009 33.9485 47.3681 33.9152C46.9352 33.8819 46.5356 34.0484 46.5024 34.2482C46.4691 34.4813 46.802 34.6811 47.2682 34.7144H47.2349Z" fill="#80523C"/>
<path d="M47.7676 33.4158C47.8009 33.0495 47.7343 32.9164 47.5012 32.8831C47.2681 32.8498 47.0018 32.9164 46.9685 33.2826C46.9352 33.6489 47.0684 34.0152 47.3014 34.0485C47.5345 34.0818 47.7343 33.8154 47.7676 33.4491V33.4158Z" fill="#80523C"/>
<path d="M48.567 33.9486C48.7335 33.6156 48.7335 33.4491 48.5337 33.3492C48.334 33.216 48.0676 33.1827 47.8678 33.5157C47.7013 33.8487 47.7013 34.215 47.9011 34.3482C48.1009 34.4813 48.4005 34.2816 48.567 33.9486Z" fill="#80523C"/>
<path d="M49.0998 34.7143C49.3995 34.4812 49.4327 34.3147 49.2996 34.1483C49.1664 33.9818 48.9333 33.8153 48.6336 34.0484C48.334 34.2814 48.2008 34.6477 48.334 34.8142C48.4672 34.9807 48.8001 34.9474 49.0998 34.7143Z" fill="#80523C"/>
<path d="M7.84535 34.9139C9.04401 33.2824 9.17719 31.9505 8.31149 31.4843C7.44579 31.0182 4.21607 32.3501 7.84535 34.9139Z" fill="#674235"/>
<path d="M8.07832 33.0826C8.31139 32.6164 8.64435 32.3167 8.87742 32.4166C9.0772 32.5165 9.0772 32.9494 8.84413 33.3822C8.61105 33.8484 8.27809 34.1481 8.04502 34.0482C7.84524 33.9483 7.84524 33.5154 8.07832 33.0826Z" fill="#80523C"/>
<path d="M8.14483 32.9164C7.67869 32.8831 7.5455 32.7832 7.5455 32.5834C7.5455 32.3503 7.67869 32.0839 8.14483 32.1172C8.61098 32.1505 8.97724 32.3503 8.97724 32.5501C8.97724 32.7832 8.61098 32.9496 8.14483 32.9164Z" fill="#80523C"/>
<path d="M7.77917 31.6175C7.77917 31.2512 7.87906 31.118 8.11214 31.118C8.34521 31.118 8.61158 31.2179 8.61158 31.5842C8.61158 31.9505 8.4118 32.2834 8.17873 32.2834C7.94566 32.2834 7.77917 31.9838 7.77917 31.6175Z" fill="#80523C"/>
<path d="M6.9131 32.017C6.77992 31.6508 6.81321 31.5176 7.04629 31.4177C7.24606 31.3178 7.54573 31.3178 7.67891 31.6841C7.8121 32.0503 7.74551 32.4166 7.54573 32.5165C7.34595 32.6164 7.04629 32.3833 6.9464 32.0503L6.9131 32.017Z" fill="#80523C"/>
<path d="M6.24703 32.7166C5.98067 32.4502 5.98067 32.2837 6.11385 32.1172C6.28033 31.9507 6.5467 31.8509 6.81307 32.1172C7.07944 32.3836 7.14603 32.7499 7.01285 32.9164C6.84636 33.0828 6.5134 32.983 6.24703 32.7166Z" fill="#80523C"/>
<path d="M6.67975 39.0094L10.8751 37.9106L8.41115 34.0482L7.04601 34.3478L6.67975 39.0094Z" fill="#FDC35E"/>
<defs>
<linearGradient id="paint0_linear" x1="43.9715" y1="21.9379" x2="44.0777" y2="23.3551" gradientUnits="userSpaceOnUse">
<stop stop-color="#7D4734"/>
<stop offset="1" stop-color="#774534"/>
</linearGradient>
</defs>
</svg>
