<svg width="56" height="78" viewBox="0 0 56 78" fill="none" xmlns="http://www.w3.org/2000/svg">
<path d="M45.5532 6.90578C45.3867 5.5073 44.3878 4.50839 43.3556 4.64157C42.3234 4.77476 41.6242 6.00676 41.7907 7.40524C41.9572 8.80373 42.9561 9.80264 43.9882 9.66945C45.0204 9.53626 45.7196 8.30427 45.5532 6.90578Z" fill="#693C30"/>
<path d="M44.82 10.9348C44.587 9.10345 43.2884 7.77156 41.9233 7.97135C40.5582 8.13783 39.6259 9.7694 39.8922 11.6007C40.1253 13.4321 41.4239 14.764 42.789 14.5642C44.1541 14.3977 45.0864 12.7662 44.82 10.9348Z" fill="#693C30"/>
<path d="M46.0522 15.2297C45.7525 12.8323 44.0211 11.0676 42.2231 11.3007C40.4251 11.5338 39.1932 13.6648 39.5261 16.0622C39.8258 18.4596 41.5572 20.2243 43.3552 19.9913C45.1532 19.7582 46.3852 17.6271 46.0522 15.1964V15.2297Z" fill="#693C30"/>
<path d="M49.9816 70.2369L36.3302 71.2691C36.5966 60.7804 33.7997 49.3262 31.3691 40.4025L38.0616 37.772C38.0616 37.772 52.612 41.2017 49.9816 70.2369Z" fill="#9A3A49"/>
<path d="M41.757 38.2384C62.2342 47.9612 54.2764 64.0771 51.4795 69.105L41.757 38.2384Z" fill="#BC4A59"/>
<path d="M44.4877 40.5027L41.4578 39.97L40.9583 42.767L44.0216 43.2997L44.4877 40.5027Z" fill="#B06E90"/>
<path d="M37.3285 33.2768L33.9988 33.1104V39.2371L38.1609 38.671L37.3285 33.2768Z" fill="#F8BE84"/>
<path d="M18.6491 59.482C20.7468 55.4197 28.1385 41.335 32.8666 39.3705L32.1674 44.2319C32.1674 44.2319 25.3416 49.3263 19.4482 59.8483L18.6491 59.5153V59.482Z" fill="#B06E90"/>
<path d="M31.0353 43.2664C28.638 45.4308 23.8433 51.3577 19.7479 58.6831L19.1818 58.45C18.9821 58.8495 18.7823 59.2158 18.6491 59.5155L19.4482 59.8485C23.8433 52.0236 28.7046 47.2288 30.9354 45.2643C31.1352 45.0645 31.1685 43.5661 31.0353 43.2997V43.2664Z" fill="#965A7D"/>
<path d="M23.0111 55.353L21.1133 54.0211L20.1144 55.3197L22.2786 57.0178L23.0111 55.353Z" fill="#894D6D"/>
<path d="M42.4898 54.4542C42.9892 48.8602 43.1557 40.103 41.4243 38.7711C38.9937 36.9065 33.1003 38.2051 31.2357 40.5026C29.7707 42.334 32.4011 46.6293 29.7374 57.1512C28.0393 62.612 25.0759 70.3036 22.1792 76.9964L22.9783 76.8965C24.976 73.3004 29.3378 66.5744 32.2346 62.1458C34.3988 60.6807 37.1291 60.4144 38.6607 62.2124C39.6596 67.207 40.825 73.5335 41.2578 77.0297H41.9238C41.6574 69.2048 42.29 60.0148 42.4232 54.4875L42.4898 54.4542Z" fill="#B06E90"/>
<path d="M33.3993 49.4929H40.0586L36.396 44.465L33.3993 49.4929Z" fill="#EBACCD"/>
<path d="M38.0615 61.6462L41.7574 59.8148L42.0237 57.3175L36.7963 60.8803L38.0615 61.6462Z" fill="#965A7D"/>
<path d="M29.3043 58.8492L32.6339 61.6794L34.8315 60.847L29.5374 57.3841L29.3043 58.8492Z" fill="#965A7D"/>
<path d="M31.2357 62.2787C28.5387 66.6407 24.5432 73.2002 22.612 76.9295L23.0116 76.8629C25.0094 73.2668 29.3711 66.5408 32.2679 62.1122C33.1669 61.5129 34.1325 61.1133 35.0648 60.9801C33.7995 60.9135 32.4344 61.413 31.2357 62.2787Z" fill="#965A7D"/>
<path d="M41.4236 38.8045C40.458 38.0719 38.993 37.8389 37.3948 37.9388C38.2938 38.0386 39.0929 38.2717 39.6922 38.7046C41.4569 39.9699 41.5568 48.7271 41.2238 54.321C41.2238 59.8816 40.8576 69.0717 41.357 76.8633H41.2571L41.2904 76.9964H41.9563C41.69 69.1716 42.3226 59.9815 42.4558 54.4542C42.9552 48.8603 43.1217 40.1031 41.3903 38.7712L41.4236 38.8045Z" fill="#965A7D"/>
<path d="M41.6575 53.9879C41.491 53.9879 41.3245 53.9879 41.1247 54.0212C39.9927 54.1211 38.2613 54.2543 37.895 49.5927C37.6952 46.9955 41.5909 47.0954 41.5909 47.0954L41.6575 53.9879Z" fill="#965A7D"/>
<path d="M29.2708 58.3833L34.132 61.2136H37.3617L42.3894 58.2168L42.456 56.452L29.5704 56.3522L29.2708 58.3833Z" fill="#FFDA65"/>
<path d="M40.7582 56.4187C40.0257 57.7506 38.4607 58.9493 36.4963 59.582C33.2998 60.5476 30.17 59.6152 29.5041 57.4842C29.4708 57.4176 29.4708 57.351 29.4708 57.3177L29.3043 58.3833L34.1655 61.2468H37.3953L42.3897 58.2501L42.4563 56.4853H40.7582V56.4187Z" fill="#EDC251"/>
<path d="M18.5164 65.1757C20.0148 64.21 23.5109 58.5495 23.4443 57.6505C23.3777 56.7514 20.381 54.0544 18.9826 54.2542C17.5842 54.4539 13.6552 59.9813 13.5886 61.3798C13.522 62.7782 17.1513 66.0747 18.5164 65.1757Z" fill="#EEB167"/>
<path d="M21.1796 55.12C21.446 57.4841 19.648 57.4508 18.3495 57.4176C17.7834 57.4176 17.284 57.3843 17.1175 57.584C13.4216 61.4798 17.6502 65.2757 19.1819 64.3101C20.6136 63.4111 23.7767 58.2167 23.6103 57.4176C23.5104 56.9514 22.3783 55.8859 21.1463 55.1533L21.1796 55.12Z" fill="#D79550"/>
<path d="M16.818 63.6775C16.7847 63.6109 16.7847 63.5776 16.7514 63.511C16.818 63.5776 16.8513 63.6109 16.9179 63.6775H16.818ZM15.9523 59.2489C15.9523 59.1157 15.9523 58.9825 15.9523 58.8494L16.0855 58.9825C16.0522 59.0824 15.9856 59.1823 15.9523 59.2822V59.2489ZM15.9523 57.9836C15.9523 57.7838 15.9523 57.5508 15.9856 57.351L18.283 56.2522L18.2164 54.6206H18.5827L18.7159 54.6539L18.7825 56.3854L19.6482 57.351C19.4484 57.3843 19.2819 57.3843 19.0821 57.3843L18.5161 56.7516L15.9856 57.9503L15.9523 57.9836Z" fill="#E2944E"/>
<path d="M16.9179 63.6774C16.8513 63.6441 16.818 63.5775 16.7514 63.5109C16.7181 63.411 16.6515 63.2778 16.6182 63.1447L17.5838 63.1114L17.2508 60.6474L15.9523 59.482C15.9523 59.4154 15.9523 59.3488 15.9523 59.2822C15.9856 59.1823 16.0522 59.0824 16.0855 58.9825L17.4506 60.2478L19.515 57.9503L19.0488 57.4508C19.2486 57.4508 19.4151 57.4175 19.6148 57.4175L19.9145 57.7505L21.6792 56.6184L21.7125 57.251L19.9145 58.3831L19.8812 58.3499L19.182 59.149L20.8468 60.947L21.8124 60.1812L21.8457 60.7473L21.9123 60.7806L20.8801 61.613L18.8823 59.482L17.7503 60.7473L18.1165 63.6441L16.9179 63.6774Z" fill="#CD7E40"/>
<path d="M41.7239 46.2965C42.6562 45.9968 43.2223 45.4973 43.0225 45.2309C42.8227 44.9646 41.9237 44.9979 41.0247 45.2975C40.0924 45.5972 39.5264 46.0967 39.7261 46.3631C39.9259 46.6294 40.8249 46.5961 41.7239 46.2965Z" fill="#F8C894"/>
<path d="M39.7929 47.5282C39.8928 47.0288 39.693 46.5626 39.36 46.496C39.027 46.4294 38.6941 46.7957 38.5942 47.3284C38.4943 47.8279 38.6941 48.2941 39.027 48.3607C39.36 48.4273 39.693 48.061 39.7929 47.5282Z" fill="#F8C894"/>
<path d="M39.8259 49.0933C39.7926 48.5605 39.4596 48.161 39.1266 48.1943C38.7937 48.2276 38.5606 48.6604 38.5939 49.1932C38.6272 49.7259 38.9602 50.1255 39.2931 50.0922C39.6261 50.0589 39.8592 49.626 39.8259 49.0933Z" fill="#F8C894"/>
<path d="M40.2922 50.6584C40.1257 50.1589 39.7594 49.8259 39.4265 49.9258C39.0935 50.0257 38.9603 50.4919 39.1268 51.0247C39.2933 51.5241 39.6595 51.8571 39.9925 51.7572C40.3255 51.6573 40.4586 51.1911 40.2922 50.6917V50.6584Z" fill="#F8C894"/>
<path d="M40.2919 51.7902C41.6904 52.0899 46.4184 51.0244 46.8512 50.425C47.2841 49.8257 46.9178 46.0298 45.9855 45.2973C45.0533 44.5647 40.192 45.6302 39.4262 46.4627C38.6271 47.2951 38.9934 51.5238 40.2919 51.8235V51.7902Z" fill="#EEB167"/>
<path d="M46.0193 45.2971C45.8195 45.1307 45.4199 45.0641 44.9205 45.0641C45.2868 46.4625 45.3533 48.3272 45.0537 48.7601C44.6874 49.2928 41.0914 50.1585 39.2269 50.1918C39.4266 51.0243 39.7929 51.7235 40.2923 51.8234C41.6908 52.1231 46.4188 51.0576 46.8517 50.4582C47.2845 49.8589 46.9183 46.063 45.986 45.3304L46.0193 45.2971Z" fill="#D79550"/>
<path d="M43.9549 51.4573C44.0548 51.424 44.188 51.424 44.2879 51.3907V51.424C44.188 51.4573 44.0881 51.4573 43.9882 51.4906L43.9549 51.4573Z" fill="#91353C"/>
<path d="M41.1578 49.9587L40.8248 49.426L39.2266 49.7589L39.1933 49.3927V49.2595L40.8914 48.9265L42.0235 47.4947L40.6917 45.8299L41.3243 45.6967L42.6894 47.3948L42.6561 47.4281L43.5218 48.0608L44.7205 46.5291C44.7538 46.7289 44.8204 46.9287 44.8537 47.1285L43.9214 48.3272L44.7871 48.9598C44.6206 49.0264 44.4208 49.1263 44.1877 49.2262L42.3232 47.8943L41.3243 49.1596L41.7571 49.8921C41.5574 49.9254 41.3576 49.9587 41.1578 49.992V49.9587ZM44.4208 45.3637L44.221 45.1639L44.3542 45.1306C44.3875 45.1972 44.3875 45.2971 44.4208 45.3637Z" fill="#E2944E"/>
<path d="M42.1897 51.6904L41.1575 49.9923C41.3573 49.959 41.5571 49.9257 41.7568 49.8924L42.8223 51.6571C42.6225 51.6904 42.4228 51.6904 42.223 51.7237L42.1897 51.6904ZM43.6547 51.5239L44.8201 49.7259L44.1542 49.2264C44.3872 49.1265 44.6203 49.0599 44.7535 48.96L45.2196 49.293C45.2529 49.4595 45.2862 49.6593 45.2862 49.8591H45.2529L44.254 51.3574C44.1542 51.3907 44.0543 51.424 43.9211 51.424C43.8212 51.4573 43.7213 51.4573 43.6214 51.4906L43.6547 51.5239Z" fill="#CD7E40"/>
<path d="M38.0613 37.772C40.2256 38.5379 47.917 38.4047 45.4531 73.0005C45.4531 73.0005 52.079 73.3668 53.311 72.8673C55.8748 45.4637 47.5841 37.9385 38.0613 37.8053V37.772Z" fill="#E35468"/>
<path d="M51.8791 48.9265C52.3785 52.0898 51.7792 54.6869 49.9812 55.7525C48.8491 56.4517 47.3841 56.4184 45.8525 55.819C46.0523 60.2809 45.9857 65.9081 45.4862 73.0004C45.4862 73.0004 52.1122 73.3667 53.3441 72.8672C54.343 62.0456 53.6771 54.3207 51.8791 48.9265Z" fill="#CE5461"/>
<path d="M17.3512 58.2831C16.2191 57.4839 15.0537 57.1177 14.6875 57.6504C14.2879 58.1832 14.9205 59.3153 16.0526 60.1144C17.1847 60.9135 17.8173 60.9135 18.2169 60.3808C18.6164 59.848 18.5165 59.1155 17.3845 58.2831H17.3512Z" fill="#F8C894"/>
<path d="M13.688 60.5144C13.1219 61.3135 12.9554 62.2125 13.5215 62.5788C14.0875 62.9451 14.9865 62.6121 15.5525 61.813C16.1186 61.0138 16.0187 60.4811 15.4527 60.1148C14.8866 59.7152 14.254 59.7152 13.688 60.5144Z" fill="#F8C894"/>
<path d="M15.3869 62.0793C14.8209 62.8784 14.6544 63.7774 15.2204 64.1437C15.7865 64.5433 16.6855 64.177 17.2515 63.3779C17.8175 62.5787 17.7176 62.046 17.1516 61.6797C16.5856 61.2801 15.9529 61.2801 15.3869 62.0793Z" fill="#F8C894"/>
<path d="M17.3176 63.0782C16.7515 63.8773 16.5851 64.7763 17.1511 65.1426C17.7171 65.5422 18.6161 65.1759 19.1822 64.3768C19.7482 63.5776 19.6483 63.0449 19.0823 62.6786C18.5162 62.279 17.8836 62.279 17.3176 63.0782Z" fill="#F8C894"/>
<path d="M16.9511 58.6496C18.0831 57.8171 18.7823 56.8182 18.3828 56.2855C17.9832 55.7527 16.7513 55.9858 15.6192 56.8182C14.4872 57.6506 14.3207 58.25 14.7202 58.7827C15.1198 59.3155 15.8523 59.4487 16.9844 58.6163L16.9511 58.6496Z" fill="#F8C894"/>
<path d="M22.8446 77.1963L25.1754 73.3338L24.1099 72.5347L22.4784 75.7978L20.1144 77.1963H22.8446Z" fill="#E35468"/>
<path d="M41.0245 77.1961L40.7582 72.9341L41.9235 72.3014L42.0234 75.731L43.7548 77.1961H41.0245Z" fill="#E35468"/>
<path d="M33.899 38.6376L37.6615 43.0329L38.4939 37.8718C37.0955 37.6387 35.7636 37.9384 33.8657 38.6376H33.899Z" fill="#FFDA65"/>
<path d="M17.4173 62.3787C17.5172 62.2123 17.3174 61.9126 16.9845 61.6795C16.6515 61.4464 16.2852 61.3798 16.1853 61.5463C16.0855 61.7128 16.2852 62.0125 16.6182 62.2456C16.9512 62.4786 17.3174 62.5452 17.4173 62.3787Z" fill="#EEB167"/>
<path d="M19.2484 63.4777C19.3483 63.3113 19.1485 63.0116 18.8156 62.7785C18.4826 62.5454 18.1164 62.4788 18.0165 62.6453C17.9166 62.8118 18.1164 63.1115 18.4493 63.3446C18.7823 63.5776 19.1485 63.6442 19.2484 63.4777Z" fill="#EEB167"/>
<path d="M15.6859 60.947C15.7858 60.7805 15.586 60.4808 15.253 60.2477C14.9201 60.0146 14.5538 59.948 14.4539 60.1145C14.354 60.281 14.5538 60.5807 14.8868 60.8138C15.2197 61.0469 15.586 61.1134 15.6859 60.947Z" fill="#EEB167"/>
<path d="M34.3657 57.7171H37.2957V56.7515H34.3657V57.7171Z" fill="#B06E90"/>
<path d="M33.1335 38.9377C32.9004 37.9388 32.0347 38.9044 31.2689 39.1042C30.5031 39.304 30.4365 39.8367 30.5364 40.1697C30.7694 41.1686 31.4021 41.2685 32.2012 41.0687C32.967 40.869 33.3998 39.9033 33.1668 38.9377H33.1335Z" fill="#BC4A59"/>
<path d="M32.2345 39.903C32.2012 39.7032 31.9348 39.6033 31.7017 39.6699C31.4353 39.7365 31.2689 39.9363 31.3022 40.1028C31.3355 40.3026 31.6018 40.4025 31.8349 40.3359C32.1013 40.2693 32.2678 40.0695 32.2345 39.903Z" fill="#FFDA65"/>
<path d="M33.9659 38.7044L33.8993 38.6378L33.9659 38.7044Z" fill="#B3A6A1"/>
<path d="M30.8031 41.7679C30.5034 41.7346 30.2037 41.7013 29.9373 41.668C30.237 41.3683 30.5367 41.0686 30.8031 40.8022C30.8697 40.8688 30.903 40.9354 30.9695 40.9687C30.8697 41.2018 30.8031 41.4682 30.7698 41.7679H30.8031Z" fill="#7E4E5F"/>
<path d="M32.9663 41.8679C32.2005 41.8679 31.468 41.8346 30.8021 41.768C30.8354 41.4684 30.902 41.202 31.0019 40.9689C31.1684 41.1021 31.4014 41.1687 31.6345 41.1687C31.801 41.1687 32.0008 41.1354 32.2005 41.1021C32.9331 40.9023 33.3659 40.0366 33.1994 39.0709C33.4658 38.9378 33.7322 38.8379 33.9985 38.7047L36.529 41.6348H36.4957C35.2638 41.8013 34.0984 41.8679 32.9996 41.8679H32.9663ZM37.9608 41.4018L38.4935 38.1053C38.9597 38.2385 39.3592 38.405 39.7255 38.6714C40.1583 38.971 40.4913 39.7036 40.7244 40.7358C39.892 41.0022 38.9597 41.202 37.9608 41.4018Z" fill="#7E4E5F"/>
<path d="M40.7251 40.7689C40.4587 39.7367 40.159 39.0042 39.7262 38.7045C39.3932 38.4381 38.9604 38.2716 38.4942 38.1385L38.5275 37.9387C39.4265 38.2051 40.7917 38.5713 42.1235 40.3028C41.6907 40.4693 41.2245 40.6357 40.7251 40.7689Z" fill="#6E4354"/>
<path d="M38.1277 37.8056C38.0944 37.8056 38.0611 37.8056 38.0278 37.8056H38.0611C38.0944 37.8056 38.0944 37.8056 38.1277 37.8388V37.8056Z" fill="#6F3139"/>
<path d="M33.9988 38.6046V36.6401C34.2985 36.6401 34.5649 36.6401 34.8645 36.6401C35.8967 36.6401 36.8956 36.5735 37.8279 36.5069L38.0277 37.8055C37.8945 37.8055 37.728 37.7722 37.5948 37.7722C36.5294 37.7722 35.4639 38.0719 34.0321 38.5713L33.9988 38.6046Z" fill="#B07E59"/>
<path d="M41.8236 38.2715C41.7903 38.2715 41.7903 38.2715 41.757 38.2715L41.8236 38.3048V38.2715Z" fill="#863940"/>
<path d="M42.1235 40.2696C40.7916 38.5381 39.4265 38.1718 38.5275 37.9055V37.8389C38.3943 37.8056 38.2611 37.8056 38.1279 37.7723C38.0946 37.7723 38.0946 37.7723 38.0613 37.739C39.3266 37.7723 40.5586 37.9055 41.7572 38.2051C41.7905 38.2051 41.7905 38.2051 41.8238 38.2051C42.6562 38.4382 43.4886 38.7379 44.2877 39.1042C43.7217 39.5037 42.9892 39.87 42.1235 40.203V40.2696Z" fill="#A13F48"/>
<path d="M36.4628 41.6347L33.9323 38.7046L33.8657 38.638L33.9656 38.6047C35.3973 38.1052 36.4628 37.8056 37.5283 37.8056C37.6615 37.8056 37.8279 37.8056 37.9611 37.8389C37.9944 37.8389 38.0277 37.8389 38.061 37.8389C38.1942 37.8389 38.3274 37.8722 38.4606 37.9054V37.972L38.4273 38.1718L37.8945 41.4682C37.4284 41.5681 36.929 41.6347 36.4295 41.7013L36.4628 41.6347Z" fill="#B48F48"/>
<path d="M31.6021 41.1684C31.369 41.1684 31.136 41.1018 30.9695 40.9686C30.9029 40.9353 30.8363 40.8687 30.803 40.8022C30.7031 40.669 30.6032 40.4692 30.5366 40.2361C30.5033 40.1695 30.5033 40.0696 30.5033 40.003C30.5033 39.67 30.6698 39.3038 31.2691 39.1706C31.8019 39.0374 32.3346 38.5712 32.7342 38.5712C32.9339 38.5712 33.0671 38.6711 33.1337 39.0041C33.1337 39.0374 33.1337 39.104 33.167 39.1373C33.3335 40.0696 32.9339 40.9686 32.1681 41.1684C31.9684 41.235 31.7686 41.235 31.6021 41.235V41.1684ZM31.8352 39.6367C31.8019 39.6367 31.7353 39.6367 31.702 39.67C31.4356 39.7366 31.2691 39.9364 31.3024 40.1029C31.3357 40.2694 31.5022 40.336 31.702 40.336C31.7353 40.336 31.8019 40.336 31.8352 40.3027C32.1015 40.2361 32.268 40.0363 32.2347 39.8698C32.2014 39.7033 32.035 39.6367 31.8352 39.6367Z" fill="#863940"/>
<path d="M31.7017 40.3359C31.5019 40.3359 31.3355 40.236 31.3022 40.1029C31.2689 39.9031 31.4353 39.7033 31.7017 39.67C31.7683 39.67 31.8016 39.6367 31.8349 39.6367C32.0347 39.6367 32.2012 39.7366 32.2345 39.8698C32.2678 40.0696 32.1013 40.2693 31.8349 40.3026C31.7683 40.3026 31.735 40.3359 31.7017 40.3359Z" fill="#B48F48"/>
<path d="M27.3069 32.8776C25.2092 35.7744 19.5489 39.4704 18.1838 35.0752C18.1838 35.0752 15.7531 38.6713 14.3547 35.1751C14.3547 35.1751 10.1927 40.7357 5.69769 38.8711C1.20271 37.0064 3.73322 33.6767 3.73322 33.6767C3.73322 33.6767 0.137238 35.5413 0.0373497 31.812C-0.0625388 28.1161 3.9663 29.3813 3.9663 29.3813C3.9663 29.3813 -2.29338 26.0183 8.46128 12.6328C8.46128 12.6328 4.06618 6.17316 21.9795 2.81014C21.9795 2.81014 37.9284 -4.01579 41.0582 3.60928C41.0582 3.60928 49.9483 2.44387 40.026 13.3321C30.0705 24.187 27.3069 32.8776 27.3069 32.8776Z" fill="#8C4E36"/>
<path d="M25.3416 24.1535C16.8178 27.35 8.36054 27.9161 2.16745 26.118C2.40053 28.582 3.93215 29.4145 3.93215 29.4145C3.93215 29.4145 -0.12998 28.1492 0.00320488 31.8452C0.103093 35.5412 3.69908 33.7098 3.69908 33.7098C3.69908 33.7098 1.16857 37.0728 5.66355 38.9042C10.1585 40.7688 14.3205 35.2082 14.3205 35.2082C15.719 38.6711 18.1496 35.1083 18.1496 35.1083C19.548 39.5035 25.2084 35.8076 27.2727 32.9107C27.2727 32.9107 29.1373 27.0837 35.2638 19.0257C32.3671 21.0236 29.0041 22.7883 25.3083 24.1535H25.3416Z" fill="#693C30"/>
<path d="M43.4879 35.2082C47.1838 33.2436 53.0439 27.4166 47.0839 18.3598C42.2893 11.101 38.993 7.43826 29.5036 9.26961C25.1085 10.102 14.0875 19.958 19.7811 29.6475C25.4414 39.2038 40.6911 36.6733 43.4879 35.2082Z" fill="#F8BE84"/>
<path d="M49.3155 22.655L24.1769 26.8505L24.3767 28.3488L49.5152 24.1534L49.3155 22.655Z" fill="#EEA26C"/>
<path d="M18.749 28.7817L49.9808 23.654L47.8498 17.2942L17.7834 23.9203L18.749 28.7817Z" fill="#CE5461"/>
<path d="M25.6418 22.1555L17.1513 23.8537L18.7162 28.815L27.5397 27.3499C26.341 26.2178 25.8083 23.5873 25.6085 22.1555H25.6418Z" fill="#B44757"/>
<path d="M36.6294 14.2976C41.191 14.6972 44.3874 10.8014 40.7248 7.3718L36.0301 8.5705C36.0301 8.5705 44.787 10.2021 36.6294 14.2976Z" fill="#8C4E36"/>
<path d="M22.8782 14.8972C25.209 15.5298 28.6718 12.0336 28.805 8.97025L24.9759 9.17003C24.9759 9.17003 27.573 13.199 22.8782 14.8972Z" fill="#8C4E36"/>
<path d="M36.9955 11.0011C34.9978 13.7315 29.4706 12.2331 32.434 7.67137L34.3652 7.07202C34.3652 7.07202 31.5683 12.0999 36.9955 11.0011Z" fill="#8C4E36"/>
<path d="M20.3808 28.6155C17.7171 28.3824 16.2188 29.6477 16.6849 31.5124C17.151 33.377 21.1799 33.0108 22.5783 31.7455C23.9768 30.4802 20.3808 28.6155 20.3808 28.6155Z" fill="#F8BE84"/>
<path d="M19.7814 29.4814C18.0833 29.3482 17.151 30.1473 17.4507 31.3127C17.7504 32.4781 20.3142 32.2783 21.1799 31.4459C22.0456 30.6468 19.7814 29.4814 19.7814 29.4814Z" fill="#EEA26C"/>
<path d="M20.5137 29.8141C19.5481 29.7142 18.9821 30.1804 19.1819 30.8796C19.3484 31.5456 20.8134 31.4124 21.3128 30.9795C21.8123 30.5134 20.5137 29.8474 20.5137 29.8474V29.8141Z" fill="#F8BE84"/>
<path d="M20.3807 28.6155C22.2786 28.2825 21.8791 30.0806 24.4429 29.2481C26.5738 28.5489 25.9079 26.4845 23.0444 26.3846C20.1809 26.318 23.6437 23.8873 21.8791 22.9216C19.1155 21.39 23.6437 18.2933 21.4129 18.2267C19.1821 18.1601 20.1809 14.5307 18.2498 15.8293C16.3186 17.1279 9.09332 21.7562 8.86025 24.1536C8.62718 26.551 12.6227 29.0816 15.1865 28.2492C17.717 27.4168 16.0189 29.4146 20.3807 28.6488V28.6155Z" fill="#8C4E36"/>
<path d="M31.0688 26.0516C31.0688 26.0516 28.7048 21.5565 32.1343 20.824C35.5638 20.0914 36.6626 24.1537 36.1964 24.7863C35.7303 25.3857 32.7003 25.9517 31.0688 26.0516Z" fill="#9A3A49"/>
<path d="M31.4355 26.0514C31.4355 26.0514 29.2712 21.7893 32.4011 21.0901C35.5309 20.3908 36.5631 24.2533 36.1303 24.8194C35.6974 25.3854 32.9005 25.9182 31.4022 26.0181L31.4355 26.0514Z" fill="#FEEDDF"/>
<path d="M45.6193 23.4878C45.6193 23.4878 46.152 18.7263 42.9223 19.1925C39.6926 19.6587 40.1254 23.6543 40.7248 24.0539C41.3241 24.4535 44.1543 23.9207 45.6193 23.4878Z" fill="#9A3A49"/>
<path d="M45.7525 23.4875C45.7525 23.4875 46.252 18.9258 43.1887 19.392C40.1588 19.8248 40.5583 23.654 41.1244 24.0203C41.6904 24.3865 44.3874 23.9204 45.7525 23.4875Z" fill="#FEEDDF"/>
<path d="M35.9305 28.1828L41.0914 27.5168C41.0914 27.5168 40.3589 31.013 38.6941 31.1129C37.3623 31.2128 35.9305 28.1495 35.9305 28.1495V28.1828Z" fill="#564034"/>
<path d="M37.3956 29.7476L36.3634 28.3158L40.6919 27.8496L40.0593 29.4812L37.3956 29.7476Z" fill="#FEE9DC"/>
<path d="M40.0254 25.6187C39.9921 25.2525 39.426 24.9861 38.7601 25.086C38.0942 25.1526 37.5947 25.5188 37.628 25.8851C37.6613 26.2514 38.2274 26.5178 38.8933 26.4179C39.5592 26.3513 40.0587 25.985 40.0254 25.6187Z" fill="#EEA26C"/>
<path d="M39.8924 25.4188C39.8591 25.1191 39.3929 24.9193 38.8269 24.9526C38.2609 25.0192 37.8613 25.3189 37.8946 25.6186C37.9279 25.9182 38.394 26.118 38.9601 26.0847C39.5261 26.0181 39.9256 25.7185 39.8924 25.4188Z" fill="#F8BE84"/>
<path d="M34.6985 23.8872C34.5986 23.0881 33.9992 22.5221 33.3333 22.5886C32.6674 22.6552 32.2013 23.3545 32.3011 24.1536C32.401 24.9528 33.0004 25.5188 33.6663 25.4522C34.3322 25.3856 34.7983 24.6864 34.6985 23.8872Z" fill="#77AAB6"/>
<path d="M44.5868 22.2558C44.5202 21.5232 43.9542 20.9572 43.3216 21.0238C42.689 21.0904 42.2561 21.723 42.3227 22.4888C42.3893 23.2214 42.9553 23.7874 43.5879 23.7208C44.2206 23.6542 44.6534 23.0216 44.5868 22.2558Z" fill="#77AAB6"/>
<path d="M44.0209 22.0224C43.9876 21.7228 43.7545 21.523 43.5215 21.523C43.2551 21.5563 43.0886 21.7894 43.1219 22.089C43.1552 22.3887 43.3883 22.6218 43.6213 22.5885C43.8877 22.5552 44.0542 22.3221 44.0209 22.0224Z" fill="#9CD4DD"/>
<path d="M34.1653 23.5875C34.132 23.2878 33.8989 23.0547 33.6326 23.088C33.3662 23.1213 33.1664 23.3877 33.1997 23.6873C33.233 23.987 33.4661 24.2201 33.7325 24.1868C33.9988 24.1535 34.1986 23.8871 34.1653 23.5875Z" fill="#9CD4DD"/>
<path d="M36.1305 28.1826C36.1305 28.0161 35.9973 27.8496 35.8308 27.8496C35.6643 27.8496 35.5312 27.9828 35.5312 28.1826C35.5312 28.3491 35.6643 28.5156 35.8308 28.5156C35.9973 28.5156 36.1305 28.3824 36.1305 28.1826Z" fill="#564034"/>
<path d="M41.391 27.5831C41.391 27.4166 41.2578 27.2501 41.0914 27.2501C40.9249 27.2501 40.7917 27.3833 40.7917 27.5831C40.7917 27.7496 40.9249 27.9161 41.0914 27.9161C41.2578 27.9161 41.391 27.7829 41.391 27.5831Z" fill="#564034"/>
<path d="M32.7007 28.1161C32.6341 27.7166 31.7018 27.5501 30.6363 27.7166C29.5708 27.9164 28.7384 28.3825 28.805 28.7821C28.8716 29.1817 29.8039 29.3481 30.8694 29.1817C31.9349 28.9819 32.7673 28.5157 32.7007 28.1161Z" fill="#EEA26C"/>
<path d="M48.2161 25.7851C48.1495 25.3855 47.2172 25.219 46.1517 25.3855C45.0863 25.5853 44.2539 26.0514 44.3204 26.451C44.387 26.8506 45.3193 27.0171 46.3848 26.8506C47.4503 26.6508 48.2827 26.1846 48.2161 25.7851Z" fill="#EEA26C"/>
<path d="M28.1055 20.9236C28.0389 21.0235 30.5694 18.6261 31.5017 18.2265C31.5017 18.2265 29.9701 17.6604 28.1055 20.9236Z" fill="#8C4E36"/>
<path d="M44.2879 16.7615C44.3878 16.7948 40.9916 16.7282 40.0926 17.0612C40.0926 17.0612 40.7585 15.6294 44.2879 16.7615Z" fill="#8C4E36"/>
<path d="M15.5529 29.681C13.0224 29.4479 9.22665 25.985 11.2244 22.0559C11.2244 22.0559 7.52854 24.6864 7.76162 27.4501L15.5529 29.681Z" fill="#693C30"/>
</svg>
